<svg width="276" height="35" viewBox="0 0 276 35" fill="none" xmlns="http://www.w3.org/2000/svg">
<path d="M8.75597 17.0265H26.2679V12.7283H4.37799V25.623H26.2679V21.3248H8.75597V17.0265ZM0 8.43005H26.2679C29.1859 8.43005 30.6459 9.86344 30.6459 12.7283V14.8774C30.6459 17.4986 29.9149 18.9301 28.4569 19.1757C29.9149 19.4213 30.6459 20.8547 30.6459 23.4739V25.623C30.6459 28.4898 29.1859 29.9213 26.2679 29.9213H0V8.43005Z" fill="#303030"/>
<path d="M35.0216 29.9213V8.43005L61.2895 22.4301V8.43005H65.6675V29.9213L39.3996 16.1899V29.9213H35.0216Z" fill="#303030"/>
<path d="M78.8006 17.0265H96.3125V12.7283H74.4226V25.623H96.3125V21.3248H78.8006V17.0265ZM70.0446 8.43005H96.3125C99.2305 8.43005 100.691 9.86344 100.691 12.7283V14.8774C100.691 17.4986 99.9596 18.9301 98.5015 19.1757C99.9596 19.4213 100.691 20.8547 100.691 23.4739V25.623C100.691 28.4898 99.2305 29.9213 96.3125 29.9213H70.0446V8.43005Z" fill="#303030"/>
<path d="M140.088 8.43005H170.734V12.7283H157.6V29.9213H153.222V12.7283H140.088V8.43005Z" fill="#303030"/>
<path d="M205.755 12.7283H179.487V25.623H205.755V29.9213H179.487C176.568 29.9213 175.109 28.4898 175.109 25.623V12.7283C175.109 9.86344 176.568 8.43005 179.487 8.43005H205.755V12.7283ZM205.755 21.3248H183.865V17.0265H205.755V21.3248Z" fill="#303030"/>
<path d="M210.131 25.623V12.7283C210.131 9.86344 211.589 8.43005 214.509 8.43005H240.777V12.7283H214.509V25.623H240.777V29.9213H214.509C211.589 29.9213 210.131 28.4898 210.131 25.623Z" fill="#303030"/>
<path d="M249.532 8.43005V17.0265H271.422V8.43005H275.8V29.9213H271.422V21.3248H249.532V29.9213H245.154V8.43005H249.532Z" fill="#303030"/>
<mask id="mask0_582_4177" style="mask-type:luminance" maskUnits="userSpaceOnUse" x="103" y="0" width="36" height="35">
<path d="M103.152 0H138.801V35H103.152V0Z" fill="white"/>
</mask>
<g mask="url(#mask0_582_4177)">
<path d="M119.104 21.1593L111.216 28.969L109.379 30.7881L107.606 32.5419L105.642 30.6404L107.43 28.8731L109.267 27.0521L117.14 19.2596L118.958 17.4616L120.822 15.6157L122.46 13.9942L130.61 5.92736L132.449 4.10636L134.046 2.52522L136.01 4.42681L134.415 6.00411L132.578 7.82319L124.424 15.8939L122.763 17.5384L120.898 19.3843L119.104 21.1593ZM136.2 17.5C136.2 20.313 135.408 22.9457 134.03 25.1927L135.928 27.031C137.746 24.2889 138.801 21.0154 138.801 17.5C138.801 15.9879 138.606 14.52 138.238 13.1212L136.036 15.301C136.143 16.0186 136.2 16.7536 136.2 17.5ZM107.88 25.1217L115.451 17.6266L117.287 15.8095L119.151 13.9635L117.376 12.2078L115.442 10.2908L111.173 6.06552C111.736 5.60115 112.33 5.17708 112.957 4.79523C115.285 3.37527 118.033 2.554 120.977 2.554C121.702 2.554 122.413 2.60389 123.111 2.69984C124.184 2.84759 125.222 3.10471 126.211 3.46162H126.213C127.057 3.7648 127.866 4.1409 128.632 4.5784L130.516 2.71519C129.777 2.25466 129.004 1.84594 128.198 1.49479C127.274 1.09375 126.31 0.765625 125.31 0.52193C123.924 0.180373 122.472 0 120.977 0C117.306 0 113.896 1.08991 111.06 2.95696C110.458 3.35417 109.883 3.78399 109.336 4.24836L107.688 2.61732L105.81 4.446L107.465 6.0847L109.305 7.9057L113.577 12.1349L115.514 14.0499L113.657 15.8882L106.721 22.7538L104.735 24.7207C105.101 25.5093 105.523 26.2654 105.996 26.9868L107.88 25.1217ZM105.753 17.5C105.753 14.827 106.469 12.3152 107.723 10.145L105.814 8.29715C104.127 10.9701 103.152 14.1228 103.152 17.5C103.152 19.0178 103.349 20.4896 103.719 21.8942L105.921 19.7163C105.81 18.9929 105.753 18.2522 105.753 17.5ZM132.543 27.2171L128.269 22.9899L126.338 21.0748L128.038 19.392L135.238 12.2654L137.226 10.2966C136.86 9.50411 136.436 8.74041 135.959 8.01508L134.075 9.88021L126.23 17.6439L124.551 19.3076L122.687 21.1516L124.473 22.9208L126.404 24.8339L130.653 29.0381C130.028 29.5447 129.359 30.0014 128.656 30.4062C126.402 31.7034 123.777 32.446 120.977 32.446C120.259 32.446 119.552 32.3961 118.86 32.3021C117.787 32.1562 116.751 31.8991 115.76 31.5461C114.91 31.241 114.095 30.8629 113.323 30.4216L111.439 32.2867C112.182 32.7492 112.961 33.1598 113.772 33.5129H113.774C114.697 33.9139 115.66 34.2401 116.657 34.4838C118.039 34.8215 119.487 35 120.977 35C124.506 35 127.796 33.9926 130.563 32.256C131.239 31.832 131.882 31.3657 132.492 30.8591L134.134 32.4863L136.014 30.6576L134.378 29.0381L132.543 27.2171Z" fill="#5271FF"/>
</g>
</svg>
