<svg width="180" height="90" viewBox="0 0 180 90" fill="none" xmlns="http://www.w3.org/2000/svg">
<g clip-path="url(#clip0_603_4264)">
<path d="M19.2192 26.0049C8.61477 26.0049 0 34.6197 0 45.2241C0 55.8285 8.61477 64.4433 19.2192 64.4433C29.8236 64.4433 38.4384 55.8285 38.4384 45.2241C38.4384 34.6197 29.8236 26.0049 19.2192 26.0049ZM19.2192 62.5171C9.6731 62.5171 1.92615 54.749 1.92615 45.2241C1.92615 35.6991 9.6731 27.931 19.2192 27.931C28.7653 27.931 36.5122 35.6991 36.5122 45.2241C36.5122 54.749 28.7653 62.5171 19.2192 62.5171Z" fill="black"/>
<path d="M26.0771 32.905C26.0136 32.8627 25.9289 32.8415 25.8443 32.8415C25.5903 32.8415 25.3998 33.032 25.3998 33.286V39.2973C25.3998 39.509 25.2304 39.6783 25.0188 39.6783H13.3772C13.1655 39.6783 13.0174 39.509 12.9962 39.2973V33.286C12.9962 33.2013 12.975 33.1378 12.9327 33.0532C12.8057 32.8415 12.5305 32.778 12.3189 32.905C8.02206 35.5508 5.41858 40.144 5.41858 45.2239C5.41858 50.3039 8.02206 54.897 12.3612 57.5428C12.4247 57.5852 12.5094 57.6063 12.594 57.6063C12.848 57.6063 13.0385 57.4158 13.0385 57.1618V51.1505C13.0385 50.9389 13.2079 50.7907 13.4195 50.7695H25.0611C25.2728 50.7695 25.4421 50.9389 25.4421 51.1505V57.1618C25.4421 57.2465 25.4633 57.31 25.5056 57.3947C25.6326 57.6063 25.9078 57.6698 26.1194 57.5428C30.4586 54.897 33.062 50.3039 33.062 45.2239C33.062 40.144 30.4162 35.5508 26.0771 32.905ZM10.7949 52.7592L10.8584 53.4789L10.3927 52.9074C6.81557 48.3989 6.81557 42.0278 10.3927 37.5193L10.7949 37.0113L10.8584 36.9478L10.7949 37.6886C10.7314 38.2813 10.7102 38.8951 10.7102 39.509V50.9177C10.7102 51.5315 10.7525 52.1454 10.7949 52.7592ZM25.3998 48.1026C25.3998 48.3142 25.2304 48.4836 25.0188 48.4836H13.3772C13.1655 48.4836 13.0174 48.3142 12.9962 48.1026V42.3453C12.9962 42.1336 13.1655 41.9643 13.3772 41.9643H25.0188C25.2304 41.9643 25.3998 42.1336 25.3998 42.3453V48.1026ZM28.0244 52.9074L27.5587 53.4789L27.6222 52.7592C27.6857 52.1665 27.7069 51.5527 27.7069 50.9389V39.509C27.7069 38.8951 27.6857 38.2813 27.6222 37.6886L27.6011 37.3711L27.5799 37.0325V36.9478L28.0244 37.5193C29.7601 39.6783 30.7126 42.4299 30.7126 45.2027C30.7126 47.9756 29.7601 50.7484 28.0244 52.9074Z" fill="black"/>
<path d="M67.4365 44.8851C67.3307 44.8428 67.2037 44.8005 67.2037 44.6735C67.2037 44.5888 67.246 44.5253 67.3307 44.483C67.4789 44.4195 71.1407 43.1071 71.1407 38.7892C71.1407 33.9844 67.9022 31.1269 62.4412 31.1269H49.2122V59.363H63.6477C67.8599 59.363 72.3895 56.3785 72.3895 51.5737C72.3895 46.9806 68.9182 45.3719 67.4365 44.8851ZM55.8796 36.9053C55.8796 36.7995 55.9643 36.7148 56.0701 36.7148H61.3194C63.0551 36.7148 64.2404 37.879 64.2404 39.6147C64.2404 40.9693 63.1821 42.4298 61.1924 42.4298H56.0701C55.9643 42.4298 55.8796 42.3451 55.8796 42.2393V36.9053ZM61.3194 53.7962H56.0701C55.9643 53.7962 55.8796 53.7116 55.8796 53.6057V47.9754C55.8796 47.8696 55.9643 47.7849 56.0701 47.7849H61.1924C63.7112 47.7849 65.1505 48.8644 65.1505 50.7694C65.1505 52.7379 63.8171 53.7962 61.3194 53.7962ZM117.072 42.3663L116.056 42.1546C113.77 41.6678 111.548 41.054 111.548 39.0855C111.548 37.117 113.389 36.228 115.209 36.228C117.347 36.228 119.464 37.1805 121.072 38.8315L125.263 34.6829C123.464 32.6932 120.268 30.4072 115.104 30.4072C108.881 30.4072 104.69 33.942 104.69 39.2125C104.69 44.7793 109.071 46.8748 112.754 47.6579L113.749 47.8696C117.326 48.6316 119.019 49.2031 119.019 51.2351C119.019 53.0554 117.389 54.2619 114.977 54.2619C112.14 54.2619 109.621 53.0131 107.716 50.6636L103.42 54.8757C105.706 57.585 108.732 60.0403 115.061 60.0403C120.459 60.0403 125.941 56.9077 125.941 50.8964C125.92 44.737 121.729 43.34 117.072 42.3663ZM172.846 31.1269V41.4561C172.846 41.562 172.761 41.6466 172.655 41.6466H163.977C163.871 41.6466 163.786 41.562 163.786 41.4561V31.1269H156.675V59.363H163.786V48.2718C163.786 48.1659 163.871 48.0813 163.977 48.0813H172.655C172.761 48.0813 172.846 48.1659 172.846 48.2718V59.363H180V31.1269H172.846ZM142.366 53.5846C139.17 53.5846 135.72 50.9176 135.72 45.0545C135.72 39.6993 138.958 36.9053 142.154 36.9053C144.483 36.9053 146.112 37.879 147.404 40.038L152.865 36.4185C150.071 32.3122 146.747 30.4496 142.112 30.4496C133.032 30.4496 128.968 37.7943 128.968 45.0545C128.968 53.8809 134.344 60.0403 142.027 60.0403C147.742 60.0403 150.346 57.9449 153.076 54.0714L147.573 50.3672C146.345 52.3569 145.012 53.5846 142.366 53.5846ZM88.3702 30.4072C80.6021 30.4072 75.3951 36.355 75.3951 45.2238C75.3951 54.0926 80.6021 60.0403 88.3702 60.0403C96.1383 60.0403 101.345 54.0926 101.345 45.2238C101.345 36.355 96.1383 30.4072 88.3702 30.4072ZM88.3702 53.5846C84.5602 53.5846 82.1049 50.3037 82.1049 45.2238C82.1049 40.165 84.5602 36.9053 88.3702 36.9053C92.2013 36.9053 94.6778 40.165 94.6778 45.2238C94.6778 50.3037 92.2013 53.5846 88.3702 53.5846Z" fill="#F80000"/>
</g>
<defs>
<clipPath id="clip0_603_4264">
<rect width="180" height="38.448" fill="white" transform="translate(0 26)"/>
</clipPath>
</defs>
</svg>
