<svg width="180" height="90" viewBox="0 0 180 90" fill="none" xmlns="http://www.w3.org/2000/svg">
<g clip-path="url(#clip0_603_4259)">
<path d="M139.627 0H40V90H139.627V0Z" fill="white"/>
<path d="M84.7426 11.9204H51.9314V23.8409H84.7426V11.9204Z" fill="white"/>
<path fill-rule="evenodd" clip-rule="evenodd" d="M65.496 22.4349C65.6241 22.3069 65.7534 22.1695 65.8819 22.0316C66.1115 21.7588 66.3627 21.5025 66.6311 21.2649C66.7087 21.1945 66.7907 21.1291 66.8766 21.069C66.8879 21.0577 66.8936 21.0408 66.8992 21.0239C66.9048 21.007 66.9104 20.9901 66.9217 20.9789C66.8654 21.0014 66.8203 21.0352 66.7752 21.0689C66.7301 21.1027 66.685 21.1365 66.6286 21.1591C66.6061 21.1591 66.5835 21.1366 66.6061 21.1141L66.847 20.9335C66.842 20.9338 66.8368 20.9338 66.8315 20.9338C66.809 20.9338 66.809 20.9114 66.809 20.8888C66.5183 20.8441 66.2942 21.0431 66.0926 21.2221L66.0875 21.2266C66.0574 21.2417 66.0273 21.2266 66.004 21.215C65.9923 21.2091 65.9823 21.2041 65.9748 21.2041C65.7975 21.2632 65.6451 21.3717 65.4914 21.4811C65.3519 21.5804 65.2114 21.6805 65.0505 21.7448V21.6997C64.9944 21.7184 64.939 21.7433 64.8834 21.7684C64.8049 21.8038 64.7261 21.8393 64.6446 21.8574C64.492 21.8912 64.3522 21.8869 64.2155 21.8827C64.1705 21.8813 64.1255 21.8799 64.0809 21.8799C63.8052 21.9134 63.5315 21.9621 63.2611 22.0257L63.2493 22.0287L63.2439 22.03L63.2376 22.0316C63.0913 22.071 62.9502 22.1278 62.8175 22.2007C62.8122 22.2035 62.8071 22.2065 62.8021 22.2096C62.7908 22.2237 62.7798 22.2372 62.7694 22.2486C62.7269 22.3029 62.6744 22.3486 62.6148 22.3834C62.5168 22.4332 62.4314 22.5092 62.3465 22.5847C62.3115 22.6159 62.2766 22.647 62.2409 22.6761C62.2303 22.6835 62.2177 22.6874 62.2048 22.6875C62.1676 22.7232 62.1306 22.7589 62.0936 22.7947C62.0102 22.8752 61.9267 22.956 61.8416 23.0348C61.8202 23.0447 61.7961 23.0476 61.7729 23.043C61.7791 23.0337 61.7835 23.0266 61.7878 23.0195C61.8067 22.9877 61.826 22.956 61.8455 22.9245C61.8674 22.8893 61.8896 22.8544 61.9124 22.8199C61.9431 22.7733 61.9747 22.7272 62.0084 22.6827C62.0162 22.6743 62.0158 22.6612 62.0076 22.6532C61.9991 22.6451 61.9877 22.6409 61.9761 22.6414C62.0914 22.5336 62.2183 22.439 62.3545 22.3592C62.3395 22.3606 62.3176 22.3485 62.329 22.3327C62.3374 22.321 62.3447 22.3089 62.352 22.2968C62.3572 22.2882 62.3623 22.2797 62.3679 22.2713C62.3704 22.2646 62.3728 22.2579 62.3751 22.2512C62.3716 22.2473 62.3681 22.2438 62.3645 22.2401L62.358 22.2335C62.3209 22.2555 62.2855 22.2802 62.2521 22.3074C62.2357 22.3221 62.2205 22.3415 62.2048 22.3614C62.1689 22.407 62.1311 22.4551 62.0741 22.4544C62.0625 22.4542 62.051 22.4526 62.0399 22.4495C62.0315 22.4484 62.0235 22.4456 62.0162 22.4415L62.0191 22.4363L62.0225 22.43L62.0257 22.4241L62.0365 22.4048L62.0423 22.3943L62.0472 22.3853L62.0559 22.3697C62.0612 22.3602 62.0664 22.3508 62.0719 22.3412L62.0764 22.3332L62.0788 22.3291L62.0837 22.3208C62.0904 22.3092 62.0972 22.2976 62.104 22.2861L62.1128 22.2711L62.1267 22.2472L62.1366 22.2302L62.1437 22.218L62.1507 22.2062C62.1553 22.1988 62.156 22.1897 62.1527 22.1817C62.1493 22.1737 62.1423 22.1678 62.1337 22.1659C62.1757 22.1113 62.2282 22.0656 62.2881 22.0315H62.2813C62.3407 22.0016 62.4002 21.9673 62.4596 21.933C62.4864 21.9175 62.5134 21.9019 62.5402 21.8868C62.5486 21.8797 62.5567 21.8726 62.5649 21.8655L62.5775 21.8546C62.4506 21.8975 62.3299 21.957 62.2186 22.0315C62.2053 22.0367 62.1925 22.0436 62.1809 22.052C62.1597 22.0566 62.1378 22.0486 62.1246 22.0315C62.121 22.0267 62.119 22.0209 62.1192 22.0149C62.1324 21.9887 62.1608 21.97 62.1912 21.9502C62.2129 21.9359 62.2357 21.921 62.2545 21.9022C62.277 21.9022 62.2995 21.9022 62.2995 21.9248C62.7472 21.5753 63.299 21.4948 63.8527 21.414C64.1913 21.3647 64.5307 21.3152 64.8473 21.2039L65.0502 21.0688C65.1082 21.0456 65.1602 21.0046 65.2154 20.961C65.2676 20.9198 65.3226 20.8764 65.3883 20.8435C65.5705 20.7186 65.7055 20.5362 65.7716 20.3255C65.7692 20.3084 65.7613 20.2926 65.7491 20.2804C65.4657 20.5856 65.1297 20.8374 64.7571 21.0238C64.4157 21.2024 64.0508 21.2289 63.6878 21.2551C63.5475 21.2652 63.4073 21.2753 63.269 21.2943C63.2916 21.2493 63.3367 21.2493 63.3817 21.2493C63.3817 21.1958 63.41 21.1705 63.4441 21.14C63.4531 21.1319 63.4625 21.1235 63.4719 21.1141H63.5397C63.5509 21.1141 63.5565 21.1029 63.5621 21.0916C63.5678 21.0803 63.5734 21.0691 63.5846 21.0691C63.6297 21.0691 63.6974 21.0465 63.6749 21.0465C63.6405 21.0008 63.5888 21.0189 63.5313 21.039C63.4756 21.0584 63.4147 21.0798 63.3593 21.0465C63.381 21.0248 63.387 20.9977 63.3925 20.973C63.3983 20.9467 63.4035 20.923 63.4268 20.9114H63.517C63.5218 20.8773 63.5376 20.8455 63.5621 20.8213C63.763 20.7008 63.9559 20.5963 64.1457 20.4935C64.2753 20.4233 64.4035 20.3538 64.5318 20.2806C64.5056 20.2806 64.4828 20.2908 64.4607 20.3006C64.4258 20.3162 64.3929 20.3308 64.3515 20.3032C64.374 20.3032 64.374 20.2863 64.374 20.2694C64.374 20.2525 64.374 20.2356 64.3966 20.2356C64.5385 20.197 64.6656 20.1362 64.7949 20.0743C64.8915 20.0281 64.9894 19.9814 65.0954 19.9428C65.0645 19.9428 65.0362 19.9508 65.0088 19.9585C64.9562 19.9733 64.9067 19.9872 64.8475 19.9428C64.8624 19.9353 64.875 19.9253 64.8875 19.9153C64.9125 19.8952 64.9376 19.8752 64.9827 19.8752V19.8076C64.9827 19.7851 65.0053 19.7851 65.0279 19.7851C65.0107 19.7827 64.9949 19.7748 64.9827 19.7626C64.9944 19.7393 65.0181 19.7341 65.0444 19.7282C65.0691 19.7228 65.0962 19.7168 65.118 19.695C65.0954 19.695 65.0503 19.695 65.0503 19.6725C65.118 19.5824 65.2307 19.5598 65.3435 19.5373C65.3322 19.5148 65.3096 19.5148 65.2899 19.5148C65.2702 19.5148 65.2532 19.5148 65.2532 19.4923C65.2532 19.4697 65.2758 19.4697 65.2983 19.4697H65.2532C65.2183 19.4523 65.224 19.4213 65.2283 19.3977C65.2296 19.3909 65.2307 19.3847 65.2307 19.3797C65.3209 19.2745 65.351 19.1494 65.381 19.0243C65.396 18.9617 65.411 18.8991 65.4336 18.839C65.411 18.839 65.3885 18.839 65.3885 18.8165C65.1697 19.0571 64.8232 19.149 64.4939 19.2364L64.4642 19.2443H64.3515C64.2265 19.2933 64.0864 19.285 63.9681 19.2217C63.9135 19.1944 63.8755 19.1589 63.8339 19.1202C63.8069 19.0948 63.7783 19.0682 63.7427 19.0415C63.5664 18.929 63.3772 18.8382 63.179 18.771C62.6192 18.5882 62.0317 18.5044 61.443 18.5233C61.605 18.435 61.7781 18.3995 61.9531 18.3635C62.046 18.3444 62.1395 18.3253 62.2322 18.298C62.2882 18.2816 62.3438 18.2646 62.399 18.2477C62.7219 18.1492 63.0354 18.0535 63.3819 18.0727C63.3361 18.0575 63.2799 18.0629 63.2274 18.068C63.2024 18.0704 63.1783 18.0727 63.1565 18.0727C62.9026 18.0546 62.6486 18.1094 62.3828 18.1667C62.3182 18.1807 62.253 18.1947 62.1868 18.208C62.0742 18.2304 61.9672 18.2642 61.8602 18.298C61.7531 18.3317 61.6459 18.3655 61.533 18.3881C61.4811 18.4054 61.4391 18.436 61.3981 18.4659C61.3325 18.5137 61.2695 18.5597 61.1722 18.5457V18.4782C61.3977 18.2077 61.6683 17.9376 62.029 17.9151C62.372 17.858 62.6989 17.8974 63.0369 17.9382C63.0988 17.9456 63.1612 17.9532 63.224 17.9601C63.513 17.9908 63.7993 18.0435 64.0803 18.1178C64.1423 18.1178 64.177 18.1722 64.2107 18.2249C64.2383 18.2682 64.2652 18.3104 64.3059 18.3205C64.3599 18.3385 64.4141 18.3422 64.4682 18.3458C64.5494 18.3512 64.6306 18.3565 64.7116 18.4106C64.7116 18.3956 64.7091 18.3806 64.7066 18.3656C64.7016 18.3356 64.6966 18.3055 64.7116 18.2755C64.7625 18.2246 64.8206 18.2384 64.8778 18.2519C64.9219 18.2623 64.9655 18.2726 65.0048 18.253C65.1271 18.1765 65.0108 18.0586 64.8952 17.9415C64.8404 17.886 64.7858 17.8306 64.7568 17.7799C64.7592 17.7628 64.767 17.747 64.7793 17.7348C64.8333 17.7821 64.8833 17.8314 64.9329 17.8803C65.0488 17.9945 65.1625 18.1064 65.3204 18.1854C65.4331 18.2304 65.7036 18.298 65.6585 18.1629C65.5796 17.9892 65.4451 17.8376 65.3097 17.6849C65.2519 17.6197 65.1939 17.5544 65.14 17.4871V17.3973C65.107 17.3973 65.0982 17.3852 65.087 17.3699C65.0829 17.3643 65.0784 17.3583 65.0724 17.3522V17.2622C65.0157 17.2339 65.0036 17.1877 64.9912 17.1406C64.9838 17.1128 64.9764 17.0846 64.9597 17.0595C64.922 16.9967 64.9193 16.92 64.9165 16.841C64.9143 16.7781 64.912 16.7138 64.892 16.6539C64.8513 16.5291 64.8212 16.401 64.8018 16.271C64.7753 16.1208 64.7453 15.9775 64.716 15.8371C64.6706 15.6195 64.6265 15.4088 64.5989 15.1899C64.5642 14.8604 64.73 14.5842 64.9007 14.2997C64.9517 14.2148 65.0032 14.1291 65.0499 14.0411C65.2077 13.7705 65.388 13.5004 65.6811 13.3202C65.7486 13.0505 65.9282 12.8259 66.1078 12.6013L66.1093 12.5995C66.2893 12.3796 66.5885 12.2457 66.8052 12.1489C67.0007 12.0621 67.2007 11.9859 67.4043 11.9204H51.9314V23.8406H62.8893C63.1883 23.6255 63.4871 23.489 63.8434 23.3263C63.9986 23.2555 64.1646 23.1796 64.3463 23.0902C64.3812 23.073 64.4216 23.0535 64.466 23.032L64.467 23.0315C64.7836 22.8785 65.3041 22.6268 65.496 22.4349ZM61.9163 20.7987C61.9321 20.7197 62.0144 20.6961 62.0934 20.6735C62.127 20.6639 62.16 20.6545 62.187 20.641L62.1978 20.6354L62.21 20.629C62.253 20.6059 62.3069 20.577 62.3449 20.5959C62.3704 20.6342 62.4031 20.6436 62.4349 20.6527C62.4593 20.6596 62.4831 20.6665 62.5027 20.6861C62.4213 20.7673 62.3236 20.7753 62.2244 20.7834C62.1585 20.7888 62.092 20.7942 62.029 20.8212C62.0181 20.8212 62.0044 20.8225 61.9904 20.8239C61.9468 20.8281 61.8992 20.8328 61.9163 20.7987ZM59.2784 19.1318C59.0759 19.5373 58.8342 19.922 58.5569 20.2806C58.5593 20.2977 58.5672 20.3135 58.5795 20.3257C59.1206 19.7174 59.6166 19.1994 60.3153 18.7714C60.3326 18.7628 60.3267 18.7707 60.3179 18.7824C60.3038 18.8014 60.2822 18.8303 60.3378 18.8164C60.5721 18.7624 60.6768 18.5644 60.7784 18.3721C60.8039 18.3238 60.8292 18.276 60.8564 18.2308C60.9612 18.0606 61.1117 17.9514 61.2636 17.841C61.3731 17.7615 61.4834 17.6814 61.5778 17.5776C61.5809 17.6023 61.5726 17.6272 61.5553 17.6451C61.5733 17.6625 61.5982 17.6708 61.6229 17.6677C61.6623 17.6383 61.7057 17.6259 61.7479 17.614C61.8028 17.5984 61.8555 17.5834 61.8937 17.5325C61.7068 17.4577 61.4997 17.4497 61.3075 17.5099C60.834 17.7352 60.4283 18.0957 60.0449 18.5011C59.8148 18.7446 59.5715 18.9741 59.2784 19.1318ZM60.3831 18.9291C60.3654 18.9693 60.3332 19.0014 60.293 19.0192C60.2704 19.0192 60.2479 19.0192 60.2479 18.9967C60.2681 18.9021 60.3366 18.8251 60.4283 18.7939C60.4508 18.7938 60.4508 18.8164 60.4508 18.839C60.4392 18.8622 60.427 18.8747 60.4151 18.8868C60.4039 18.8983 60.3929 18.9095 60.3831 18.9291ZM61.472 22.3145C61.4902 22.2978 61.4705 22.2853 61.4422 22.2796C61.4654 22.262 61.4843 22.2396 61.4977 22.2138C61.5162 22.1696 61.397 22.1802 61.3784 22.1931C61.3602 22.2076 61.3439 22.2244 61.33 22.243C61.3005 22.2747 61.2692 22.3046 61.2362 22.3327C61.2115 22.3553 61.1874 22.3786 61.1634 22.4019C61.1326 22.4318 61.1017 22.4617 61.0696 22.49C61.0316 22.5233 61.1556 22.5408 61.1823 22.517C61.2111 22.4915 61.2389 22.465 61.2664 22.4383C61.2781 22.4378 61.2898 22.4362 61.3012 22.4335C61.3659 22.4065 61.4242 22.3659 61.472 22.3145ZM61.0882 22.0316L61.0616 22.0504C60.986 22.1036 60.9103 22.157 60.8308 22.2032C60.7593 22.2446 60.6854 22.2786 60.6112 22.3128C60.5853 22.3248 60.5593 22.3367 60.5334 22.3491C60.5327 22.3471 60.5316 22.3453 60.5304 22.3436C60.5219 22.3316 60.5057 22.3277 60.4927 22.3345C60.4098 22.3817 60.3335 22.4398 60.266 22.5072C60.2555 22.5171 60.245 22.5272 60.2345 22.5375C60.2202 22.5515 60.2096 22.5621 60.1989 22.5728L60.1951 22.5766C60.1948 22.5769 60.1946 22.5774 60.1944 22.5777L60.1937 22.5787C60.1777 22.5946 60.1623 22.6107 60.1446 22.6314C60.1365 22.6435 60.1263 22.6541 60.1146 22.6628C60.1006 22.6721 60.0618 22.6719 60.0654 22.6459V22.6415L60.0638 22.6424C60.051 22.6491 60.0382 22.6558 60.0253 22.662C60.0136 22.6675 60.0032 22.6736 59.9926 22.6799L59.9901 22.6813C59.9852 22.6794 59.9799 22.6786 59.9746 22.679C59.9687 22.6791 59.9631 22.681 59.9583 22.6845C59.9308 22.706 59.9035 22.7291 59.8769 22.7531C59.8295 22.7957 59.7858 22.8422 59.7461 22.8921L59.7396 22.9004L59.7329 22.9091C59.7307 22.9121 59.7281 22.9154 59.7257 22.9185L59.7235 22.9212L59.7202 22.926L59.7137 22.9355L59.7083 22.9436C59.7023 22.9498 59.6958 22.9529 59.6889 22.9539L59.6851 22.9484C59.6833 22.9458 59.6814 22.9431 59.6798 22.9404L59.676 22.934L59.6735 22.9295C59.6666 22.9179 59.6602 22.9058 59.6542 22.8934L59.6536 22.8921L59.651 22.8868L59.6482 22.8809C59.6726 22.8547 59.6962 22.8276 59.719 22.7998L59.7235 22.7944C59.7315 22.7847 59.7392 22.7751 59.747 22.7655L59.7847 22.7173C59.7875 22.7136 59.7902 22.7101 59.7929 22.7066L59.7985 22.6994C59.8233 22.6671 59.847 22.6358 59.869 22.6043L59.8707 22.6019L59.8746 22.596C59.8765 22.5933 59.8784 22.5905 59.8804 22.5877C59.8912 22.5718 59.9016 22.5557 59.9113 22.5393C59.9201 22.5246 59.9283 22.5096 59.936 22.4943L59.9378 22.491L59.9401 22.4864C59.9408 22.485 59.9414 22.4837 59.9419 22.4823C59.9426 22.4809 59.9432 22.4794 59.9438 22.4779C59.9518 22.461 59.9589 22.4435 59.9653 22.4254L59.9673 22.4196L59.9685 22.4159C59.9699 22.4123 59.9712 22.4086 59.9723 22.4048C59.9749 22.3967 59.9772 22.3884 59.9794 22.38C59.9798 22.3781 59.9801 22.3763 59.9806 22.3745L59.9826 22.3666C59.9847 22.3584 59.9868 22.3501 59.9885 22.3415C59.9894 22.3362 59.9885 22.3308 59.9857 22.3263C60.0111 22.2827 60.0411 22.242 60.0751 22.2047C60.0735 22.2057 60.0717 22.2066 60.07 22.2075C60.0682 22.2085 60.0664 22.2095 60.0648 22.2106C60.0468 22.2221 60.0322 22.2362 60.0176 22.2503C60.006 22.2616 59.9944 22.2728 59.9811 22.2827C59.9565 22.301 59.9113 22.2707 59.9403 22.249C59.9583 22.2346 59.9755 22.2191 59.9916 22.2025C60.0296 22.1581 60.068 22.1199 60.109 22.0846L60.1187 22.0776C60.1406 22.0617 60.1601 22.0476 60.1783 22.0317C60.1806 22.0297 60.1826 22.0276 60.1849 22.0256L60.1881 22.0227C60.2035 22.0026 60.2204 21.9837 60.2385 21.9661L60.2395 21.9651C60.2399 21.9646 60.2403 21.9642 60.2409 21.9639C60.3728 21.8367 60.5598 21.7907 60.7503 21.7439C60.8714 21.7141 60.9939 21.6839 61.1045 21.6324C61.1673 21.6073 61.2371 21.6171 61.3061 21.6269C61.3609 21.6347 61.4153 21.6424 61.4651 21.6324C61.5359 21.6254 61.607 21.6413 61.6681 21.6775C61.5119 21.7625 61.3646 21.856 61.2207 21.9475C61.1781 21.9745 61.136 22.0014 61.0938 22.0277L61.0882 22.0316ZM61.4653 20.4158H61.6457C61.633 20.4412 61.5987 20.4451 61.5753 20.4478C61.5573 20.4498 61.5457 20.4511 61.5555 20.4609C61.6232 20.5283 61.7585 20.5059 61.8486 20.4608C61.9171 20.4223 61.996 20.4065 62.0741 20.4158C62.0966 20.4158 62.0966 20.3707 62.0966 20.3482C62.1548 20.3667 62.2159 20.3744 62.2769 20.3707C62.818 20.258 63.3366 20.1455 63.8326 19.8976C63.3321 19.513 62.7165 19.3418 62.1122 19.1738C62.0087 19.1451 61.9057 19.1164 61.8035 19.0867C61.826 19.0867 61.8486 19.0942 61.8711 19.1018C61.9162 19.1168 61.9613 19.1318 62.0064 19.0867C61.9451 19.0377 61.877 19.0287 61.8095 19.0198C61.7531 19.0124 61.697 19.005 61.6457 18.9741C61.6507 18.9741 61.6569 18.9753 61.6638 18.9765C61.6874 18.9809 61.7184 18.9865 61.7359 18.9516C61.6157 18.8916 61.4955 18.8716 61.3752 18.8515C61.3151 18.8415 61.2549 18.8315 61.1947 18.8164C61.3028 18.797 61.3798 18.7008 61.3751 18.5912C61.3751 18.5687 61.33 18.5687 61.3075 18.5687C61.0369 18.7038 60.8565 18.9516 60.7438 19.2444C60.8445 19.302 60.9544 19.2952 61.0617 19.2887C61.1226 19.285 61.1827 19.2813 61.2399 19.2895C61.1897 19.3395 61.1148 19.3525 61.0428 19.365C61.0175 19.3694 60.9925 19.3737 60.9691 19.3796C60.8999 19.3968 60.8338 19.4472 60.8564 19.4922C60.8686 19.5093 60.887 19.5209 60.9076 19.5248C60.8543 19.5388 60.8056 19.5664 60.7662 19.6049C60.8308 19.6531 60.8952 19.644 60.9597 19.6347C60.9855 19.6311 61.0112 19.6274 61.0369 19.6274C61.0369 19.6574 61.057 19.6674 61.0771 19.6775C61.0871 19.6825 61.0971 19.6875 61.1046 19.695C61.0061 19.7309 60.9253 19.8035 60.8791 19.8976C60.8521 19.9653 60.8006 20.0085 60.7493 20.0518C60.715 20.0806 60.6807 20.1094 60.6537 20.1455V20.213C60.577 20.2819 60.4978 20.3429 60.4196 20.4033C60.2675 20.5206 60.1189 20.6351 59.9999 20.7987C60.0224 20.7987 60.0224 20.8212 60.0224 20.8437C60.0019 20.8743 59.9723 20.8957 59.9438 20.9162C59.9095 20.941 59.8769 20.9644 59.8645 21.0014C59.8645 21.0239 59.8645 21.0465 59.8871 21.0465C60.0289 20.9993 60.1521 20.9211 60.2729 20.8445C60.3827 20.7749 60.4905 20.7064 60.6086 20.6636C60.705 20.6394 60.7885 20.5961 60.8694 20.554C60.9399 20.5174 61.0085 20.4818 61.082 20.4608C61.1383 20.4495 61.2004 20.4327 61.2624 20.4158C61.3244 20.3989 61.3864 20.382 61.4428 20.3707C61.4428 20.3932 61.4428 20.4158 61.4653 20.4158ZM62.5051 22.4013C62.5069 22.4 62.5087 22.3986 62.5105 22.3971L62.5145 22.3939C62.5471 22.3709 62.5775 22.3415 62.6046 22.3063C62.6027 22.3057 62.6009 22.305 62.599 22.3043C62.5973 22.3036 62.5956 22.3028 62.594 22.3019C62.5639 22.3327 62.5347 22.3658 62.5051 22.4013ZM66.9032 20.9232L66.8563 20.9581C66.8822 20.9569 66.9032 20.9504 66.9032 20.9232Z" fill="#000091"/>
<path d="M84.7422 11.9204H71.9078C71.9505 11.9344 71.9914 11.9534 72.0296 11.977C72.1338 12.0329 72.2689 12.1049 72.3534 12.1492C72.5264 12.2288 72.6749 12.3532 72.7833 12.5096C72.8284 12.5772 72.8961 12.7124 72.851 12.8025C72.8059 12.9151 72.7833 13.0953 72.6706 13.1404C72.5353 13.2079 72.3549 13.2079 72.1971 13.1854C72.1054 13.1814 72.0145 13.1663 71.9263 13.1404C72.2645 13.2755 72.5801 13.4332 72.8056 13.7485C72.8282 13.7936 72.9183 13.8161 73.0086 13.8161C73.0311 13.8161 73.0311 13.8611 73.0311 13.8837C72.986 13.9288 72.9409 13.9513 72.9634 14.0188H73.0311C73.1438 13.9737 73.1213 13.7483 73.2791 13.8161C73.3942 13.8869 73.4337 14.0353 73.3693 14.154C73.2847 14.2356 73.1942 14.3109 73.0985 14.3792C73.076 14.4293 73.076 14.4867 73.0985 14.5369C73.155 14.618 73.1934 14.7102 73.2112 14.8074C73.2789 14.965 73.3014 15.1453 73.3691 15.3029C73.4593 15.6408 73.5494 15.9787 73.5269 16.3166C73.5269 16.4968 73.4367 16.6545 73.5043 16.8347C73.5494 17.0149 73.6621 17.1501 73.7524 17.3077C73.8425 17.4428 73.9327 17.533 74.0004 17.6681C74.1356 17.8934 74.3836 18.1186 74.2711 18.3889C74.2035 18.5466 73.9555 18.5241 73.7977 18.6142C73.6624 18.7268 73.7752 18.907 73.8428 19.0196C73.9555 19.2224 73.7075 19.3575 73.5497 19.4251C73.5948 19.4926 73.685 19.4701 73.7075 19.5152C73.73 19.6278 73.8428 19.6954 73.7752 19.808C73.685 19.9432 73.4144 20.0108 73.5497 20.2135C73.6399 20.3712 73.5812 20.5463 73.5272 20.7091C73.4595 20.9118 73.2792 21.0018 73.1213 21.0469C72.9824 21.088 72.8357 21.0957 72.6932 21.0694C72.652 21.0445 72.6058 21.0291 72.5579 21.0244C72.1746 20.9793 71.7913 20.8667 71.408 20.8667C71.2994 20.8832 71.1933 20.9135 71.0924 20.9568C70.9942 21.0287 70.9029 21.1094 70.8194 21.198L70.8168 21.2008C70.7998 21.2188 70.7836 21.237 70.7676 21.2554C70.7578 21.2668 70.7482 21.2784 70.7386 21.2899C70.7321 21.2976 70.7257 21.3054 70.7194 21.3132C70.6539 21.3953 70.5946 21.482 70.5419 21.5728C70.5385 21.5785 70.5351 21.5843 70.5319 21.59C70.526 21.6005 70.5203 21.611 70.5145 21.6215C70.4436 21.7531 70.3864 21.8915 70.3438 22.0348C70.1905 22.5506 70.2575 22.9932 70.3651 23.1006C70.3951 23.1305 71.1093 23.3508 71.6068 23.572C71.7903 23.649 71.9681 23.7388 72.1389 23.8409H84.7422V11.9204Z" fill="#E1000F"/>
<path d="M72.6712 16.2693C72.7614 16.2919 72.8966 16.2919 72.8966 16.3369C72.8516 16.517 72.5809 16.5621 72.4457 16.7424H72.3782C72.3106 16.7875 72.3331 16.9 72.2655 16.9C72.1972 16.8851 72.126 16.893 72.0626 16.9226C72.1528 17.0126 72.2655 17.0803 72.4007 17.0577C72.4396 17.0712 72.4664 17.1069 72.4684 17.1479C72.4857 17.1463 72.5018 17.1382 72.5135 17.1253C72.5361 17.1253 72.5586 17.1253 72.5586 17.1479V17.238C72.4909 17.3281 72.3782 17.283 72.2879 17.3056C72.4578 17.3506 72.6366 17.3506 72.8064 17.3056C72.9418 17.2605 72.8064 17.035 72.8967 16.9226C72.8516 16.9226 72.8967 16.855 72.8516 16.855C72.8967 16.81 72.9418 16.7424 72.9869 16.7199C73.0404 16.7213 73.0912 16.696 73.1222 16.6523C73.1222 16.6073 73.032 16.5847 73.0545 16.5396C73.1898 16.4496 73.3024 16.3144 73.2575 16.1793C73.2349 16.1117 73.0545 16.1117 72.9418 16.0666C72.829 16.0216 72.6937 16.0666 72.5585 16.0891C72.4457 16.0891 72.333 16.1567 72.2203 16.1793C72.0667 16.2317 71.9222 16.3076 71.7921 16.4044C71.9535 16.3462 72.1195 16.301 72.2882 16.2693C72.4232 16.2693 72.5381 16.2361 72.6712 16.2693Z" fill="#808080"/>
<path d="M51.9672 38.7416H53.6614V32.7575L55.5227 35.8807H56.7158L58.5771 32.7575V38.7416H60.2714V30.3973H58.1595L56.1193 33.9019L54.079 30.3973H51.9672V38.7416ZM62.7813 38.7416H64.4756V30.3973H62.7813V38.7416ZM66.989 38.7416H68.6833V32.7098L72.4178 38.7416H74.5893V30.3973H72.8951V36.429L69.1606 30.3973H66.989V38.7416ZM77.1041 38.7416H78.7983V30.3973H77.1041V38.7416ZM80.5601 37.5853C81.2999 38.4675 82.2425 38.98 83.6504 38.98C85.1895 38.98 86.4065 38.0383 86.4304 36.4648C86.4304 33.6039 82.6362 34.033 82.6362 32.5191C82.6362 32.0185 83.0299 31.637 83.6265 31.637C84.2589 31.637 84.8077 32.0542 85.2969 32.686L86.5378 31.5655C85.8219 30.7191 84.8674 30.1588 83.6146 30.1588C82.0158 30.1588 80.9181 31.2555 80.9181 32.5787C80.9181 35.4039 84.7122 34.9867 84.7122 36.5244C84.7122 37.1204 84.3066 37.4781 83.6384 37.4781C82.9583 37.4781 82.2902 37.0966 81.7891 36.4529L80.5601 37.5853ZM87.4685 31.935H90.0456V38.7416H91.7399V31.935H94.3171V30.3973H87.4685V31.935ZM97.6664 29.682H99.2175L97.8693 28.0728H96.1273L97.6664 29.682ZM95.9841 38.7416H100.852V37.335H97.6784V35.1893H100.375V33.7827H97.6784V31.8039H100.852V30.3973H95.9841V38.7416ZM103 38.7416H104.694V35.3681H105.565L107.796 38.7416H109.789L107.176 35.0463C108.035 34.6529 108.524 33.9019 108.524 32.8886C108.524 31.339 107.391 30.3973 105.553 30.3973H103V38.7416ZM105.649 31.8039C106.365 31.8039 106.782 32.233 106.782 32.8648C106.782 33.5443 106.365 33.9615 105.649 33.9615H104.694V31.8039H105.649ZM111.041 38.7416H115.909V37.335H112.735V35.1893H115.432V33.7827H112.735V31.8039H115.909V30.3973H111.041V38.7416ZM51.9672 51.2582H55.2483C57.897 51.2582 59.6868 49.339 59.6868 47.086C59.6868 44.833 57.897 42.9138 55.2483 42.9138H51.9672V51.2582ZM55.2722 44.4516C56.8232 44.4516 57.9448 45.5959 57.9448 47.086C57.9448 48.5641 56.8232 49.7204 55.2722 49.7204H53.6614V44.4516H55.2722ZM61.4997 51.2582H66.3677V49.8516H63.1939V47.7059H65.8904V46.2992H63.1939V44.3204H66.3677V42.9138H61.4997V51.2582ZM67.7638 50.1019C68.5035 50.984 69.4461 51.4966 70.854 51.4966C72.3931 51.4966 73.6101 50.5549 73.634 48.9814C73.634 46.1204 69.8398 46.5496 69.8398 45.0357C69.8398 44.535 70.2335 44.1536 70.8301 44.1536C71.4625 44.1536 72.0113 44.5708 72.5005 45.2026L73.7414 44.082C73.0255 43.2357 72.071 42.6754 70.8182 42.6754C69.2194 42.6754 68.1217 43.7721 68.1217 45.0953C68.1217 47.9204 71.9159 47.5032 71.9159 49.041C71.9159 49.637 71.5102 49.9946 70.842 49.9946C70.162 49.9946 69.4938 49.6132 68.9927 48.9694L67.7638 50.1019ZM77.815 51.2582H79.6166L80.416 49.0886H83.7568L84.5562 51.2582H86.3578L83.196 42.9138H80.9768L77.815 51.2582ZM80.941 47.6463L82.0864 44.5112L83.2318 47.6463H80.941ZM87.8265 51.2582H89.5208V47.8847H90.3918L92.6229 51.2582H94.6155L92.0025 47.5628C92.8616 47.1694 93.3507 46.4184 93.3507 45.4052C93.3507 43.8555 92.2173 42.9138 90.3798 42.9138H87.8265V51.2582ZM90.4753 44.3204C91.1912 44.3204 91.6088 44.7496 91.6088 45.3814C91.6088 46.0608 91.1912 46.4781 90.4753 46.4781H89.5208V44.3204H90.4753ZM95.8676 51.2582H97.5618V45.2741L99.4231 48.3973H100.616L102.477 45.2741V51.2582H104.172V42.9138H102.06L100.02 46.4184L97.9795 42.9138H95.8676V51.2582ZM109.868 42.1986L111.419 40.5893H109.677L108.329 42.1986H109.868ZM106.682 51.2582H111.55V49.8516H108.376V47.7059H111.073V46.2992H108.376V44.3204H111.55V42.9138H106.682V51.2582ZM113.698 51.2582H118.566V49.8516H115.392V47.7059H118.088V46.2992H115.392V44.3204H118.566V42.9138H113.698V51.2582ZM119.962 50.1019C120.701 50.984 121.644 51.4966 123.052 51.4966C124.591 51.4966 125.808 50.5549 125.832 48.9814C125.832 46.1204 122.038 46.5496 122.038 45.0357C122.038 44.535 122.431 44.1536 123.028 44.1536C123.66 44.1536 124.209 44.5708 124.698 45.2026L125.939 44.082C125.223 43.2357 124.269 42.6754 123.016 42.6754C121.417 42.6754 120.32 43.7721 120.32 45.0953C120.32 47.9204 124.114 47.5032 124.114 49.041C124.114 49.637 123.708 49.9946 123.04 49.9946C122.36 49.9946 121.692 49.6132 121.191 48.9694L119.962 50.1019Z" fill="#1E1E1E"/>
<path fill-rule="evenodd" clip-rule="evenodd" d="M82.9291 72.5366L81.8195 73.5498H81.5331L82.1893 72.3936H82.9291V72.5366ZM82.1297 76.4585H81.8911C81.5928 76.8161 81.2587 77.1022 80.9365 77.1022C80.6025 77.1022 80.4354 76.8995 80.4354 76.4585C80.4354 76.2796 80.4593 76.0889 80.4951 75.922L82.4399 75.2783C82.8217 74.3724 82.3683 73.979 81.8314 73.979C80.9127 73.979 79.8627 75.5883 79.8627 76.8757C79.8627 77.4836 80.1491 77.8174 80.6025 77.8174C81.1274 77.8055 81.6763 77.2929 82.1297 76.4585ZM81.4615 74.5035C81.724 74.5035 81.9507 74.7061 81.8314 75.171L80.6263 75.4929C80.8172 74.9207 81.1752 74.5035 81.4615 74.5035ZM77.6673 74.5273H78.3116L77.2855 77.3406C77.1901 77.579 77.3213 77.8174 77.5719 77.8174C78.2997 77.8174 79.1707 77.1975 79.5048 76.3154H79.3258C79.0633 76.6849 78.4906 77.0902 78.0611 77.1618L79.0037 74.5273H79.9701L80.0894 74.122H79.1468L79.5048 73.1088H79.1349L78.4668 74.122L77.6673 74.2293V74.5273ZM76.7725 73.9909C76.9037 73.9909 77.0827 74.134 76.9992 74.3962L75.8419 77.1975C76.1401 77.1498 76.4503 76.8638 76.6293 76.6015H76.8202C76.5458 77.3048 75.9254 77.8174 75.3885 77.8174C75.2572 77.8174 75.0663 77.6744 75.1618 77.4121L76.2356 74.6108C75.9373 74.6585 75.6271 74.9445 75.4481 75.2068H75.2691C75.5436 74.4916 76.2117 73.9909 76.7725 73.9909ZM77.1066 73.2757C77.3452 73.2757 77.548 73.0849 77.548 72.8346C77.548 72.5962 77.3452 72.3936 77.1066 72.3936C76.856 72.3936 76.6651 72.5962 76.6651 72.8346C76.6651 73.073 76.8679 73.2757 77.1066 73.2757ZM71.8926 75.6002C72.1551 75.028 72.0596 74.7657 71.8926 74.7657C71.7494 74.7657 71.5824 74.9207 71.4153 75.2068H71.2363C71.5108 74.5989 71.8687 73.9909 72.2624 73.9909C72.5965 73.9909 72.7158 74.3247 72.7158 74.6942V75.2187C72.7701 75.1555 72.8229 75.0936 72.8745 75.0334C73.3786 74.4421 73.7635 73.9909 74.2073 73.9909C74.5533 73.9909 74.7322 74.2055 74.7322 74.5273C74.7322 74.7181 74.6726 74.9565 74.5413 75.2068L73.551 77.1975C73.8493 77.1498 74.1595 76.8638 74.3385 76.6015H74.5175C74.243 77.3167 73.5749 77.8174 73.0141 77.8174C72.7636 77.8174 72.6204 77.5551 72.7278 77.3406L73.8732 75.1353C74.0044 74.8849 74.0283 74.7181 73.8254 74.7181C73.551 74.7181 72.9067 75.171 72.5607 75.5883L71.809 77.5671C71.7255 77.7697 71.642 77.8174 71.4511 77.8174C71.1409 77.8174 70.9858 77.6147 71.129 77.2929L71.8926 75.6002ZM71.117 74.8373C71.2483 74.3843 71.1767 73.979 70.8307 73.979C70.3992 73.979 70.2641 74.2639 69.8459 75.1448L69.8165 75.2068V74.6823C69.8165 74.3128 69.6972 73.979 69.3631 73.979C68.9694 73.979 68.6114 74.5869 68.337 75.1949H68.516C68.7069 74.9207 68.8859 74.7538 69.029 74.7538C69.1961 74.7538 69.2915 75.0161 69.029 75.5883L68.2654 77.281C68.1223 77.6028 68.2774 77.8055 68.5876 77.8055C68.7785 77.8055 68.862 77.7578 68.9455 77.5551L69.6972 75.5763C69.912 75.3141 70.1029 75.0876 70.3415 74.8373H71.117ZM67.3467 75.171C67.466 74.7061 67.2393 74.5035 66.9768 74.5035C66.6905 74.5035 66.3326 74.9207 66.1417 75.4929L67.3467 75.171ZM67.645 76.4585H67.4064C67.1081 76.8161 66.774 77.1022 66.4519 77.1022C66.1178 77.1022 65.9507 76.8995 65.9507 76.4585C65.9507 76.2796 65.9746 76.0889 66.0104 75.922L67.9552 75.2783C68.337 74.3724 67.8836 73.979 67.3467 73.979C66.428 73.979 65.378 75.5883 65.378 76.8757C65.378 77.4836 65.6644 77.8174 66.1178 77.8174C66.6428 77.8055 67.1916 77.2929 67.645 76.4585ZM63.827 74.5273H63.1827V74.2293L63.9821 74.122L64.6502 73.1088H65.0201L64.6622 74.122H65.6047L65.4854 74.5273H64.519L63.5764 77.1618C64.0059 77.0902 64.5786 76.6849 64.8411 76.3154H65.0201C64.686 77.1975 63.815 77.8174 63.0872 77.8174C62.8367 77.8174 62.7054 77.579 62.8009 77.3406L63.827 74.5273ZM59.7703 76.7088C59.7703 75.8386 60.7367 74.6704 61.2737 74.6704C61.393 74.6704 61.5123 74.6823 61.6077 74.7181L61.047 76.22C60.7248 76.6134 60.2237 77.0902 59.9851 77.0902C59.8538 77.0902 59.7703 76.971 59.7703 76.7088ZM62.431 73.8002L62.7293 73.824L61.6913 76.2081C61.4407 76.7803 61.5481 77.0426 61.6913 77.0426C61.8344 77.0426 62.0134 76.8757 62.2043 76.6015H62.3833C62.1088 77.2095 61.7509 77.8174 61.3572 77.8174C61.0231 77.8174 60.8203 77.4598 60.8799 76.8161L60.9038 76.5896L60.8388 76.6802C60.4114 77.2774 60.0247 77.8174 59.6271 77.8174C59.2811 77.8174 59.1021 77.6028 59.1021 77.281C59.1021 75.8982 60.6174 74.134 62.0373 74.134H62.0969L62.431 73.8002ZM59.6987 74.8373C59.83 74.3843 59.7584 73.979 59.4124 73.979C58.9809 73.979 58.8457 74.2639 58.4275 75.1448L58.3982 75.2068V74.6823C58.3982 74.3128 58.2789 73.979 57.9448 73.979C57.5511 73.979 57.1931 74.5869 56.9187 75.1949H57.0977C57.2886 74.9207 57.4675 74.7538 57.5988 74.7538C57.7658 74.7538 57.8613 75.0161 57.5988 75.5883L56.8352 77.2929C56.692 77.6147 56.8471 77.8174 57.1573 77.8174C57.3482 77.8174 57.4318 77.7697 57.5153 77.5671L58.267 75.5883C58.4817 75.326 58.6726 75.0995 58.9112 74.8492H59.6987V74.8373ZM54.783 77.4598L54.7114 77.6744H51.9314L52.003 77.4479C52.862 77.2929 53.0052 77.2214 53.3632 76.2558L54.1387 74.1816C54.4847 73.2161 54.4131 73.1445 53.6614 72.9896L53.733 72.775H57.3482L57.1335 73.9313H56.871C56.871 73.2399 56.7994 73.0611 56.1432 73.0611H55.9761C55.3318 73.0611 55.2483 73.1565 55.0693 73.6571L54.5563 75.0518H55.308C55.8091 75.0518 56 74.7419 56.2267 74.3366H56.4892L55.8687 76.0293H55.6063C55.6659 75.5167 55.6659 75.3141 55.2006 75.3141H54.4489L54.1029 76.2677C53.7289 77.2601 53.8358 77.2804 54.7264 77.4491C54.7449 77.4526 54.7638 77.4562 54.783 77.4598Z" fill="black"/>
<path fill-rule="evenodd" clip-rule="evenodd" d="M57.1454 63.4175L56.0358 64.2161V64.2281H55.7494L56.4057 63.2744H57.1454V63.4175ZM64.9008 69.0082L66.6786 64.2877L66.6189 64.2161L65.39 64.3592V64.5022L65.6286 64.681C65.8323 64.8396 65.7784 64.9868 65.6093 65.4493L65.5809 65.5274L64.2207 69.1512C64.1133 69.3658 64.2565 69.6281 64.5071 69.6281C65.0678 69.6281 65.6644 69.1155 65.9388 68.4122H65.7598C65.5689 68.6744 65.1871 68.9605 64.9008 69.0082ZM73.0499 65.3724L74.1595 64.3592V64.2161H73.4198L72.7636 65.3724H73.0499ZM73.1215 68.2691H73.3601C72.9187 69.1155 72.3698 69.6281 71.8448 69.6281C71.3914 69.6281 71.1051 69.2943 71.1051 68.6863C71.1051 67.3989 72.1551 65.7896 73.0738 65.7896C73.5987 65.7896 74.0641 66.183 73.6823 67.089L71.7255 67.7327C71.6897 67.8996 71.6659 68.0903 71.6659 68.2691C71.6659 68.7102 71.8329 68.9128 72.167 68.9128C72.4891 68.9128 72.8232 68.6267 73.1215 68.2691ZM73.0618 66.9817C73.1812 66.5287 72.9545 66.3261 72.692 66.3261C72.4175 66.3261 72.0596 66.7433 71.8568 67.3035L73.0618 66.9817ZM69.554 66.3499H68.9097V66.0519L69.7091 65.9446L70.3773 64.9314H70.7472L70.3892 65.9446H71.3318L71.2125 66.3499H70.246L69.3035 68.9843C69.733 68.9128 70.3057 68.5075 70.5682 68.138H70.7472C70.4131 69.0201 69.5421 69.64 68.8143 69.64C68.5637 69.64 68.4325 69.4016 68.5279 69.1632L69.554 66.3499ZM68.2416 66.2069C68.3132 65.9446 68.1461 65.8016 68.0029 65.8016C67.4422 65.8016 66.774 66.3141 66.4996 67.0175H66.6786C66.8575 66.7552 67.1677 66.4691 67.466 66.4214L66.3922 69.2228C66.2968 69.485 66.4877 69.6281 66.6189 69.6281C67.1558 69.6281 67.7762 69.1155 68.0507 68.4122H67.8717C67.6927 68.6744 67.3825 68.9605 67.0842 69.0082L68.2416 66.2069ZM68.7904 64.6572C68.7904 64.8956 68.5876 65.0983 68.349 65.0983C68.1103 65.0983 67.9075 64.8956 67.9075 64.6572C67.9075 64.4188 68.0984 64.2161 68.349 64.2161C68.5876 64.2161 68.7904 64.4188 68.7904 64.6572ZM62.7651 66.493C62.2282 66.493 61.2617 67.6612 61.2617 68.5314C61.2617 68.7936 61.3452 68.9128 61.4884 68.9128C61.7151 68.9128 62.2162 68.436 62.5384 68.0426L63.0992 66.5406C62.9918 66.5049 62.8844 66.493 62.7651 66.493ZM64.2207 65.6466L63.9224 65.6228L63.5883 65.9565H63.5287C62.1088 65.9565 60.5936 67.7208 60.5936 69.1036C60.5936 69.4254 60.7725 69.64 61.1185 69.64C61.5161 69.64 61.9029 69.1 62.3302 68.5028L62.3952 68.4122L62.3713 68.6387C62.3117 69.2824 62.5145 69.64 62.8486 69.64C63.2423 69.64 63.6003 69.032 63.8747 68.4241H63.6957C63.5048 68.6983 63.3258 68.8651 63.1827 68.8651C63.0395 68.8651 62.9321 68.6029 63.1827 68.0307L64.2207 65.6466ZM58.2073 69.5089C57.6942 69.7115 57.3363 69.9499 57.3363 70.3194C57.3363 70.6651 57.6585 70.8082 58.3266 70.8082C59.2215 70.8082 59.7106 70.5459 59.7106 70.2002C59.7106 70.0453 59.5078 69.9737 58.9709 69.7949C58.6249 69.6877 58.3743 69.5923 58.2073 69.5089ZM58.8039 68.0426C58.5652 68.0426 58.4817 67.84 58.4817 67.6254C58.4817 66.934 58.8158 66.0757 59.3527 66.0757C59.5913 66.0757 59.6749 66.2784 59.6749 66.493C59.6629 67.1963 59.3288 68.0426 58.8039 68.0426ZM59.2573 69.1632C59.9135 69.3658 60.3191 69.5208 60.3191 69.9737C60.3191 70.5579 59.2453 71.2492 57.9448 71.2373C57.1931 71.2373 56.5488 71.0347 56.5488 70.5459C56.5488 70.081 56.9784 69.6996 58.0283 69.3896C57.8851 69.2943 57.8255 69.1751 57.8255 69.0082C57.8255 68.7221 58.088 68.4956 58.5414 68.281C58.0999 68.2214 57.8136 67.8877 57.8136 67.3989C57.8136 66.6479 58.434 65.7896 59.4124 65.7896C59.6152 65.7896 59.7942 65.8373 59.9373 65.9327H61.0112L60.8918 66.338H60.2595C60.2953 66.4453 60.3191 66.5645 60.3191 66.6956C60.3191 67.4228 59.7345 68.2572 58.8039 68.3049C58.5652 68.436 58.4459 68.6148 58.4459 68.7579C58.4459 68.9259 58.6411 68.9832 59.0724 69.1089C59.1298 69.1256 59.1915 69.1435 59.2573 69.1632ZM55.475 67.1247C55.9403 67.1247 55.9523 67.3274 55.8807 67.84H56.1432L56.7636 66.1473H56.5011C56.2744 66.5526 56.0835 66.8625 55.5824 66.8625H54.5563L55.0574 65.4678C55.2364 64.9671 55.3199 64.8718 55.9642 64.8718H56.4176C57.0738 64.8718 57.1454 65.0506 57.1454 65.742H57.4079L57.6227 64.5857H53.733L53.6614 64.8002C54.4131 64.9552 54.4847 65.0267 54.1387 65.9923L53.3632 68.0784C53.0052 69.0439 52.862 69.1155 51.9911 69.2704L51.9314 69.4969H56.2505L57.0261 68.2691H56.7278C56.2267 68.7579 55.7256 69.2108 54.7472 69.2108C53.671 69.2108 53.6903 69.1584 54.0131 68.2721C54.0339 68.2149 54.056 68.1547 54.079 68.0903L54.437 67.1367H55.475V67.1247Z" fill="black"/>
<path fill-rule="evenodd" clip-rule="evenodd" d="M59.0425 56.9085C59.2811 56.9085 59.4839 56.7058 59.4839 56.4674C59.4839 56.229 59.2811 56.0264 59.0425 56.0264C58.7919 56.0264 58.601 56.229 58.601 56.4674C58.601 56.7178 58.7919 56.9085 59.0425 56.9085ZM60.0805 61.4383C61.0112 61.4502 62.5742 59.7337 62.5742 58.4105C62.5742 57.8383 62.431 57.6237 62.0253 57.6237C61.5242 57.6237 61.0589 58.1601 60.5936 58.8039L61.5958 56.1217L61.5361 56.0383L60.3072 56.1813V56.3244L60.5458 56.5032C60.7536 56.6647 60.6934 56.8261 60.5164 57.3006L60.4981 57.3495L59.4124 60.1866C59.3169 60.425 59.2095 60.7111 59.2095 60.7827C59.2095 61.1164 59.6629 61.4383 60.0805 61.4383ZM72.9187 57.1946L74.0283 56.1813V56.0383H73.2885L72.6323 57.1946H72.9187ZM72.9903 60.0913H73.2289C72.7755 60.9376 72.2266 61.4502 71.7017 61.4383C71.2483 61.4383 70.9619 61.1164 70.9619 60.5085C70.9619 59.2211 72.0119 57.6118 72.9306 57.6118C73.4556 57.6118 73.9209 58.0052 73.5391 58.9111L71.5943 59.5548C71.5585 59.7217 71.5346 59.9125 71.5346 60.0913C71.5346 60.5323 71.7017 60.735 72.0357 60.735C72.3579 60.735 72.692 60.4489 72.9903 60.0913ZM72.9306 58.8039C73.0499 58.3509 72.8232 58.1482 72.5607 58.1482C72.2744 58.1482 71.9164 58.5654 71.7255 59.1257L72.9306 58.8039ZM69.4108 58.1721H68.7666V57.874L69.566 57.7668L70.2341 56.7535H70.604L70.246 57.7668H71.1886L71.0693 58.1721H70.1029L69.1603 60.8065C69.5898 60.735 70.1625 60.3297 70.425 59.9601H70.604C70.2699 60.8423 69.3989 61.4621 68.6711 61.4621C68.4205 61.4621 68.2893 61.2237 68.3847 60.9853L69.4108 58.1721ZM68.4325 58.482C68.5637 58.029 68.4921 57.6237 68.1461 57.6237C67.7146 57.6237 67.5795 57.9084 67.1613 58.7897L67.132 58.8515V58.327C67.132 57.9575 67.0126 57.6237 66.6786 57.6237C66.2848 57.6237 65.9269 58.2317 65.6525 58.8396H65.8314C66.0223 58.5654 66.2013 58.3986 66.3326 58.3986C66.4996 58.3986 66.595 58.6608 66.3326 59.233L65.5689 60.9257C65.4258 61.2476 65.5809 61.4502 65.8911 61.4502C66.082 61.4502 66.1655 61.4025 66.249 61.1999L67.0007 59.2211C67.2155 58.9588 67.4064 58.7323 67.645 58.482H68.4325ZM64.6502 58.8039C64.7695 58.3509 64.5428 58.1482 64.2804 58.1482C63.994 58.1482 63.648 58.5654 63.4452 59.1257L64.6502 58.8039ZM64.9485 60.0913H64.7099C64.4116 60.4489 64.0775 60.735 63.7554 60.735C63.4213 60.735 63.2543 60.5323 63.2543 60.0913C63.2543 59.9125 63.2781 59.7217 63.3139 59.5548L65.2587 58.9111C65.6405 58.0052 65.1871 57.6118 64.6502 57.6118C63.7315 57.6118 62.6816 59.2211 62.6816 60.5085C62.6816 61.1164 62.9679 61.4383 63.4213 61.4383C63.9463 61.4502 64.4951 60.9376 64.9485 60.0913ZM59.9373 60.5442C59.9373 60.6992 60.2118 60.878 60.4027 60.878C61.1782 60.878 61.906 59.4833 61.8941 58.7085C61.8941 58.4462 61.7628 58.3389 61.5839 58.3389C61.2975 58.3389 60.7725 58.7681 60.4385 59.1734L60.1282 60.0078C60.0209 60.282 59.9373 60.4966 59.9373 60.5442ZM58.6845 57.6237C58.8277 57.6237 58.9948 57.7668 58.9232 58.029L57.7778 60.8303C58.076 60.7827 58.3863 60.4966 58.5652 60.2343H58.7442C58.4698 60.9376 57.8494 61.4502 57.3124 61.4502C57.1693 61.4502 56.9784 61.3072 57.0738 61.0449L58.1476 58.2436C57.8494 58.2913 57.5391 58.5774 57.3602 58.8396H57.1812C57.4556 58.1363 58.1238 57.6237 58.6845 57.6237ZM53.733 56.384H56.2983L56.2267 56.6105C55.3557 56.7654 55.2125 56.837 54.8546 57.8025L54.091 59.9005C53.7211 60.9019 53.8166 61.0211 54.4728 61.0211C55.2835 61.0211 55.8152 60.4322 56.2794 59.9184C56.3138 59.8803 56.348 59.8421 56.3818 59.8052H56.6801L55.833 61.3072H51.9314L52.003 61.0926C52.862 60.9376 53.0052 60.8661 53.3632 59.9005L54.1387 57.7906C54.4847 56.825 54.4131 56.7535 53.6614 56.5986L53.733 56.384Z" fill="black"/>
</g>
<defs>
<clipPath id="clip0_603_4259">
<rect width="99.6269" height="90" fill="white" transform="translate(40)"/>
</clipPath>
</defs>
</svg>
