<svg width="180" height="90" viewBox="0 0 180 90" fill="none" xmlns="http://www.w3.org/2000/svg">
<path d="M79.1391 60.9247V56.9197H78.1424V60.9247H77.1456V56.9197H76.1407V60.9247H75.1357V55.9272H80.14V60.9247H79.1391Z" fill="#E52B34"/>
<path d="M83.1453 60.9247H84.157V55.9272H83.1453V60.9247Z" fill="#E52B34"/>
<path d="M87.1636 60.9247V59.9214H91.1711V58.9156H87.1636V55.9272H92.1568V56.9197H88.1603V57.9244H92.1568V60.9247H87.1636Z" fill="#E52B34"/>
<path d="M95.1731 60.9247V59.9214H99.1819V58.9156H95.1731V55.9272H100.183V56.9197H96.1794V57.9244H100.183V60.9247H95.1731Z" fill="#E52B34"/>
<path d="M103.196 60.9247H104.188V55.9272H103.196V60.9247Z" fill="#E52B34"/>
<path d="M107.193 60.9247V55.9272H108.189V59.9214H112.222V60.9247H107.193Z" fill="#E52B34"/>
<path d="M114.271 60.9247V55.9272H119.281V56.9197H115.275V57.9244H119.281V58.9156H115.275V59.9214H119.281V60.9247H114.271Z" fill="#E52B34"/>
<path d="M127.282 60.9247V59.9214H131.294V58.9156H127.282V55.9272H132.293V56.9197H128.287V57.9244H132.293V60.9247H127.282Z" fill="#E51535"/>
<path d="M135.297 60.9247V59.9214H139.313V58.9156H135.297V55.9272H136.288V57.9244H139.313V55.9272H140.309V60.9247H135.297Z" fill="#E51535"/>
<path d="M143.315 60.9247V59.9214H147.325V58.9156H143.315V55.9272H148.318V56.9197H144.305V57.9244H148.318V60.9247H143.315Z" fill="#E51535"/>
<path d="M153.391 56.9197V60.9247H152.389V56.9197H150.4V55.9272H155.396V56.9197H153.391Z" fill="#E51535"/>
<path d="M157.451 60.9247V55.9272H162.474V56.9197H158.449V57.9244H162.474V58.9156H158.449V59.9214H162.474V60.9247H157.451Z" fill="#E51535"/>
<path d="M169.484 60.9247V56.9197H168.483V60.9247H167.477V56.9197H166.47V60.9247H165.467V55.9272H170.487V60.9247H169.484Z" fill="#E51535"/>
<path d="M173.489 60.9247V59.9214H177.494V58.9156H173.489V55.9272H178.5V56.9197H174.49V57.9244H178.5V60.9247H173.489Z" fill="#E51535"/>
<path d="M126.783 44.9262C126.783 46.8634 125.209 48.4243 123.269 48.4243C121.348 48.4243 119.777 46.8634 119.777 44.9262C119.777 42.9946 121.348 41.4243 123.269 41.4243C125.209 41.4243 126.783 42.9946 126.783 44.9262Z" fill="#E52B34"/>
<path d="M47.4075 47.9255H35.2853L40.0201 37.6397C40.7093 36.2001 40.8405 35.8974 41.5433 34.654C40.2991 35.9948 40.094 36.2295 39.0972 37.3168L29.2132 47.9255H19.6943L19.5111 37.613C19.4851 36.5137 19.4796 35.2917 19.5042 34.7553C19.0681 35.9467 18.9724 36.2362 18.4323 37.3876L13.5511 47.9255H1.5L9.96069 30.0474H28.4024V37.3168C28.3846 38.6629 28.3313 38.8804 28.1126 40.1757C29.2953 38.6016 29.5824 38.2773 30.7159 36.9766L36.967 30.0474H55.4552L47.4075 47.9255Z" fill="#231F20"/>
<path d="M71.9227 33.0398H73.3611C75.0086 33.0398 77.2387 33.0558 77.3344 34.4512C77.3809 35.3678 76.5249 36.2975 75.3737 36.7272C74.1363 37.2087 72.4149 37.2462 71.1065 37.2462H69.9853L71.9227 33.0398ZM69.0241 47.9255C73.789 47.9255 78.394 47.9255 81.6426 47.0116C85.0786 46.0497 87.7393 43.8138 87.6313 41.6379C87.4713 39.0351 83.591 38.5734 81.6003 38.3508C83.3093 38.1026 86.7262 37.6398 88.6061 35.9213C89.4279 35.213 89.7383 34.3845 89.6849 33.588C89.6713 33.0878 89.5222 31.4949 86.0781 30.6117C84.1762 30.1021 81.7917 30.0741 78.2942 30.0474H60.6085L52.4104 47.9255H69.0241ZM68.6768 40.0503H69.9402C72.27 40.0503 74.4016 40.0623 74.4904 41.5791C74.5438 42.6372 73.748 43.7805 72.27 44.3675C70.7934 44.9624 68.9557 44.9624 67.583 44.9624H66.4331L68.6768 40.0503Z" fill="#231F20"/>
<path d="M114.588 36.8419C114.34 37.6983 113.965 38.5935 113.624 39.4381C113.168 40.4386 111.74 43.7431 108.332 44.6103C107.142 44.8998 105.674 44.9318 104.212 44.9624H103.044L108.542 33.0398H109.916C112.391 33.0558 114.776 33.0877 114.882 35.0115C114.911 35.6425 114.75 36.2295 114.588 36.8419ZM121.835 30.6664C119.479 30.1554 116.838 30.1088 112.681 30.0474H96.8152L88.6116 47.9255H107.662C109.296 47.9255 110.901 47.9255 112.525 47.796C115.228 47.6067 117.304 47.1678 118.936 46.6034C118.733 46.0724 118.612 45.5294 118.612 44.9264C118.612 42.3557 120.699 40.2558 123.269 40.2558C124.147 40.2558 124.951 40.5133 125.652 40.9135C126.706 39.0218 127.344 36.8885 127.255 35.3891C127.17 33.6787 126.34 31.6683 121.835 30.6664Z" fill="#231F20"/>
<path d="M147.872 39.4381H143.412L148.318 33.8842L147.872 39.4381ZM141.164 30.0474L127.698 43.4963C127.843 43.9485 127.951 44.4196 127.951 44.9264C127.951 46.0724 127.517 47.1129 126.839 47.9255H135.791L140.221 42.9947H147.615L147.289 47.9255H160.207V30.0474H141.164Z" fill="#231F20"/>
</svg>
