<svg width="180" height="90" viewBox="0 0 180 90" fill="none" xmlns="http://www.w3.org/2000/svg">
<path d="M138.917 25.7051V34.3241L169.877 25.7051H138.917Z" fill="#D01641"/>
<path d="M22.3605 40.4425C18.6097 40.4425 17.6375 39.7313 17.6375 36.4618V34.0897C17.6375 30.8216 18.6111 30.109 22.3605 30.109H25.5058V25.52H20.6826C13.9883 25.52 10.0048 26.838 10.0048 32.426V38.1198C10.0048 43.7092 13.9883 45.0258 20.6826 45.0258H25.5058V40.4411H22.3605V40.4425Z" fill="black"/>
<path d="M26.4668 37.629H34.0148V38.3585C34.0148 40.2 32.0717 40.4413 30.1272 40.4413H26.4654V45.0261H29.4598C37.8291 45.0261 41.4458 44.7664 41.4458 39.2786V33.8486H26.4668V37.629Z" fill="black"/>
<path d="M30.2641 30.1075C32.6376 30.1075 34.0163 30.3446 34.0163 32.2411H41.3131V31.6344C41.3131 27.9203 40.1391 25.52 31.7034 25.52H26.4654V30.1075H30.2641Z" fill="black"/>
<path d="M53.2906 25.7334H45.8541V44.8159H53.2906V25.7334Z" fill="black"/>
<path d="M69.5325 40.1237C66.0174 40.1237 65.2822 39.0724 65.2822 36.3024V34.2492C65.2822 31.8715 66.0188 30.4265 69.9361 30.4265H73.2974V25.5215H68.3288C61.6317 25.5215 57.6481 26.8395 57.6481 32.4246V38.1199C57.6481 43.7093 61.6303 45.0231 68.3288 45.0231H73.2974V40.1237H69.5325Z" fill="black"/>
<path d="M77.8722 30.425C80.082 30.425 81.3548 30.8202 81.3548 32.1875V32.7153H88.7871C88.8548 27.3135 87.4832 25.52 76.9013 25.52H74.2583V30.4236H77.8722V30.425Z" fill="black"/>
<path d="M89.0905 37.4863H81.6568C81.6568 39.8612 80.6521 40.1237 77.3021 40.1237H74.2569V45.0259H80.1483C87.6173 45.0259 89.0891 42.4944 89.0891 39.2784V37.4863H89.0905Z" fill="black"/>
<path d="M119.83 25.7349V30.4776H130.281V44.8159H137.813V25.7349H119.83Z" fill="black"/>
<path d="M114.309 41.4433L114.647 41.9682L116.532 44.8159H124.792L111.664 25.7334H104.06L110.652 35.9259L114.301 41.4433H114.309Z" fill="black"/>
<path d="M102.355 37.3314L106.499 31.1676L102.983 25.7349H102.32L88.9932 44.8159H97.2651L99.5765 41.4434H113.147L110.487 37.3314H102.355Z" fill="black"/>
<path d="M11.5725 56.9542C11.2296 56.9542 10.9601 56.8371 10.7809 56.6452C10.4591 56.3065 10.4069 55.9382 10.4069 54.2759C10.4069 52.6137 10.4591 52.2454 10.7809 51.9067C10.9601 51.7162 11.2296 51.5977 11.5725 51.5977C11.9168 51.5977 12.1694 51.7077 12.35 51.8841C12.5744 52.1198 12.6718 52.4584 12.6788 52.855H12.2385C12.2385 52.4359 12.1115 51.9871 11.5739 51.9871C11.3651 51.9871 11.2084 52.0605 11.104 52.179C10.8867 52.4288 10.85 52.7378 10.85 54.2759C10.85 55.8141 10.8867 56.1217 11.104 56.3729C11.2084 56.49 11.3651 56.5648 11.5739 56.5648C11.962 56.5648 12.2385 56.2783 12.2385 55.7774V54.4904H11.5739V54.1235H12.6788V55.7788C12.6774 56.5648 12.1623 56.9542 11.5725 56.9542Z" fill="black"/>
<path d="M15.7861 53.4813C15.3373 53.4813 15.0467 53.7607 15.0467 54.2094V56.8947H14.629V53.1511H15.0396V53.5476C15.0763 53.4671 15.1666 53.3641 15.2259 53.3119C15.398 53.1567 15.6224 53.0918 15.875 53.0918V53.4813H15.7861Z" fill="black"/>
<path d="M19.0584 56.6606C18.8947 56.8595 18.6619 56.9541 18.3557 56.9541C18.0495 56.9541 17.8181 56.8581 17.6544 56.6606C17.4229 56.3882 17.3707 55.9098 17.3707 55.0279C17.3707 54.1445 17.4229 53.6662 17.6544 53.3952C17.8181 53.1963 18.0509 53.0933 18.3557 53.0933C18.6619 53.0933 18.8933 53.1963 19.0584 53.3952C19.2898 53.6676 19.3421 54.146 19.3421 55.0279C19.3421 55.9098 19.2898 56.3882 19.0584 56.6606ZM18.7296 53.6295C18.6478 53.5335 18.5208 53.4602 18.3557 53.4602C18.192 53.4602 18.0565 53.5335 17.9747 53.6295C17.8025 53.8355 17.7884 54.2264 17.7884 55.0279C17.7884 55.8294 17.8039 56.2118 17.9747 56.4178C18.0565 56.5138 18.1906 56.5872 18.3557 56.5872C18.5194 56.5872 18.6464 56.5138 18.7296 56.4178C18.9018 56.2118 18.923 55.8294 18.923 55.0279C18.9244 54.225 18.9018 53.8355 18.7296 53.6295Z" fill="black"/>
<path d="M22.668 56.895V56.5931C22.6229 56.6735 22.5185 56.7765 22.4521 56.8217C22.3322 56.9021 22.1911 56.9543 22.0189 56.9543C21.7649 56.9543 21.5787 56.8668 21.422 56.7045C21.2725 56.5493 21.1906 56.3362 21.1906 55.9609V53.1514H21.6083V55.9694C21.6083 56.3814 21.8397 56.5804 22.1318 56.5804C22.4225 56.5804 22.6624 56.3814 22.6624 55.9694V53.1514H23.0801V56.895H22.668Z" fill="black"/>
<path d="M26.7391 56.6887C26.5825 56.8651 26.4103 56.954 26.1493 56.954C25.9701 56.954 25.836 56.9173 25.7161 56.8369C25.6483 56.7931 25.5594 56.6972 25.5072 56.6168V58.3891H25.0895V53.1511H25.5002V53.453C25.5369 53.3726 25.6498 53.2696 25.7161 53.2244C25.836 53.144 25.9701 53.0918 26.1493 53.0918C26.3807 53.0918 26.5825 53.1807 26.7391 53.3571C26.9706 53.6224 27.0228 54.0923 27.0228 55.0264C27.0228 55.9606 26.9706 56.4248 26.7391 56.6887ZM26.4103 53.6294C26.3285 53.5335 26.2015 53.4601 26.0449 53.4601C25.9023 53.4601 25.7753 53.5123 25.6864 53.5998C25.5665 53.7099 25.5072 53.8721 25.5072 54.1149V55.9324C25.5072 56.1751 25.5665 56.3374 25.6864 56.4474C25.7753 56.5349 25.9023 56.5871 26.0449 56.5871C26.2015 56.5871 26.3285 56.5208 26.4103 56.4248C26.5825 56.2259 26.6051 55.8731 26.6051 55.0278C26.6051 54.1812 26.5825 53.8199 26.4103 53.6294Z" fill="black"/>
<path d="M29.1902 55.0858C29.1902 55.8506 29.2128 56.226 29.385 56.4179C29.4668 56.5138 29.6009 56.5872 29.766 56.5872C29.9155 56.5872 30.0581 56.5435 30.154 56.4405C30.2655 56.3233 30.3177 56.1385 30.3177 55.9113H30.7283C30.7283 56.2711 30.6465 56.4997 30.4518 56.6987C30.2796 56.8751 30.0411 56.9569 29.7645 56.9569C29.4739 56.9569 29.2495 56.861 29.0773 56.6846C28.8304 56.4193 28.7711 55.9198 28.7711 55.0294C28.7711 54.1319 28.8233 53.6394 29.0773 53.3671C29.241 53.1907 29.4654 53.0947 29.7575 53.0947C30.0496 53.0947 30.2725 53.1907 30.4376 53.3671C30.6916 53.6394 30.7439 54.1319 30.7439 55.0886H29.1902V55.0858ZM30.1314 53.6295C30.0496 53.5336 29.9296 53.4602 29.7575 53.4602C29.5853 53.4602 29.4583 53.5336 29.3765 53.6295C29.2269 53.7989 29.1973 54.1079 29.1902 54.7556H30.3248C30.3177 54.1079 30.281 53.7989 30.1314 53.6295Z" fill="black"/>
<path d="M35.5261 56.8948V54.0782C35.5261 53.6662 35.2947 53.4686 35.0026 53.4686C34.7119 53.4686 34.472 53.6676 34.472 54.0782V56.8962H34.0543V54.0782C34.0543 53.6662 33.8229 53.4686 33.5308 53.4686C33.2401 53.4686 33.0002 53.6676 33.0002 54.0782V56.8962H32.5825V53.1525H32.9932V53.4545C33.0383 53.3741 33.1427 53.2711 33.2091 53.2259C33.329 53.1455 33.4701 53.0933 33.6423 53.0933C33.9259 53.0933 34.2025 53.2626 34.3521 53.4912C34.4198 53.3952 34.5157 53.2852 34.6131 53.2259C34.7401 53.1455 34.8967 53.0933 35.0689 53.0933C35.3822 53.0933 35.5543 53.1892 35.711 53.3515C35.8605 53.5053 35.9424 53.7113 35.9424 54.0867V56.8962H35.5261V56.8948Z" fill="black"/>
<path d="M38.2171 55.0858C38.2171 55.8506 38.2397 56.226 38.4119 56.4179C38.4937 56.5138 38.6278 56.5872 38.7929 56.5872C38.9424 56.5872 39.085 56.5435 39.1809 56.4405C39.2924 56.3233 39.3446 56.1385 39.3446 55.9113H39.7553C39.7553 56.2711 39.6734 56.4997 39.4787 56.6987C39.3065 56.8751 39.068 56.9569 38.7915 56.9569C38.5008 56.9569 38.2764 56.861 38.1042 56.6846C37.8573 56.4193 37.798 55.9198 37.798 55.0294C37.798 54.1319 37.8502 53.6394 38.1042 53.3671C38.2679 53.1907 38.4923 53.0947 38.7844 53.0947C39.0765 53.0947 39.2995 53.1907 39.4646 53.3671C39.7186 53.6394 39.7708 54.1319 39.7708 55.0886H38.2171V55.0858ZM39.1583 53.6295C39.0765 53.5336 38.9566 53.4602 38.7844 53.4602C38.6122 53.4602 38.4852 53.5336 38.4034 53.6295C38.2538 53.7989 38.2242 54.1079 38.2171 54.7556H39.3517C39.3446 54.1079 39.3065 53.7989 39.1583 53.6295Z" fill="black"/>
<path d="M43.0882 56.8948V54.0782C43.0882 53.6662 42.8568 53.4686 42.5647 53.4686C42.274 53.4686 42.0341 53.6676 42.0341 54.0782V56.8962H41.6165V53.1525H42.0271V53.4545C42.0722 53.3741 42.1767 53.2711 42.243 53.2259C42.3629 53.1455 42.504 53.0933 42.6762 53.0933C42.9302 53.0933 43.1165 53.1892 43.2731 53.3515C43.4227 53.5053 43.5045 53.7113 43.5045 54.0867V56.8962H43.0882V56.8948Z" fill="black"/>
<path d="M45.8893 56.6606C45.703 56.4913 45.6057 56.2415 45.6057 55.8958V53.4757H45.1428V53.1526H45.6057V52.0562H46.0234V53.1526H46.6725V53.4757H46.0234V55.8958C46.0234 56.3445 46.2618 56.528 46.7035 56.528V56.8963C46.3973 56.8949 46.1137 56.8666 45.8893 56.6606Z" fill="black"/>
<path d="M52.3226 56.8948V56.5928C52.2859 56.6732 52.1815 56.7763 52.1138 56.8214C51.9868 56.9103 51.8527 56.9541 51.6805 56.9541C51.4491 56.9541 51.2473 56.8666 51.0907 56.6888C50.8593 56.4305 50.8071 55.9606 50.8071 55.0265C50.8071 54.0923 50.8593 53.6281 51.0907 53.3571C51.2248 53.1949 51.4124 53.0918 51.6805 53.0918C51.8527 53.0918 52.0093 53.1356 52.1138 53.209C52.1815 53.2598 52.2633 53.3487 52.3155 53.4291V51.6567H52.7332V56.8948H52.3226ZM52.3155 54.1149C52.3155 53.8722 52.2563 53.7099 52.1434 53.5998C52.046 53.5123 51.9275 53.4601 51.7779 53.4601C51.6283 53.4601 51.5013 53.5335 51.4195 53.6295C51.2473 53.8214 51.2248 54.1812 51.2248 55.0279C51.2248 55.8731 51.2473 56.2273 51.4195 56.4249C51.5013 56.5208 51.6283 56.5872 51.7779 56.5872C51.9275 56.5872 52.0474 56.535 52.1434 56.4475C52.2549 56.3374 52.3155 56.1751 52.3155 55.9324V54.1149Z" fill="black"/>
<path d="M55.0348 55.0858C55.0348 55.8506 55.0573 56.226 55.2295 56.4179C55.3113 56.5138 55.4454 56.5872 55.6105 56.5872C55.7601 56.5872 55.9026 56.5435 55.9985 56.4405C56.11 56.3233 56.1622 56.1385 56.1622 55.9113H56.5729C56.5729 56.2711 56.491 56.4997 56.2963 56.6987C56.1241 56.8751 55.8857 56.9569 55.6091 56.9569C55.3184 56.9569 55.094 56.861 54.9219 56.6846C54.6749 56.4193 54.6157 55.9198 54.6157 55.0294C54.6157 54.1319 54.6679 53.6394 54.9219 53.3671C55.0856 53.1907 55.3099 53.0947 55.602 53.0947C55.8941 53.0947 56.1171 53.1907 56.2822 53.3671C56.5362 53.6394 56.5884 54.1319 56.5884 55.0886H55.0348V55.0858ZM55.976 53.6295C55.8941 53.5336 55.7742 53.4602 55.602 53.4602C55.4299 53.4602 55.3029 53.5336 55.221 53.6295C55.0714 53.7989 55.0418 54.1079 55.0348 54.7556H56.1693C56.1622 54.1079 56.1255 53.7989 55.976 53.6295Z" fill="black"/>
<path d="M59.9355 56.668C59.7493 56.8514 59.5023 56.9544 59.2116 56.9544C58.9209 56.9544 58.6895 56.8585 58.5174 56.6892C58.3 56.469 58.2182 56.1967 58.2182 55.8792H58.6359C58.6359 56.1148 58.6881 56.2912 58.8306 56.4309C58.935 56.5339 59.0691 56.5861 59.2116 56.5861C59.3908 56.5861 59.5334 56.5269 59.6448 56.4168C59.7563 56.3067 59.817 56.1445 59.817 55.9526C59.817 55.7973 59.7874 55.6661 59.7126 55.5476C59.6307 55.422 59.5108 55.319 59.3316 55.2244L58.8532 54.9676C58.6147 54.835 58.4426 54.6656 58.3607 54.5259C58.2859 54.3862 58.2563 54.2395 58.2563 54.0546C58.2563 53.7682 58.3762 53.5254 58.5555 53.3491C58.7276 53.1797 58.9661 53.0908 59.2356 53.0908C59.5192 53.0908 59.7436 53.1713 59.9158 53.3406C60.102 53.524 60.1923 53.7893 60.1923 54.1506H59.7747C59.7747 53.8712 59.7295 53.7315 59.611 53.6059C59.5065 53.4958 59.3725 53.4591 59.237 53.4591C59.0733 53.4591 58.9379 53.5029 58.8405 53.5988C58.7206 53.7089 58.6768 53.8853 58.6768 54.0405C58.6768 54.1661 58.6994 54.2762 58.7516 54.3636C58.8038 54.4596 58.9308 54.5471 59.103 54.643L59.5729 54.9083C59.8198 55.041 59.9835 55.1807 60.0879 55.35C60.1923 55.5193 60.2375 55.7254 60.2375 55.9384C60.2347 56.2334 60.1161 56.4916 59.9355 56.668Z" fill="black"/>
<path d="M64.5019 52.2904V51.7612H65.0395V52.2904H64.5019ZM64.5626 56.8949V53.1512H64.9803V56.8949H64.5626Z" fill="black"/>
<path d="M68.4615 56.8948V54.0782C68.4615 53.6662 68.2301 53.4686 67.938 53.4686C67.6473 53.4686 67.4074 53.6676 67.4074 54.0782V56.8962H66.9897V53.1525H67.4003V53.4545C67.4455 53.3741 67.5499 53.2711 67.6162 53.2259C67.7362 53.1455 67.8773 53.0933 68.0494 53.0933C68.3034 53.0933 68.4897 53.1892 68.6463 53.3515C68.7959 53.5053 68.8777 53.7113 68.8777 54.0867V56.8962H68.4615V56.8948Z" fill="black"/>
<path d="M72.2489 56.8948V56.5928C72.2122 56.6732 72.1063 56.7763 72.04 56.8214C71.913 56.9103 71.779 56.9541 71.6068 56.9541C71.3754 56.9541 71.1736 56.8666 71.017 56.6888C70.7855 56.4305 70.7333 55.9606 70.7333 55.0265C70.7333 54.0923 70.7855 53.6281 71.017 53.3571C71.151 53.1949 71.3387 53.0918 71.6068 53.0918C71.779 53.0918 71.9356 53.1356 72.04 53.209C72.1078 53.2598 72.1896 53.3487 72.2418 53.4291V51.6567H72.6595V56.8948H72.2489ZM72.2418 54.1149C72.2418 53.8722 72.1825 53.7099 72.0697 53.5998C71.9723 53.5123 71.8538 53.4601 71.7042 53.4601C71.5546 53.4601 71.4276 53.5335 71.3458 53.6295C71.1736 53.8214 71.151 54.1812 71.151 55.0279C71.151 55.8731 71.1736 56.2273 71.3458 56.4249C71.4276 56.5208 71.5546 56.5872 71.7042 56.5872C71.8538 56.5872 71.9737 56.535 72.0697 56.4475C72.1811 56.3374 72.2418 56.1751 72.2418 55.9324V54.1149Z" fill="black"/>
<path d="M76.1196 56.895V56.5931C76.0744 56.6735 75.97 56.7765 75.9037 56.8217C75.7837 56.9021 75.6426 56.9543 75.4705 56.9543C75.2165 56.9543 75.0302 56.8668 74.8736 56.7045C74.724 56.5493 74.6422 56.3362 74.6422 55.9609V53.1514H75.0598V55.9694C75.0598 56.3814 75.2913 56.5804 75.5819 56.5804C75.8726 56.5804 76.1125 56.3814 76.1125 55.9694V53.1514H76.5316V56.895H76.1196Z" fill="black"/>
<path d="M80.0424 56.668C79.8562 56.8514 79.6092 56.9544 79.3185 56.9544C79.0264 56.9544 78.795 56.8585 78.6243 56.6892C78.4084 56.469 78.3265 56.1967 78.3265 55.8792H78.7442C78.7442 56.1148 78.7964 56.2912 78.9376 56.4309C79.042 56.5339 79.176 56.5861 79.3185 56.5861C79.4978 56.5861 79.6389 56.5269 79.7518 56.4168C79.8632 56.3067 79.9239 56.1445 79.9239 55.9526C79.9239 55.7973 79.8943 55.6661 79.8195 55.5476C79.7377 55.422 79.6177 55.319 79.4385 55.2244L78.9601 54.9676C78.7216 54.835 78.5495 54.6656 78.4676 54.5259C78.3929 54.3862 78.3632 54.2395 78.3632 54.0546C78.3632 53.7682 78.4832 53.5254 78.661 53.3491C78.8331 53.1797 79.0716 53.0908 79.3411 53.0908C79.6248 53.0908 79.8491 53.1713 80.0213 53.3406C80.2076 53.524 80.2979 53.7893 80.2979 54.1506H79.8802C79.8802 53.8712 79.835 53.7315 79.7165 53.6059C79.6121 53.4958 79.478 53.4591 79.3425 53.4591C79.1789 53.4591 79.0448 53.5029 78.9474 53.5988C78.8275 53.7089 78.7837 53.8853 78.7837 54.0405C78.7837 54.1661 78.8063 54.2762 78.8585 54.3636C78.9107 54.4596 79.0377 54.5471 79.2099 54.643L79.6798 54.9083C79.9267 55.041 80.0904 55.1807 80.1948 55.35C80.2993 55.5193 80.3444 55.7254 80.3444 55.9384C80.3416 56.2334 80.2217 56.4916 80.0424 56.668Z" fill="black"/>
<path d="M82.5387 56.6606C82.3524 56.4913 82.2551 56.2415 82.2551 55.8958V53.4757H81.7922V53.1526H82.2551V52.0562H82.6742V53.1526H83.3233V53.4757H82.6742V55.8958C82.6742 56.3445 82.9127 56.528 83.3543 56.528V56.8963C83.0467 56.8949 82.7631 56.8666 82.5387 56.6606Z" fill="black"/>
<path d="M86.1992 53.4813C85.7504 53.4813 85.4597 53.7607 85.4597 54.2094V56.8947H85.0421V53.1511H85.4527V53.5476C85.4894 53.4671 85.5797 53.3641 85.639 53.3119C85.8111 53.1567 86.0355 53.0918 86.2895 53.0918V53.4813H86.1992Z" fill="black"/>
<path d="M87.8953 52.2904V51.7612H88.433V52.2904H87.8953ZM87.956 56.8949V53.1512H88.3737V56.8949H87.956Z" fill="black"/>
<path d="M90.6822 55.0858C90.6822 55.8506 90.7048 56.226 90.8755 56.4179C90.9574 56.5138 91.0929 56.5872 91.2566 56.5872C91.4061 56.5872 91.5472 56.5435 91.6446 56.4405C91.7561 56.3233 91.8083 56.1385 91.8083 55.9113H92.2189C92.2189 56.2711 92.1371 56.4997 91.9423 56.6987C91.7702 56.8751 91.5317 56.9569 91.2551 56.9569C90.9644 56.9569 90.7401 56.861 90.5679 56.6846C90.321 56.4193 90.2617 55.9198 90.2617 55.0294C90.2617 54.1319 90.3139 53.6394 90.5679 53.3671C90.7316 53.1907 90.956 53.0947 91.2481 53.0947C91.5388 53.0947 91.7631 53.1907 91.9282 53.3671C92.1822 53.6394 92.2345 54.1319 92.2345 55.0886H90.6822V55.0858ZM91.6234 53.6295C91.5416 53.5336 91.4217 53.4602 91.2495 53.4602C91.0773 53.4602 90.9503 53.5336 90.8685 53.6295C90.7189 53.7989 90.6893 54.1079 90.6822 54.7556H91.8168C91.8111 54.1079 91.773 53.7989 91.6234 53.6295Z" fill="black"/>
<path d="M95.583 56.668C95.3968 56.8514 95.1498 56.9544 94.8591 56.9544C94.567 56.9544 94.3356 56.8585 94.1649 56.6892C93.949 56.469 93.8671 56.1967 93.8671 55.8792H94.2848C94.2848 56.1148 94.337 56.2912 94.4781 56.4309C94.5826 56.5339 94.7166 56.5861 94.8591 56.5861C95.0383 56.5861 95.1795 56.5269 95.2923 56.4168C95.4038 56.3067 95.4645 56.1445 95.4645 55.9526C95.4645 55.7973 95.4349 55.6661 95.3601 55.5476C95.2782 55.422 95.1583 55.319 94.9791 55.2244L94.5007 54.9676C94.2622 54.835 94.0901 54.6656 94.0082 54.5259C93.9334 54.3862 93.9038 54.2395 93.9038 54.0546C93.9038 53.7682 94.0238 53.5254 94.2016 53.3491C94.3737 53.1797 94.6122 53.0908 94.8817 53.0908C95.1653 53.0908 95.3897 53.1713 95.5619 53.3406C95.7481 53.524 95.8384 53.7893 95.8384 54.1506H95.4208C95.4208 53.8712 95.3756 53.7315 95.2571 53.6059C95.1526 53.4958 95.0186 53.4591 94.8831 53.4591C94.7194 53.4591 94.5854 53.5029 94.488 53.5988C94.3681 53.7089 94.3243 53.8853 94.3243 54.0405C94.3243 54.1661 94.3469 54.2762 94.3991 54.3636C94.4513 54.4596 94.5783 54.5471 94.7505 54.643L95.2204 54.9083C95.4673 55.041 95.631 55.1807 95.7354 55.35C95.8399 55.5193 95.885 55.7254 95.885 55.9384C95.8822 56.2334 95.7622 56.4916 95.583 56.668Z" fill="black"/>
<path d="M100.748 53.4742V56.8947H100.329V53.4742H99.8658V53.1511H100.329V52.6431C100.329 52.2973 100.426 52.0546 100.612 51.8853C100.828 51.6948 101.105 51.6426 101.397 51.6426V52.0179C100.971 52.0179 100.748 52.224 100.748 52.6431V53.1511H101.397V53.4742H100.748Z" fill="black"/>
<path d="M104.22 53.4813C103.772 53.4813 103.481 53.7607 103.481 54.2094V56.8947H103.063V53.1511H103.474V53.5476C103.511 53.4671 103.601 53.3641 103.66 53.3119C103.832 53.1567 104.057 53.0918 104.311 53.0918V53.4813H104.22Z" fill="black"/>
<path d="M107.27 56.8948V56.5562C107.218 56.6592 107.127 56.7552 107.061 56.8074C106.941 56.8949 106.814 56.9541 106.605 56.9541C106.367 56.9541 106.165 56.8737 106 56.7043C105.857 56.5562 105.753 56.2627 105.753 55.8577C105.753 55.5049 105.857 55.2029 106.073 55.0124C106.26 54.8431 106.477 54.7627 106.82 54.7627H107.253V54.0938C107.253 53.6817 107.081 53.4546 106.731 53.4546C106.581 53.4546 106.47 53.5138 106.387 53.5943C106.267 53.7199 106.214 53.8666 106.214 54.1164H105.797C105.797 53.837 105.856 53.5576 106.072 53.3445C106.228 53.1907 106.453 53.0947 106.729 53.0947C107.027 53.0947 107.26 53.1752 107.41 53.3304C107.582 53.5068 107.671 53.7424 107.671 54.1107V56.8991H107.27V56.8948ZM107.254 55.0858H106.837C106.643 55.0858 106.501 55.1295 106.374 55.2467C106.247 55.3723 106.172 55.5994 106.172 55.8506C106.172 56.2994 106.336 56.5858 106.703 56.5858C107.038 56.5858 107.256 56.2994 107.256 55.9085V55.0858H107.254Z" fill="black"/>
<path d="M111.125 56.8948V54.0782C111.125 53.6662 110.894 53.4686 110.602 53.4686C110.311 53.4686 110.071 53.6676 110.071 54.0782V56.8962H109.653V53.1525H110.064V53.4545C110.109 53.3741 110.213 53.2711 110.281 53.2259C110.401 53.1455 110.542 53.0933 110.714 53.0933C110.968 53.0933 111.155 53.1892 111.313 53.3515C111.462 53.5053 111.544 53.7113 111.544 54.0867V56.8962H111.125V56.8948Z" fill="black"/>
<path d="M115.055 56.7114C114.89 56.8736 114.674 56.9541 114.382 56.9541C114.091 56.9541 113.844 56.8511 113.679 56.6606C113.448 56.3953 113.396 55.9098 113.396 55.0279C113.396 54.1445 113.448 53.6591 113.679 53.3952C113.843 53.1963 114.09 53.0933 114.382 53.0933C114.673 53.0933 114.883 53.1596 115.055 53.3289C115.279 53.542 115.316 53.8369 115.323 54.146H114.912C114.912 53.954 114.905 53.7635 114.763 53.6168C114.674 53.5138 114.547 53.4616 114.39 53.4616C114.227 53.4616 114.084 53.5279 114.002 53.6309C113.839 53.8369 113.816 54.2278 113.816 55.0293C113.816 55.8308 113.839 56.2132 114.002 56.4193C114.084 56.5223 114.227 56.5886 114.39 56.5886C114.531 56.5886 114.658 56.5364 114.756 56.4418C114.883 56.3092 114.912 56.1328 114.912 55.9127H115.323C115.316 56.2626 115.248 56.5209 115.055 56.7114ZM114.277 58.1535H113.881L114.277 57.1686H114.62L114.277 58.1535Z" fill="black"/>
<path d="M118.477 56.8948V56.5562C118.425 56.6592 118.334 56.7552 118.268 56.8074C118.148 56.8949 118.021 56.9541 117.812 56.9541C117.574 56.9541 117.372 56.8737 117.207 56.7043C117.064 56.5562 116.96 56.2627 116.96 55.8577C116.96 55.5049 117.064 55.2029 117.28 55.0124C117.467 54.8431 117.684 54.7627 118.027 54.7627H118.46V54.0938C118.46 53.6817 118.288 53.4546 117.938 53.4546C117.788 53.4546 117.677 53.5138 117.594 53.5943C117.474 53.7199 117.421 53.8666 117.421 54.1164H117.004C117.004 53.837 117.063 53.5576 117.279 53.3445C117.436 53.1907 117.66 53.0947 117.936 53.0947C118.234 53.0947 118.467 53.1752 118.617 53.3304C118.789 53.5068 118.878 53.7424 118.878 54.1107V56.8991H118.477V56.8948ZM118.461 55.0858H118.044C117.85 55.0858 117.708 55.1295 117.581 55.2467C117.454 55.3723 117.379 55.5994 117.379 55.8506C117.379 56.2994 117.543 56.5858 117.91 56.5858C118.245 56.5858 118.463 56.2994 118.463 55.9085V55.0858H118.461Z" fill="black"/>
<path d="M120.801 52.2904V51.7612H121.339V52.2904H120.801ZM120.86 56.8949V53.1512H121.278V56.8949H120.86Z" fill="black"/>
<path d="M124.797 56.668C124.611 56.8514 124.364 56.9544 124.073 56.9544C123.781 56.9544 123.55 56.8585 123.379 56.6892C123.163 56.469 123.081 56.1967 123.081 55.8792H123.499C123.499 56.1148 123.551 56.2912 123.692 56.4309C123.797 56.5339 123.931 56.5861 124.073 56.5861C124.253 56.5861 124.394 56.5269 124.507 56.4168C124.618 56.3067 124.679 56.1445 124.679 55.9526C124.679 55.7973 124.649 55.6661 124.574 55.5476C124.492 55.422 124.373 55.319 124.193 55.2244L123.715 54.9676C123.476 54.835 123.304 54.6656 123.222 54.5259C123.148 54.3862 123.118 54.2395 123.118 54.0546C123.118 53.7682 123.238 53.5254 123.416 53.3491C123.588 53.1797 123.826 53.0908 124.096 53.0908C124.38 53.0908 124.604 53.1713 124.776 53.3406C124.962 53.524 125.053 53.7893 125.053 54.1506H124.635C124.635 53.8712 124.59 53.7315 124.471 53.6059C124.367 53.4958 124.233 53.4591 124.097 53.4591C123.934 53.4591 123.8 53.5029 123.702 53.5988C123.582 53.7089 123.539 53.8853 123.539 54.0405C123.539 54.1661 123.561 54.2762 123.613 54.3636C123.666 54.4596 123.793 54.5471 123.965 54.643L124.435 54.9083C124.682 55.041 124.845 55.1807 124.95 55.35C125.054 55.5193 125.099 55.7254 125.099 55.9384C125.096 56.2334 124.976 56.4916 124.797 56.668Z" fill="black"/>
<path d="M127.182 55.0858C127.182 55.8506 127.205 56.226 127.375 56.4179C127.457 56.5138 127.593 56.5872 127.756 56.5872C127.906 56.5872 128.047 56.5435 128.144 56.4405C128.256 56.3233 128.308 56.1385 128.308 55.9113H128.719C128.719 56.2711 128.637 56.4997 128.442 56.6987C128.27 56.8751 128.032 56.9569 127.755 56.9569C127.464 56.9569 127.24 56.861 127.068 56.6846C126.821 56.4193 126.762 55.9198 126.762 55.0294C126.762 54.1319 126.814 53.6394 127.068 53.3671C127.231 53.1907 127.456 53.0947 127.748 53.0947C128.039 53.0947 128.263 53.1907 128.428 53.3671C128.682 53.6394 128.734 54.1319 128.734 55.0886H127.182V55.0858ZM128.123 53.6295C128.041 53.5336 127.921 53.4602 127.749 53.4602C127.577 53.4602 127.45 53.5336 127.368 53.6295C127.219 53.7989 127.189 54.1079 127.182 54.7556H128.317C128.31 54.1079 128.273 53.7989 128.123 53.6295Z" fill="black"/>
<path d="M132.083 56.668C131.897 56.8514 131.65 56.9544 131.359 56.9544C131.067 56.9544 130.835 56.8585 130.665 56.6892C130.449 56.469 130.367 56.1967 130.367 55.8792H130.785C130.785 56.1148 130.837 56.2912 130.978 56.4309C131.082 56.5339 131.216 56.5861 131.359 56.5861C131.538 56.5861 131.679 56.5269 131.792 56.4168C131.904 56.3067 131.964 56.1445 131.964 55.9526C131.964 55.7973 131.935 55.6661 131.86 55.5476C131.778 55.422 131.658 55.319 131.479 55.2244L131.001 54.9676C130.762 54.835 130.59 54.6656 130.508 54.5259C130.433 54.3862 130.404 54.2395 130.404 54.0546C130.404 53.7682 130.524 53.5254 130.701 53.3491C130.874 53.1797 131.112 53.0908 131.382 53.0908C131.665 53.0908 131.89 53.1713 132.062 53.3406C132.248 53.524 132.338 53.7893 132.338 54.1506H131.921C131.921 53.8712 131.875 53.7315 131.757 53.6059C131.652 53.4958 131.518 53.4591 131.383 53.4591C131.219 53.4591 131.085 53.5029 130.988 53.5988C130.868 53.7089 130.824 53.8853 130.824 54.0405C130.824 54.1661 130.847 54.2762 130.899 54.3636C130.951 54.4596 131.078 54.5471 131.25 54.643L131.72 54.9083C131.967 55.041 132.131 55.1807 132.235 55.35C132.34 55.5193 132.385 55.7254 132.385 55.9384C132.381 56.2334 132.262 56.4916 132.083 56.668Z" fill="black"/>
<path d="M138.097 56.8948V56.5928C138.06 56.6732 137.956 56.7763 137.888 56.8214C137.761 56.9103 137.627 56.9541 137.455 56.9541C137.224 56.9541 137.022 56.8666 136.865 56.6888C136.634 56.4305 136.581 55.9606 136.581 55.0265C136.581 54.0923 136.634 53.6281 136.865 53.3571C136.999 53.1949 137.187 53.0918 137.455 53.0918C137.627 53.0918 137.784 53.1356 137.888 53.209C137.956 53.2598 138.038 53.3487 138.09 53.4291V51.6567H138.508V56.8948H138.097ZM138.09 54.1149C138.09 53.8722 138.031 53.7099 137.918 53.5998C137.82 53.5123 137.702 53.4601 137.552 53.4601C137.403 53.4601 137.276 53.5335 137.194 53.6295C137.022 53.8214 137.001 54.1812 137.001 55.0279C137.001 55.8731 137.023 56.2273 137.194 56.4249C137.276 56.5208 137.403 56.5872 137.552 56.5872C137.702 56.5872 137.82 56.535 137.918 56.4475C138.029 56.3374 138.09 56.1751 138.09 55.9324V54.1149Z" fill="black"/>
<path d="M140.811 55.0858C140.811 55.8506 140.833 56.226 141.004 56.4179C141.086 56.5138 141.221 56.5872 141.385 56.5872C141.534 56.5872 141.676 56.5435 141.773 56.4405C141.884 56.3233 141.937 56.1385 141.937 55.9113H142.347C142.347 56.2711 142.265 56.4997 142.071 56.6987C141.899 56.8751 141.66 56.9569 141.383 56.9569C141.093 56.9569 140.868 56.861 140.696 56.6846C140.449 56.4193 140.39 55.9198 140.39 55.0294C140.39 54.1319 140.442 53.6394 140.696 53.3671C140.86 53.1907 141.084 53.0947 141.376 53.0947C141.667 53.0947 141.891 53.1907 142.057 53.3671C142.311 53.6394 142.363 54.1319 142.363 55.0886H140.811V55.0858ZM141.752 53.6295C141.67 53.5336 141.55 53.4602 141.378 53.4602C141.206 53.4602 141.079 53.5336 140.997 53.6295C140.847 53.7989 140.818 54.1079 140.811 54.7556H141.945C141.938 54.1079 141.9 53.7989 141.752 53.6295Z" fill="black"/>
<path d="M148.131 56.8948V56.5928C148.095 56.6732 147.99 56.7763 147.923 56.8214C147.796 56.9103 147.662 56.9541 147.489 56.9541C147.258 56.9541 147.056 56.8666 146.9 56.6888C146.668 56.4305 146.616 55.9606 146.616 55.0265C146.616 54.0923 146.668 53.6281 146.9 53.3571C147.034 53.1949 147.221 53.0918 147.489 53.0918C147.662 53.0918 147.818 53.1356 147.923 53.209C147.99 53.2598 148.072 53.3487 148.124 53.4291V51.6567H148.542V56.8948H148.131ZM148.124 54.1149C148.124 53.8722 148.065 53.7099 147.952 53.5998C147.855 53.5123 147.736 53.4601 147.587 53.4601C147.437 53.4601 147.31 53.5335 147.228 53.6295C147.056 53.8214 147.035 54.1812 147.035 55.0279C147.035 55.8731 147.058 56.2273 147.228 56.4249C147.31 56.5208 147.437 56.5872 147.587 56.5872C147.736 56.5872 147.855 56.535 147.952 56.4475C148.064 56.3374 148.124 56.1751 148.124 55.9324V54.1149Z" fill="black"/>
<path d="M150.845 55.0861C150.845 55.851 150.868 56.2263 151.038 56.4182C151.12 56.5142 151.256 56.5876 151.419 56.5876C151.569 56.5876 151.71 56.5438 151.807 56.4408C151.919 56.3237 151.971 56.1388 151.971 55.9116H152.382C152.382 56.2715 152.3 56.5001 152.105 56.699C151.933 56.8754 151.695 56.9573 151.418 56.9573C151.127 56.9573 150.903 56.8613 150.731 56.6849C150.484 56.4196 150.424 55.9201 150.424 55.0297C150.424 54.1322 150.477 53.6397 150.731 53.3674C150.894 53.191 151.119 53.095 151.411 53.095C151.703 53.095 151.926 53.191 152.091 53.3674C152.345 53.6397 152.397 54.1322 152.397 55.089H150.845V55.0861ZM151.786 53.6299C151.704 53.5339 151.584 53.4605 151.412 53.4605C151.24 53.4605 151.113 53.5339 151.031 53.6299C150.882 53.7992 150.852 54.1082 150.845 54.7559H151.98C151.972 54.1082 151.936 53.7992 151.786 53.6299ZM151.576 52.5842H151.21L151.696 51.6289H152.129L151.576 52.5842Z" fill="black"/>
<path d="M154.782 53.4742V56.8947H154.363V53.4742H153.9V53.1511H154.363V52.6431C154.363 52.2973 154.46 52.0546 154.647 51.8853C154.862 51.6948 155.139 51.6426 155.431 51.6426V52.0179C155.005 52.0179 154.782 52.224 154.782 52.6431V53.1511H155.431V53.4742H154.782Z" fill="black"/>
<path d="M157.315 55.0858C157.315 55.8506 157.337 56.226 157.508 56.4179C157.59 56.5138 157.726 56.5872 157.889 56.5872C158.039 56.5872 158.18 56.5435 158.277 56.4405C158.389 56.3233 158.441 56.1385 158.441 55.9113H158.852C158.852 56.2711 158.77 56.4997 158.575 56.6987C158.403 56.8751 158.164 56.9569 157.888 56.9569C157.597 56.9569 157.373 56.861 157.201 56.6846C156.954 56.4193 156.894 55.9198 156.894 55.0294C156.894 54.1319 156.947 53.6394 157.201 53.3671C157.364 53.1907 157.589 53.0947 157.881 53.0947C158.171 53.0947 158.396 53.1907 158.561 53.3671C158.815 53.6394 158.867 54.1319 158.867 55.0886H157.315V55.0858ZM158.256 53.6295C158.174 53.5336 158.054 53.4602 157.882 53.4602C157.71 53.4602 157.583 53.5336 157.501 53.6295C157.352 53.7989 157.322 54.1079 157.315 54.7556H158.449C158.442 54.1079 158.406 53.7989 158.256 53.6295Z" fill="black"/>
<path d="M162.186 56.8948V54.0782C162.186 53.6662 161.955 53.4686 161.663 53.4686C161.371 53.4686 161.132 53.6676 161.132 54.0782V56.8962H160.714V53.1525H161.125V53.4545C161.17 53.3741 161.275 53.2711 161.342 53.2259C161.462 53.1455 161.603 53.0933 161.775 53.0933C162.029 53.0933 162.216 53.1892 162.374 53.3515C162.523 53.5053 162.605 53.7113 162.605 54.0867V56.8962H162.186V56.8948Z" fill="black"/>
<path d="M166.086 56.668C165.9 56.8514 165.653 56.9544 165.362 56.9544C165.07 56.9544 164.839 56.8585 164.668 56.6892C164.452 56.469 164.37 56.1967 164.37 55.8792H164.788C164.788 56.1148 164.84 56.2912 164.982 56.4309C165.086 56.5339 165.22 56.5861 165.362 56.5861C165.542 56.5861 165.683 56.5269 165.796 56.4168C165.907 56.3067 165.968 56.1445 165.968 55.9526C165.968 55.7973 165.938 55.6661 165.863 55.5476C165.782 55.422 165.662 55.319 165.482 55.2244L165.004 54.9676C164.766 54.835 164.593 54.6656 164.512 54.5259C164.437 54.3862 164.407 54.2395 164.407 54.0546C164.407 53.7682 164.527 53.5254 164.705 53.3491C164.877 53.1797 165.116 53.0908 165.385 53.0908C165.669 53.0908 165.893 53.1713 166.065 53.3406C166.251 53.524 166.342 53.7893 166.342 54.1506H165.924C165.924 53.8712 165.879 53.7315 165.76 53.6059C165.656 53.4958 165.522 53.4591 165.386 53.4591C165.223 53.4591 165.089 53.5029 164.991 53.5988C164.871 53.7089 164.828 53.8853 164.828 54.0405C164.828 54.1661 164.85 54.2762 164.902 54.3636C164.955 54.4596 165.082 54.5471 165.254 54.643L165.724 54.9083C165.971 55.041 166.134 55.1807 166.239 55.35C166.343 55.5193 166.388 55.7254 166.388 55.9384C166.386 56.2334 166.266 56.4916 166.086 56.668Z" fill="black"/>
<path d="M168.47 55.0858C168.47 55.8506 168.492 56.226 168.663 56.4179C168.745 56.5138 168.88 56.5872 169.044 56.5872C169.194 56.5872 169.335 56.5435 169.432 56.4405C169.544 56.3233 169.596 56.1385 169.596 55.9113H170.007C170.007 56.2711 169.925 56.4997 169.73 56.6987C169.558 56.8751 169.319 56.9569 169.043 56.9569C168.752 56.9569 168.528 56.861 168.356 56.6846C168.109 56.4193 168.049 55.9198 168.049 55.0294C168.049 54.1319 168.102 53.6394 168.356 53.3671C168.519 53.1907 168.744 53.0947 169.036 53.0947C169.328 53.0947 169.551 53.1907 169.716 53.3671C169.97 53.6394 170.022 54.1319 170.022 55.0886H168.47V55.0858ZM169.411 53.6295C169.329 53.5336 169.209 53.4602 169.037 53.4602C168.865 53.4602 168.738 53.5336 168.656 53.6295C168.507 53.7989 168.477 54.1079 168.47 54.7556H169.604C169.599 54.1079 169.561 53.7989 169.411 53.6295Z" fill="black"/>
<path d="M10.7583 62.4422C10.7583 63.2071 10.7809 63.5824 10.9531 63.7743C11.0349 63.8703 11.169 63.9437 11.3341 63.9437C11.4836 63.9437 11.6262 63.8999 11.7221 63.7969C11.8336 63.6798 11.8858 63.4949 11.8858 63.2677H12.2964C12.2964 63.6276 12.2146 63.8562 12.0199 64.0552C11.8477 64.2315 11.6092 64.3134 11.3327 64.3134C11.042 64.3134 10.8176 64.2174 10.6454 64.041C10.3985 63.7758 10.3392 63.2762 10.3392 62.3858C10.3392 61.4883 10.3914 60.9959 10.6454 60.7235C10.8091 60.5471 11.0335 60.4512 11.3256 60.4512C11.6177 60.4512 11.8407 60.5471 12.0058 60.7235C12.2598 60.9959 12.312 61.4883 12.312 62.4451H10.7583V62.4422ZM11.6995 60.986C11.6177 60.89 11.4978 60.8166 11.3256 60.8166C11.1534 60.8166 11.0264 60.89 10.9446 60.986C10.795 61.1553 10.7654 61.4643 10.7583 62.112H11.8929C11.8858 61.4643 11.8491 61.1553 11.6995 60.986Z" fill="black"/>
<path d="M14.5542 64.0171C14.368 63.8477 14.2706 63.598 14.2706 63.2522V60.8322H13.8077V60.509H14.2706V59.4126H14.6883V60.509H15.3374V60.8322H14.6883V63.2522C14.6883 63.701 14.9268 63.8844 15.3684 63.8844V64.2527C15.0608 64.2527 14.7772 64.2231 14.5542 64.0171Z" fill="black"/>
<path d="M20.9861 64.2527V63.9507C20.9494 64.0311 20.8449 64.1342 20.7772 64.1793C20.6502 64.2682 20.5162 64.312 20.344 64.312C20.1126 64.312 19.9108 64.2245 19.7542 64.0467C19.5227 63.7884 19.4705 63.3185 19.4705 62.3844C19.4705 61.4502 19.5227 60.986 19.7542 60.715C19.8882 60.5528 20.0759 60.4497 20.344 60.4497C20.5162 60.4497 20.6728 60.4935 20.7772 60.5669C20.8449 60.6177 20.9268 60.7066 20.979 60.787V59.0146H21.3967V64.2527H20.9861ZM20.979 61.4714C20.979 61.2287 20.9197 61.0664 20.8068 60.9563C20.7095 60.8688 20.5909 60.8166 20.4414 60.8166C20.2918 60.8166 20.1648 60.89 20.0829 60.986C19.9108 61.1779 19.8882 61.5377 19.8882 62.3844C19.8882 63.2296 19.9108 63.5838 20.0829 63.7814C20.1648 63.8773 20.2918 63.9437 20.4414 63.9437C20.5909 63.9437 20.7109 63.8915 20.8068 63.804C20.9183 63.6939 20.979 63.5316 20.979 63.2889V61.4714Z" fill="black"/>
<path d="M23.6996 62.4422C23.6996 63.2071 23.7222 63.5824 23.8944 63.7743C23.9762 63.8703 24.1103 63.9437 24.2754 63.9437C24.4249 63.9437 24.5675 63.8999 24.6634 63.7969C24.7749 63.6798 24.8271 63.4949 24.8271 63.2677H25.2377C25.2377 63.6276 25.1559 63.8562 24.9612 64.0552C24.789 64.2315 24.5505 64.3134 24.2739 64.3134C23.9833 64.3134 23.7589 64.2174 23.5867 64.041C23.3398 63.7758 23.2805 63.2762 23.2805 62.3858C23.2805 61.4883 23.3327 60.9959 23.5867 60.7235C23.7504 60.5471 23.9748 60.4512 24.2669 60.4512C24.559 60.4512 24.7819 60.5471 24.947 60.7235C25.201 60.9959 25.2533 61.4883 25.2533 62.4451H23.6996V62.4422ZM24.6394 60.986C24.5576 60.89 24.4376 60.8166 24.2655 60.8166C24.0933 60.8166 23.9663 60.89 23.8845 60.986C23.7349 61.1553 23.7053 61.4643 23.6982 62.112H24.8327C24.8271 61.4643 24.789 61.1553 24.6394 60.986Z" fill="black"/>
<path d="M31.1249 64.0239C30.9387 64.2074 30.6917 64.3104 30.401 64.3104C30.1103 64.3104 29.8789 64.2144 29.7067 64.0451C29.4894 63.825 29.4076 63.5526 29.4076 63.2351H29.8253C29.8253 63.4708 29.8775 63.6472 30.02 63.7869C30.1244 63.8899 30.2585 63.9421 30.401 63.9421C30.5802 63.9421 30.7227 63.8828 30.8342 63.7728C30.9457 63.6627 31.0064 63.5004 31.0064 63.3085C31.0064 63.1533 30.9768 63.0221 30.902 62.9035C30.8201 62.7779 30.7002 62.6749 30.521 62.5804L30.0426 62.3236C29.8041 62.1909 29.632 62.0216 29.5501 61.8819C29.4753 61.7422 29.4457 61.5954 29.4457 61.4106C29.4457 61.1241 29.5656 60.8814 29.7448 60.705C29.917 60.5357 30.1555 60.4468 30.425 60.4468C30.7086 60.4468 30.933 60.5272 31.1052 60.6965C31.2914 60.88 31.3817 61.1453 31.3817 61.5065H30.964C30.964 61.2271 30.9189 61.0874 30.8004 60.9618C30.6959 60.8518 30.5619 60.8151 30.4264 60.8151C30.2627 60.8151 30.1273 60.8588 30.0299 60.9548C29.9099 61.0648 29.8662 61.2412 29.8662 61.3965C29.8662 61.522 29.8888 61.6321 29.941 61.7196C29.9932 61.8156 30.1202 61.903 30.2924 61.999L30.7623 62.2643C31.0092 62.3969 31.1729 62.5366 31.2773 62.706C31.3817 62.8753 31.4269 63.0813 31.4269 63.2944C31.4241 63.5907 31.3041 63.8476 31.1249 64.0239Z" fill="black"/>
<path d="M33.5013 62.4421C33.5013 63.207 33.5238 63.5823 33.696 63.7742C33.7778 63.8702 33.9119 63.9436 34.077 63.9436C34.2266 63.9436 34.3691 63.8998 34.465 63.7968C34.5765 63.6797 34.6287 63.4948 34.6287 63.2676H35.0394C35.0394 63.6275 34.9575 63.8561 34.7628 64.055C34.5906 64.2314 34.3522 64.3133 34.0756 64.3133C33.7849 64.3133 33.5605 64.2173 33.3884 64.0409C33.1414 63.7756 33.0822 63.2761 33.0822 62.3857C33.0822 61.4882 33.1344 60.9958 33.3884 60.7234C33.5521 60.547 33.7764 60.4511 34.0685 60.4511C34.3606 60.4511 34.5836 60.547 34.7487 60.7234C35.0027 60.9958 35.0549 61.4882 35.0549 62.445H33.5013V62.4421ZM34.4425 60.9859C34.3606 60.8899 34.2407 60.8165 34.0685 60.8165C33.8964 60.8165 33.7694 60.8899 33.6875 60.9859C33.5379 61.1552 33.5083 61.4642 33.5013 62.1119H34.6358C34.6301 61.4642 34.592 61.1552 34.4425 60.9859ZM34.2336 59.9416H33.8681L34.3536 58.9863H34.7868L34.2336 59.9416Z" fill="black"/>
<path d="M38.4331 64.0678C38.2694 64.2301 38.0521 64.3105 37.7614 64.3105C37.4707 64.3105 37.2238 64.2075 37.0601 64.017C36.8286 63.7517 36.7764 63.2663 36.7764 62.3843C36.7764 61.5024 36.8286 61.0156 37.0601 60.7517C37.2238 60.5527 37.4707 60.4497 37.7614 60.4497C38.0521 60.4497 38.2623 60.516 38.4331 60.6854C38.6574 60.8984 38.6941 61.1934 38.7026 61.5024H38.292C38.292 61.3105 38.2849 61.12 38.1424 60.9732C38.0521 60.8702 37.9251 60.818 37.7684 60.818C37.6048 60.818 37.4622 60.8843 37.3804 60.9873C37.2167 61.1934 37.1941 61.5842 37.1941 62.3858C37.1941 63.1873 37.2167 63.5697 37.3804 63.7757C37.4622 63.8787 37.6048 63.945 37.7684 63.945C37.911 63.945 38.038 63.8928 38.1339 63.7983C38.2609 63.6656 38.2906 63.4892 38.2906 63.2691H38.7012C38.6941 63.6191 38.6264 63.8773 38.4331 64.0678Z" fill="black"/>
<path d="M41.9665 64.2525V63.9505C41.9214 64.0309 41.8169 64.1339 41.7506 64.1791C41.6307 64.2595 41.4896 64.3117 41.3174 64.3117C41.0634 64.3117 40.8771 64.2242 40.7205 64.062C40.5709 63.9067 40.4891 63.6937 40.4891 63.3183V60.5088H40.9068V63.3268C40.9068 63.7388 41.1382 63.9378 41.4303 63.9378C41.721 63.9378 41.9609 63.7388 41.9609 63.3268V60.5088H42.3786V64.2525H41.9665Z" fill="black"/>
<path d="M45.5465 60.8392C45.0977 60.8392 44.807 61.1186 44.807 61.5673V64.2527H44.3893V60.509H44.8V60.9055C44.8367 60.8251 44.927 60.7221 44.9862 60.6698C45.1584 60.5146 45.3828 60.4497 45.6354 60.4497V60.8392H45.5465Z" fill="black"/>
<path d="M47.2426 59.6468V59.1177H47.7802V59.6468H47.2426ZM47.3019 64.2527V60.509H47.7196V64.2527H47.3019Z" fill="black"/>
<path d="M50.134 64.0171C49.9477 63.8477 49.8504 63.598 49.8504 63.2522V60.8322H49.3875V60.509H49.8504V59.4126H50.268V60.509H50.9172V60.8322H50.268V63.2522C50.268 63.701 50.5065 63.8844 50.9482 63.8844V64.2527C50.642 64.2527 50.3584 64.2231 50.134 64.0171Z" fill="black"/>
<path d="M52.9365 62.4421C52.9365 63.207 52.9591 63.5823 53.1312 63.7742C53.2131 63.8702 53.3471 63.9436 53.5122 63.9436C53.6618 63.9436 53.8043 63.8998 53.9003 63.7968C54.0118 63.6797 54.064 63.4948 54.064 63.2676H54.4746C54.4746 63.6275 54.3928 63.8561 54.198 64.055C54.0259 64.2314 53.7874 64.3133 53.5108 64.3133C53.2201 64.3133 52.9958 64.2173 52.8236 64.0409C52.5767 63.7756 52.5174 63.2761 52.5174 62.3857C52.5174 61.4882 52.5696 60.9958 52.8236 60.7234C52.9873 60.547 53.2117 60.4511 53.5038 60.4511C53.7959 60.4511 54.0188 60.547 54.1839 60.7234C54.4379 60.9958 54.4901 61.4882 54.4901 62.445H52.9365V62.4421ZM53.8763 60.9859C53.7944 60.8899 53.6745 60.8165 53.5023 60.8165C53.3302 60.8165 53.2032 60.8899 53.1214 60.9859C52.9718 61.1552 52.9421 61.4642 52.9351 62.1119H54.0696C54.064 61.4642 54.0259 61.1552 53.8763 60.9859ZM53.6675 59.9416H53.302L53.7874 58.9863H54.2206L53.6675 59.9416Z" fill="black"/>
<path d="M59.2639 64.0171C59.0776 63.8477 58.9802 63.598 58.9802 63.2522V60.8322H58.5174V60.509H58.9802V59.4126H59.3979V60.509H60.047V60.8322H59.3979V63.2522C59.3979 63.701 59.6364 63.8844 60.0781 63.8844V64.2527C59.7719 64.2527 59.4882 64.2231 59.2639 64.0171Z" fill="black"/>
<path d="M62.0593 62.4422C62.0593 63.2071 62.0819 63.5824 62.254 63.7743C62.3359 63.8703 62.4699 63.9437 62.635 63.9437C62.7846 63.9437 62.9271 63.8999 63.0231 63.7969C63.1346 63.6798 63.1868 63.4949 63.1868 63.2677H63.5974C63.5974 63.6276 63.5156 63.8562 63.3208 64.0552C63.1487 64.2315 62.9102 64.3134 62.6336 64.3134C62.3429 64.3134 62.1186 64.2174 61.9464 64.041C61.6995 63.7758 61.6402 63.2762 61.6402 62.3858C61.6402 61.4883 61.6924 60.9959 61.9464 60.7235C62.1101 60.5471 62.3345 60.4512 62.6266 60.4512C62.9187 60.4512 63.1416 60.5471 63.3067 60.7235C63.5607 60.9959 63.6129 61.4883 63.6129 62.4451H62.0593V62.4422ZM63.0005 60.986C62.9187 60.89 62.7987 60.8166 62.6266 60.8166C62.4544 60.8166 62.3274 60.89 62.2456 60.986C62.096 61.1553 62.0664 61.4643 62.0593 62.112H63.1938C63.1868 61.4643 63.1487 61.1553 63.0005 60.986Z" fill="black"/>
<path d="M66.6158 60.8392C66.1671 60.8392 65.8764 61.1186 65.8764 61.5673V64.2527H65.4587V60.509H65.8693V60.9055C65.906 60.8251 65.9963 60.7221 66.0556 60.6698C66.2277 60.5146 66.4521 60.4497 66.7047 60.4497V60.8392H66.6158Z" fill="black"/>
<path d="M69.5226 60.8392C69.0739 60.8392 68.7832 61.1186 68.7832 61.5673V64.2527H68.3655V60.509H68.7762V60.9055C68.8129 60.8251 68.9032 60.7221 68.9624 60.6698C69.1346 60.5146 69.359 60.4497 69.6115 60.4497V60.8392H69.5226Z" fill="black"/>
<path d="M71.5335 62.4422C71.5335 63.2071 71.5561 63.5824 71.7282 63.7743C71.8101 63.8703 71.9441 63.9437 72.1092 63.9437C72.2588 63.9437 72.4013 63.8999 72.4973 63.7969C72.6087 63.6798 72.661 63.4949 72.661 63.2677H73.0716C73.0716 63.6276 72.9897 63.8562 72.795 64.0552C72.6229 64.2315 72.3844 64.3134 72.1078 64.3134C71.8171 64.3134 71.5927 64.2174 71.4206 64.041C71.1736 63.7758 71.1144 63.2762 71.1144 62.3858C71.1144 61.4883 71.1666 60.9959 71.4206 60.7235C71.5843 60.5471 71.8086 60.4512 72.1007 60.4512C72.3929 60.4512 72.6158 60.5471 72.7809 60.7235C73.0349 60.9959 73.0871 61.4883 73.0871 62.4451H71.5335V62.4422ZM72.4733 60.986C72.3914 60.89 72.2715 60.8166 72.0993 60.8166C71.9272 60.8166 71.8002 60.89 71.7183 60.986C71.5688 61.1553 71.5391 61.4643 71.5321 62.112H72.6666C72.661 61.4643 72.6229 61.1553 72.4733 60.986Z" fill="black"/>
<path d="M76.4329 64.0239C76.2466 64.2074 75.9997 64.3104 75.709 64.3104C75.4169 64.3104 75.1855 64.2144 75.0147 64.0451C74.7974 63.825 74.7156 63.5526 74.7156 63.2351H75.1333C75.1333 63.4708 75.1855 63.6472 75.3266 63.7869C75.431 63.8899 75.5651 63.9421 75.7076 63.9421C75.8868 63.9421 76.0279 63.8828 76.1408 63.7728C76.2523 63.6627 76.313 63.5004 76.313 63.3085C76.313 63.1533 76.2833 63.0221 76.2085 62.9035C76.1267 62.7779 76.0067 62.6749 75.8275 62.5804L75.3492 62.3236C75.1107 62.1909 74.9385 62.0216 74.8567 61.8819C74.7819 61.7422 74.7523 61.5954 74.7523 61.4106C74.7523 61.1241 74.8722 60.8814 75.0514 60.705C75.2236 60.5357 75.4621 60.4468 75.7302 60.4468C76.0138 60.4468 76.2382 60.5272 76.4103 60.6965C76.5966 60.88 76.6869 61.1453 76.6869 61.5065H76.2692C76.2692 61.2271 76.2241 61.0874 76.1055 60.9618C76.0011 60.8518 75.867 60.8151 75.7316 60.8151C75.5679 60.8151 75.4338 60.8588 75.3365 60.9548C75.2165 61.0648 75.1728 61.2412 75.1728 61.3965C75.1728 61.522 75.1954 61.6321 75.2476 61.7196C75.2998 61.8156 75.4268 61.903 75.5989 61.999L76.0688 62.2643C76.3158 62.3969 76.4795 62.5366 76.5839 62.706C76.6883 62.8753 76.7335 63.0813 76.7335 63.2944C76.7321 63.5907 76.6121 63.8476 76.4329 64.0239Z" fill="black"/>
<path d="M78.9292 64.0171C78.7429 63.8477 78.6455 63.598 78.6455 63.2522V60.8322H78.1827V60.509H78.6455V59.4126H79.0646V60.509H79.7137V60.8322H79.0646V63.2522C79.0646 63.701 79.3031 63.8844 79.7448 63.8844V64.2527C79.4372 64.2527 79.1535 64.2231 78.9292 64.0171Z" fill="black"/>
<path d="M82.598 60.8392C82.1493 60.8392 81.8586 61.1186 81.8586 61.5673V64.2527H81.4409V60.509H81.8515V60.9055C81.8882 60.8251 81.9785 60.7221 82.0378 60.6698C82.21 60.5146 82.4343 60.4497 82.6883 60.4497V60.8392H82.598Z" fill="black"/>
<path d="M84.6089 62.4422C84.6089 63.2071 84.6314 63.5824 84.8022 63.7743C84.884 63.8703 85.0195 63.9437 85.1832 63.9437C85.3328 63.9437 85.4739 63.8999 85.5712 63.7969C85.6827 63.6798 85.7349 63.4949 85.7349 63.2677H86.1456C86.1456 63.6276 86.0637 63.8562 85.869 64.0552C85.6968 64.2315 85.4584 64.3134 85.1818 64.3134C84.8911 64.3134 84.6667 64.2174 84.4946 64.041C84.2476 63.7758 84.1884 63.2762 84.1884 62.3858C84.1884 61.4883 84.2406 60.9959 84.4946 60.7235C84.6583 60.5471 84.8826 60.4512 85.1747 60.4512C85.4654 60.4512 85.6898 60.5471 85.8549 60.7235C86.1089 60.9959 86.1611 61.4883 86.1611 62.4451H84.6089V62.4422ZM85.5501 60.986C85.4682 60.89 85.3483 60.8166 85.1761 60.8166C85.004 60.8166 84.877 60.89 84.7951 60.986C84.6456 61.1553 84.6159 61.4643 84.6089 62.112H85.7434C85.7363 61.4643 85.6997 61.1553 85.5501 60.986Z" fill="black"/>
<path d="M89.5012 64.0239C89.3149 64.2074 89.068 64.3104 88.7773 64.3104C88.4852 64.3104 88.2538 64.2144 88.083 64.0451C87.8671 63.825 87.7853 63.5526 87.7853 63.2351H88.203C88.203 63.4708 88.2552 63.6472 88.3963 63.7869C88.5007 63.8899 88.6348 63.9421 88.7773 63.9421C88.9565 63.9421 89.0976 63.8828 89.2105 63.7728C89.322 63.6627 89.3827 63.5004 89.3827 63.3085C89.3827 63.1533 89.353 63.0221 89.2782 62.9035C89.1964 62.7779 89.0764 62.6749 88.8972 62.5804L88.4189 62.3236C88.1804 62.1909 88.0082 62.0216 87.9264 61.8819C87.8516 61.7422 87.822 61.5954 87.822 61.4106C87.822 61.1241 87.9419 60.8814 88.1197 60.705C88.2919 60.5357 88.5303 60.4468 88.7999 60.4468C89.0835 60.4468 89.3079 60.5272 89.48 60.6965C89.6663 60.88 89.7566 61.1453 89.7566 61.5065H89.3389C89.3389 61.2271 89.2938 61.0874 89.1752 60.9618C89.0708 60.8518 88.9367 60.8151 88.8013 60.8151C88.6376 60.8151 88.5035 60.8588 88.4062 60.9548C88.2862 61.0648 88.2425 61.2412 88.2425 61.3965C88.2425 61.522 88.2651 61.6321 88.3173 61.7196C88.3695 61.8156 88.4965 61.903 88.6686 61.999L89.1385 62.2643C89.3855 62.3969 89.5492 62.5366 89.6536 62.706C89.758 62.8753 89.8032 63.0813 89.8032 63.2944C89.8004 63.5907 89.6804 63.8476 89.5012 64.0239Z" fill="black"/>
<path d="M94.4189 62.4422C94.4189 63.2071 94.4415 63.5824 94.6122 63.7743C94.6941 63.8703 94.8296 63.9437 94.9932 63.9437C95.1428 63.9437 95.2839 63.8999 95.3813 63.7969C95.4928 63.6798 95.545 63.4949 95.545 63.2677H95.9556C95.9556 63.6276 95.8738 63.8562 95.679 64.0552C95.5069 64.2315 95.2684 64.3134 94.9918 64.3134C94.7011 64.3134 94.4768 64.2174 94.3046 64.041C94.0577 63.7758 93.9984 63.2762 93.9984 62.3858C93.9984 61.4883 94.0506 60.9959 94.3046 60.7235C94.4683 60.5471 94.6927 60.4512 94.9848 60.4512C95.2755 60.4512 95.4998 60.5471 95.6649 60.7235C95.9189 60.9959 95.9711 61.4883 95.9711 62.4451H94.4189V62.4422ZM95.3601 60.986C95.2783 60.89 95.1583 60.8166 94.9862 60.8166C94.814 60.8166 94.687 60.89 94.6052 60.986C94.4556 61.1553 94.426 61.4643 94.4189 62.112H95.5535C95.5464 61.4643 95.5097 61.1553 95.3601 60.986Z" fill="black"/>
<path d="M98.2219 64.0171C98.0356 63.8477 97.9382 63.598 97.9382 63.2522V60.8322H97.4754V60.509H97.9382V59.4126H98.3573V60.509H99.0065V60.8322H98.3573V63.2522C98.3573 63.701 98.5958 63.8844 99.0375 63.8844V64.2527C98.7299 64.2527 98.4462 64.2231 98.2219 64.0171Z" fill="black"/>
<path d="M104.587 64.2528V63.9141C104.535 64.0171 104.446 64.1131 104.379 64.1653C104.259 64.2528 104.132 64.312 103.923 64.312C103.684 64.312 103.482 64.2316 103.317 64.0623C103.175 63.9141 103.07 63.6206 103.07 63.2156C103.07 62.8628 103.175 62.5608 103.392 62.3703C103.578 62.201 103.796 62.1206 104.139 62.1206H104.572V61.4517C104.572 61.0397 104.4 60.8125 104.05 60.8125C103.9 60.8125 103.789 60.8717 103.705 60.9522C103.585 61.0778 103.533 61.2245 103.533 61.4743H103.116C103.116 61.1949 103.175 60.9155 103.392 60.7024C103.549 60.5486 103.773 60.4526 104.05 60.4526C104.349 60.4526 104.58 60.5331 104.73 60.6883C104.902 60.8647 104.991 61.1003 104.991 61.4686V64.257H104.587V64.2528ZM104.572 62.4423H104.154C103.961 62.4423 103.818 62.486 103.691 62.6032C103.564 62.7288 103.49 62.9559 103.49 63.2071C103.49 63.6559 103.653 63.9423 104.02 63.9423C104.356 63.9423 104.573 63.6559 104.573 63.265V62.4423H104.572Z" fill="black"/>
<path d="M107.263 62.4421C107.263 63.207 107.285 63.5823 107.456 63.7742C107.538 63.8702 107.673 63.9436 107.837 63.9436C107.987 63.9436 108.128 63.8998 108.225 63.7968C108.337 63.6797 108.389 63.4948 108.389 63.2676H108.8C108.8 63.6275 108.718 63.8561 108.523 64.055C108.351 64.2314 108.112 64.3133 107.836 64.3133C107.545 64.3133 107.321 64.2173 107.149 64.0409C106.902 63.7756 106.842 63.2761 106.842 62.3857C106.842 61.4882 106.895 60.9958 107.149 60.7234C107.312 60.547 107.537 60.4511 107.829 60.4511C108.119 60.4511 108.344 60.547 108.509 60.7234C108.763 60.9958 108.815 61.4882 108.815 62.445H107.263V62.4421ZM108.204 60.9859C108.122 60.8899 108.002 60.8165 107.83 60.8165C107.658 60.8165 107.531 60.8899 107.449 60.9859C107.3 61.1552 107.27 61.4642 107.263 62.1119H108.397C108.39 61.4642 108.354 61.1552 108.204 60.9859ZM107.994 59.9416H107.628L108.114 58.9863H108.547L107.994 59.9416Z" fill="black"/>
<path d="M111.819 60.8392C111.371 60.8392 111.08 61.1186 111.08 61.5673V64.2527H110.662V60.509H111.073V60.9055C111.11 60.8251 111.2 60.7221 111.259 60.6698C111.431 60.5146 111.656 60.4497 111.91 60.4497V60.8392H111.819Z" fill="black"/>
<path d="M115.1 64.017C114.936 64.216 114.704 64.3105 114.397 64.3105C114.091 64.3105 113.86 64.2146 113.695 64.017C113.463 63.7447 113.411 63.2663 113.411 62.3843C113.411 61.5024 113.463 61.0226 113.695 60.7517C113.858 60.5527 114.091 60.4497 114.397 60.4497C114.704 60.4497 114.935 60.5527 115.1 60.7517C115.332 61.024 115.384 61.5024 115.384 62.3843C115.384 63.2663 115.332 63.7447 115.1 64.017ZM114.771 60.9859C114.69 60.89 114.563 60.8166 114.397 60.8166C114.234 60.8166 114.098 60.89 114.016 60.9859C113.844 61.192 113.83 61.5828 113.83 62.3843C113.83 63.1859 113.846 63.5683 114.016 63.7743C114.098 63.8702 114.232 63.9436 114.397 63.9436C114.561 63.9436 114.688 63.8702 114.771 63.7743C114.944 63.5683 114.965 63.1859 114.965 62.3843C114.965 61.5828 114.942 61.192 114.771 60.9859Z" fill="black"/>
<path d="M117.663 64.0171C117.476 63.8477 117.379 63.598 117.379 63.2522V60.8322H116.916V60.509H117.379V59.4126H117.798V60.509H118.447V60.8322H117.798V63.2522C117.798 63.701 118.037 63.8844 118.478 63.8844V64.2527C118.171 64.2527 117.887 64.2231 117.663 64.0171Z" fill="black"/>
<path d="M120.458 62.4422C120.458 63.2071 120.481 63.5824 120.651 63.7743C120.733 63.8703 120.869 63.9437 121.032 63.9437C121.182 63.9437 121.323 63.8999 121.421 63.7969C121.532 63.6798 121.584 63.4949 121.584 63.2677H121.995C121.995 63.6276 121.913 63.8562 121.718 64.0552C121.546 64.2315 121.308 64.3134 121.031 64.3134C120.74 64.3134 120.516 64.2174 120.344 64.041C120.097 63.7758 120.038 63.2762 120.038 62.3858C120.038 61.4883 120.09 60.9959 120.344 60.7235C120.508 60.5471 120.732 60.4512 121.024 60.4512C121.315 60.4512 121.539 60.5471 121.704 60.7235C121.958 60.9959 122.01 61.4883 122.01 62.4451H120.458V62.4422ZM121.399 60.986C121.318 60.89 121.198 60.8166 121.025 60.8166C120.853 60.8166 120.726 60.89 120.644 60.986C120.495 61.1553 120.465 61.4643 120.458 62.112H121.593C121.586 61.4643 121.549 61.1553 121.399 60.986Z" fill="black"/>
<path d="M125.015 60.8392C124.566 60.8392 124.275 61.1186 124.275 61.5673V64.2527H123.858V60.509H124.268V60.9055C124.305 60.8251 124.395 60.7221 124.454 60.6698C124.627 60.5146 124.851 60.4497 125.105 60.4497V60.8392H125.015Z" fill="black"/>
<path d="M127.929 60.8392C127.48 60.8392 127.189 61.1186 127.189 61.5673V64.2527H126.771V60.509H127.182V60.9055C127.219 60.8251 127.309 60.7221 127.368 60.6698C127.541 60.5146 127.765 60.4497 128.019 60.4497V60.8392H127.929Z" fill="black"/>
<path d="M129.939 62.4422C129.939 63.2071 129.962 63.5824 130.133 63.7743C130.215 63.8703 130.35 63.9437 130.514 63.9437C130.663 63.9437 130.804 63.8999 130.902 63.7969C131.013 63.6798 131.066 63.4949 131.066 63.2677H131.476C131.476 63.6276 131.394 63.8562 131.2 64.0552C131.027 64.2315 130.789 64.3134 130.512 64.3134C130.222 64.3134 129.997 64.2174 129.825 64.041C129.578 63.7758 129.519 63.2762 129.519 62.3858C129.519 61.4883 129.571 60.9959 129.825 60.7235C129.989 60.5471 130.213 60.4512 130.505 60.4512C130.796 60.4512 131.02 60.5471 131.185 60.7235C131.439 60.9959 131.492 61.4883 131.492 62.4451H129.939V62.4422ZM130.881 60.986C130.799 60.89 130.679 60.8166 130.507 60.8166C130.335 60.8166 130.208 60.89 130.126 60.986C129.976 61.1553 129.946 61.4643 129.939 62.112H131.074C131.067 61.4643 131.03 61.1553 130.881 60.986Z" fill="black"/>
<path d="M134.833 64.0239C134.647 64.2074 134.4 64.3104 134.109 64.3104C133.817 64.3104 133.586 64.2144 133.415 64.0451C133.199 63.825 133.117 63.5526 133.117 63.2351H133.535C133.535 63.4708 133.587 63.6472 133.728 63.7869C133.833 63.8899 133.967 63.9421 134.109 63.9421C134.288 63.9421 134.43 63.8828 134.542 63.7728C134.654 63.6627 134.715 63.5004 134.715 63.3085C134.715 63.1533 134.685 63.0221 134.61 62.9035C134.528 62.7779 134.408 62.6749 134.229 62.5804L133.751 62.3236C133.512 62.1909 133.34 62.0216 133.258 61.8819C133.184 61.7422 133.154 61.5954 133.154 61.4106C133.154 61.1241 133.274 60.8814 133.452 60.705C133.624 60.5357 133.862 60.4468 134.132 60.4468C134.415 60.4468 134.64 60.5272 134.812 60.6965C134.998 60.88 135.089 61.1453 135.089 61.5065H134.671C134.671 61.2271 134.626 61.0874 134.507 60.9618C134.403 60.8518 134.269 60.8151 134.133 60.8151C133.97 60.8151 133.836 60.8588 133.738 60.9548C133.618 61.0648 133.574 61.2412 133.574 61.3965C133.574 61.522 133.597 61.6321 133.649 61.7196C133.701 61.8156 133.828 61.903 134.001 61.999L134.471 62.2643C134.717 62.3969 134.881 62.5366 134.986 62.706C135.09 62.8753 135.135 63.0813 135.135 63.2944C135.131 63.5907 135.011 63.8476 134.833 64.0239Z" fill="black"/>
<path d="M137.329 64.0171C137.143 63.8477 137.046 63.598 137.046 63.2522V60.8322H136.583V60.509H137.046V59.4126H137.465V60.509H138.114V60.8322H137.465V63.2522C137.465 63.701 137.703 63.8844 138.145 63.8844V64.2527C137.836 64.2527 137.552 64.2231 137.329 64.0171Z" fill="black"/>
<path d="M140.99 60.8392C140.541 60.8392 140.25 61.1186 140.25 61.5673V64.2527H139.833V60.509H140.243V60.9055C140.28 60.8251 140.37 60.7221 140.43 60.6698C140.602 60.5146 140.826 60.4497 141.08 60.4497V60.8392H140.99Z" fill="black"/>
<path d="M142.992 62.4422C142.992 63.2071 143.015 63.5824 143.185 63.7743C143.267 63.8703 143.403 63.9437 143.566 63.9437C143.716 63.9437 143.857 63.8999 143.955 63.7969C144.066 63.6798 144.118 63.4949 144.118 63.2677H144.529C144.529 63.6276 144.447 63.8562 144.252 64.0552C144.08 64.2315 143.842 64.3134 143.565 64.3134C143.274 64.3134 143.05 64.2174 142.878 64.041C142.631 63.7758 142.572 63.2762 142.572 62.3858C142.572 61.4883 142.624 60.9959 142.878 60.7235C143.042 60.5471 143.266 60.4512 143.558 60.4512C143.849 60.4512 144.073 60.5471 144.238 60.7235C144.492 60.9959 144.544 61.4883 144.544 62.4451H142.992V62.4422ZM143.933 60.986C143.852 60.89 143.732 60.8166 143.559 60.8166C143.387 60.8166 143.26 60.89 143.178 60.986C143.029 61.1553 142.999 61.4643 142.992 62.112H144.127C144.12 61.4643 144.083 61.1553 143.933 60.986Z" fill="black"/>
<path d="M147.886 64.0239C147.7 64.2074 147.453 64.3104 147.162 64.3104C146.87 64.3104 146.639 64.2144 146.468 64.0451C146.252 63.825 146.17 63.5526 146.17 63.2351H146.588C146.588 63.4708 146.64 63.6472 146.781 63.7869C146.885 63.8899 147.02 63.9421 147.162 63.9421C147.341 63.9421 147.482 63.8828 147.595 63.7728C147.707 63.6627 147.767 63.5004 147.767 63.3085C147.767 63.1533 147.738 63.0221 147.663 62.9035C147.581 62.7779 147.461 62.6749 147.282 62.5804L146.804 62.3236C146.565 62.1909 146.393 62.0216 146.311 61.8819C146.236 61.7422 146.207 61.5954 146.207 61.4106C146.207 61.1241 146.327 60.8814 146.504 60.705C146.677 60.5357 146.915 60.4468 147.185 60.4468C147.468 60.4468 147.693 60.5272 147.865 60.6965C148.051 60.88 148.141 61.1453 148.141 61.5065H147.724C147.724 61.2271 147.679 61.0874 147.56 60.9618C147.456 60.8518 147.322 60.8151 147.186 60.8151C147.022 60.8151 146.888 60.8588 146.791 60.9548C146.671 61.0648 146.627 61.2412 146.627 61.3965C146.627 61.522 146.65 61.6321 146.702 61.7196C146.754 61.8156 146.881 61.903 147.053 61.999L147.523 62.2643C147.77 62.3969 147.934 62.5366 148.038 62.706C148.143 62.8753 148.188 63.0813 148.188 63.2944C148.184 63.5907 148.065 63.8476 147.886 64.0239Z" fill="black"/>
</svg>
