<svg width="200" height="27" viewBox="0 0 200 27" fill="none" xmlns="http://www.w3.org/2000/svg">
<g id="logo-bnbxtech">
<g id="Group">
<g id="Group_2">
<g id="Group_3">
<path id="Vector" d="M6.34951 13.1567H19.0485V10.0398H3.17475V19.3906H19.0485V16.2736H6.34951V13.1567ZM0 6.92285H19.0485C21.1646 6.92285 22.2233 7.96229 22.2233 10.0398V11.5982C22.2233 13.499 21.6932 14.5371 20.6359 14.7152C21.6932 14.8933 22.2233 15.9327 22.2233 17.8321V19.3906C22.2233 21.4695 21.1646 22.5075 19.0485 22.5075H0V6.92285Z" fill="white"/>
</g>
</g>
</g>
<g id="Group_4">
<g id="Group_5">
<g id="Group_6">
<path id="Vector_2" d="M25.3965 22.5075V6.92285L44.445 17.0751V6.92285H47.6198V22.5075L28.5712 12.55V22.5075H25.3965Z" fill="white"/>
</g>
</g>
</g>
<g id="Group_7">
<g id="Group_8">
<g id="Group_9">
<path id="Vector_3" d="M57.1435 13.1567H69.8425V10.0398H53.9687V19.3906H69.8425V16.2736H57.1435V13.1567ZM50.7939 6.92285H69.8425C71.9585 6.92285 73.0172 7.96229 73.0172 10.0398V11.5982C73.0172 13.499 72.4872 14.5371 71.4298 14.7152C72.4872 14.8933 73.0172 15.9327 73.0172 17.8321V19.3906C73.0172 21.4695 71.9585 22.5075 69.8425 22.5075H50.7939V6.92285Z" fill="white"/>
</g>
</g>
</g>
<g id="Group_10">
<g id="Group_11">
<g id="Group_12">
<path id="Vector_4" d="M101.586 6.92285H123.81V10.0398H114.285V22.5075H111.111V10.0398H101.586V6.92285Z" fill="white"/>
</g>
</g>
</g>
<g id="Group_13">
<g id="Group_14">
<g id="Group_15">
<path id="Vector_5" d="M149.206 10.0398H130.158V19.3906H149.206V22.5075H130.158C128.04 22.5075 126.983 21.4695 126.983 19.3906V10.0398C126.983 7.96229 128.04 6.92285 130.158 6.92285H149.206V10.0398ZM149.206 16.2736H133.332V13.1567H149.206V16.2736Z" fill="white"/>
</g>
</g>
</g>
<g id="Group_16">
<g id="Group_17">
<g id="Group_18">
<path id="Vector_6" d="M152.379 19.3906V10.0398C152.379 7.96229 153.437 6.92285 155.554 6.92285H174.603V10.0398H155.554V19.3906H174.603V22.5075H155.554C153.437 22.5075 152.379 21.4695 152.379 19.3906Z" fill="white"/>
</g>
</g>
</g>
<g id="Group_19">
<g id="Group_20">
<g id="Group_21">
<path id="Vector_7" d="M180.952 6.92285V13.1567H196.825V6.92285H200V22.5075H196.825V16.2736H180.952V22.5075H177.777V6.92285H180.952Z" fill="white"/>
</g>
</g>
</g>
<g id="Clip path group">
<mask id="mask0_735_3238" style="mask-type:luminance" maskUnits="userSpaceOnUse" x="74" y="0" width="27" height="27">
<g id="37632b5770">
<path id="Vector_8" d="M74.8018 0.80957H100.653V26.1903H74.8018V0.80957Z" fill="white"/>
</g>
</mask>
<g mask="url(#mask0_735_3238)">
<g id="Group_22">
<path id="Vector_9" d="M86.3698 16.1535L80.6495 21.8168L79.3173 23.136L78.0318 24.4078L76.6074 23.0288L77.9042 21.7473L79.2365 20.4267L84.9454 14.7759L86.2635 13.4721L87.6156 12.1335L88.8033 10.9577L94.7134 5.10787L96.0471 3.78735L97.205 2.64077L98.6294 4.01973L97.4729 5.16353L96.1406 6.48266L90.2277 12.3353L89.023 13.5278L87.6708 14.8664L86.3698 16.1535ZM98.7669 13.4999C98.7669 15.5398 98.1929 17.449 97.1937 19.0784L98.5699 20.4114C99.888 18.423 100.653 16.0491 100.653 13.4999C100.653 12.4034 100.512 11.3389 100.245 10.3246L98.6478 11.9053C98.7258 12.4257 98.7669 12.9586 98.7669 13.4999ZM78.2302 19.0269L83.7208 13.5918L85.0517 12.274L86.4038 10.9354L85.1169 9.66221L83.7137 8.27211L80.6184 5.20806C81.0265 4.87132 81.4574 4.5638 81.9124 4.28689C83.6004 3.2572 85.5931 2.66164 87.7275 2.66164C88.2534 2.66164 88.7693 2.69782 89.2752 2.76739C90.0533 2.87454 90.8059 3.061 91.5231 3.31981H91.5245C92.1368 3.53967 92.7235 3.8124 93.2791 4.12966L94.6454 2.77852C94.1096 2.44457 93.5484 2.14818 92.9645 1.89354C92.2941 1.60272 91.5954 1.36477 90.8697 1.18805C89.8648 0.94037 88.8118 0.80957 87.7275 0.80957C85.0658 0.80957 82.5927 1.59993 80.5362 2.95385C80.0996 3.24189 79.6829 3.55358 79.2861 3.89032L78.0913 2.70756L76.7293 4.03364L77.9297 5.22197L79.2634 6.54249L82.3616 9.60933L83.7662 10.998L82.4197 12.3311L77.3897 17.3098L75.9498 18.7361C76.2148 19.308 76.5209 19.8562 76.8639 20.3794L78.2302 19.0269ZM76.6882 13.4999C76.6882 11.5616 77.2069 9.74013 78.1168 8.16636L76.7321 6.82636C75.509 8.7647 74.8018 11.0509 74.8018 13.4999C74.8018 14.6006 74.9449 15.6679 75.2128 16.6864L76.8101 15.1071C76.7293 14.5825 76.6882 14.0454 76.6882 13.4999ZM96.1151 20.5464L93.0155 17.481L91.6152 16.0923L92.8482 14.8719L98.0696 9.70395L99.511 8.27629C99.2459 7.7016 98.9384 7.14779 98.5926 6.62181L97.2263 7.97433L91.5372 13.6043L90.3198 14.8107L88.9677 16.1479L90.2631 17.4309L91.6634 18.8182L94.7446 21.8669C94.2911 22.2343 93.8063 22.5655 93.2961 22.8591C91.662 23.7997 89.7585 24.3382 87.7275 24.3382C87.2074 24.3382 86.6943 24.302 86.1926 24.2339C85.4145 24.1281 84.6633 23.9416 83.9448 23.6856C83.3282 23.4644 82.7372 23.1902 82.1774 22.8702L80.8111 24.2227C81.3497 24.5581 81.9152 24.8558 82.5034 25.1119H82.5048C83.1738 25.4027 83.8725 25.6393 84.5953 25.816C85.5973 26.0609 86.6476 26.1903 87.7275 26.1903C90.2872 26.1903 92.6725 25.4598 94.6794 24.2005C95.1698 23.8929 95.6361 23.5548 96.0783 23.1875L97.2688 24.3674L98.6323 23.0413L97.446 21.8669L96.1151 20.5464Z" fill="#5271FF"/>
</g>
</g>
</g>
</g>
</svg>
