<svg width="40" height="40" viewBox="0 0 40 40" fill="none" xmlns="http://www.w3.org/2000/svg">
<g id="MapPin">
<path id="Vector" d="M20 10.3125C18.8257 10.3125 17.6777 10.6607 16.7013 11.3131C15.7249 11.9656 14.9639 12.8929 14.5145 13.9778C14.0651 15.0628 13.9475 16.2566 14.1766 17.4083C14.4057 18.5601 14.9712 19.6181 15.8016 20.4484C16.6319 21.2788 17.6899 21.8443 18.8417 22.0734C19.9934 22.3025 21.1872 22.1849 22.2722 21.7355C23.3571 21.2861 24.2844 20.5251 24.9369 19.5487C25.5893 18.5723 25.9375 17.4243 25.9375 16.25C25.9375 14.6753 25.3119 13.1651 24.1984 12.0516C23.0849 10.9381 21.5747 10.3125 20 10.3125ZM20 20.3125C19.1965 20.3125 18.4111 20.0742 17.743 19.6278C17.0749 19.1815 16.5542 18.547 16.2467 17.8047C15.9393 17.0623 15.8588 16.2455 16.0156 15.4574C16.1723 14.6694 16.5592 13.9455 17.1274 13.3774C17.6955 12.8092 18.4194 12.4223 19.2074 12.2656C19.9955 12.1088 20.8123 12.1893 21.5547 12.4967C22.297 12.8042 22.9315 13.3249 23.3778 13.993C23.8242 14.6611 24.0625 15.4465 24.0625 16.25C24.0625 17.3274 23.6345 18.3608 22.8726 19.1226C22.1108 19.8845 21.0774 20.3125 20 20.3125ZM20 2.8125C16.4374 2.81664 13.0219 4.2337 10.5028 6.75282C7.9837 9.27194 6.56664 12.6874 6.5625 16.25C6.5625 21.0797 8.80313 26.2094 13.0422 31.0844C14.9555 33.2955 17.1088 35.2869 19.4625 37.0219C19.6201 37.1321 19.8077 37.1913 20 37.1913C20.1923 37.1913 20.3799 37.1321 20.5375 37.0219C22.8912 35.2869 25.0445 33.2955 26.9578 31.0844C31.1969 26.2094 33.4375 21.0844 33.4375 16.25C33.4334 12.6874 32.0163 9.27194 29.4972 6.75282C26.9781 4.2337 23.5626 2.81664 20 2.8125ZM20 35.0797C17.6562 33.2703 8.4375 25.5656 8.4375 16.25C8.4375 13.1834 9.65569 10.2425 11.8241 8.07408C13.9925 5.90569 16.9334 4.6875 20 4.6875C23.0666 4.6875 26.0075 5.90569 28.1759 8.07408C30.3443 10.2425 31.5625 13.1834 31.5625 16.25C31.5625 25.5656 22.3438 33.2703 20 35.0797Z" fill="#303030"/>
</g>
</svg>
