<svg width="180" height="91" viewBox="0 0 180 91" fill="none" xmlns="http://www.w3.org/2000/svg">
<g clip-path="url(#clip0_603_4261)">
<path d="M179.82 1.1001H0.179993V90.7401H179.82V1.1001Z" fill="#014171" stroke="white"/>
<path d="M158.701 53.2678C158.661 53.5873 158.54 54.4279 157.445 54.5371H147.829C146.734 54.4279 146.534 53.5873 146.493 53.2678V38.4223C146.533 38.102 146.685 37.4213 147.78 37.3121H157.449C158.545 37.4213 158.661 38.102 158.701 38.4223V53.2678ZM162.031 31.7187H143.163C140.328 31.9474 137.933 33.3852 137.614 36.6018V54.9815C137.933 58.1981 140.328 59.9021 143.163 60.1309H162.031C164.866 59.9021 167.26 58.1981 167.58 54.9815V36.6018C167.26 33.3852 164.866 31.9474 162.031 31.7187ZM85.6714 37.3121H77.236V31.7187H102.986V37.3121H94.5503V60.1309H85.6714V37.3121ZM74.5727 37.3121V31.7187H51.4869V60.1309L74.8795 60.1247L74.888 54.5375H60.3884L60.3898 48.4521H74.5726V42.8725H60.3898V37.3121L74.5727 37.3121ZM126.071 41.7159C126.071 42.3308 125.918 42.8702 124.814 42.8702H114.528V37.2933H124.828C126.081 37.2933 126.071 38.1132 126.071 38.625V41.7159ZM128.531 49.0858C131.301 48.864 134.062 46.9787 134.062 43.8824V36.868C133.741 33.6664 131.338 31.9374 128.491 31.7095H105.649L105.65 60.1309H114.528V49.0858H118.062L123.833 60.1309H134.044L127.172 49.0858H128.531ZM33.1077 60.1309L39.0565 42.2845V60.1309H47.9355V31.7187H35.9491L30.1776 45.9251L24.4061 31.7187H12.4197V60.1309H21.2988V42.2845L27.2916 60.1309H33.1077Z" fill="#FBC51D"/>
</g>
<defs>
<clipPath id="clip0_603_4261">
<rect width="180" height="90" fill="white" transform="translate(0 0.919922)"/>
</clipPath>
</defs>
</svg>
