<svg width="180" height="90" viewBox="0 0 180 90" fill="none" xmlns="http://www.w3.org/2000/svg">
<g clip-path="url(#clip0_603_4262)">
<path d="M142.942 5H38V85H142.942V5Z" fill="white"/>
<path d="M77.7507 15.5962H48.6002V26.1922H77.7507V15.5962Z" fill="white"/>
<path fill-rule="evenodd" clip-rule="evenodd" d="M60.6515 24.9424C60.7653 24.8286 60.8801 24.7065 60.9943 24.584C61.1983 24.3414 61.4215 24.1136 61.6599 23.9024C61.7289 23.8398 61.8017 23.7817 61.878 23.7283C61.888 23.7183 61.8931 23.7032 61.898 23.6882C61.903 23.6732 61.9081 23.6582 61.9181 23.6482C61.868 23.6682 61.828 23.6982 61.7879 23.7282C61.7478 23.7583 61.7078 23.7883 61.6577 23.8083C61.6376 23.8083 61.6176 23.7884 61.6376 23.7683L61.8517 23.6078C61.8473 23.6081 61.8426 23.6081 61.8379 23.6081C61.818 23.6081 61.818 23.5881 61.818 23.5681C61.5597 23.5284 61.3606 23.7052 61.1815 23.8643L61.1769 23.8684C61.1502 23.8818 61.1235 23.8684 61.1027 23.858C61.0924 23.8528 61.0835 23.8484 61.0768 23.8484C60.9193 23.9009 60.7839 23.9974 60.6474 24.0946C60.5234 24.1829 60.3985 24.2718 60.2556 24.329V24.2889C60.2058 24.3055 60.1565 24.3277 60.1072 24.3499C60.0374 24.3814 59.9674 24.413 59.895 24.429C59.7595 24.4591 59.6352 24.4553 59.5138 24.4516C59.4738 24.4503 59.4339 24.4491 59.3942 24.4491C59.1493 24.4788 58.9061 24.5221 58.6659 24.5787L58.6554 24.5813L58.6506 24.5825L58.645 24.584C58.515 24.619 58.3897 24.6694 58.2717 24.7342C58.2671 24.7367 58.2625 24.7394 58.258 24.7422C58.2481 24.7547 58.2383 24.7666 58.2291 24.7768C58.1913 24.8251 58.1446 24.8657 58.0917 24.8966C58.0046 24.9409 57.9287 25.0085 57.8533 25.0756C57.8222 25.1033 57.7912 25.1309 57.7595 25.1568C57.7501 25.1633 57.7389 25.1669 57.7274 25.1669C57.6944 25.1986 57.6615 25.2304 57.6286 25.2622C57.5545 25.3338 57.4804 25.4056 57.4048 25.4756C57.3857 25.4845 57.3643 25.487 57.3437 25.4829C57.3492 25.4747 57.3531 25.4684 57.3569 25.462C57.3738 25.4338 57.3909 25.4056 57.4082 25.3776C57.4276 25.3463 57.4474 25.3153 57.4676 25.2846C57.4949 25.2432 57.523 25.2022 57.5529 25.1627C57.5599 25.1552 57.5595 25.1435 57.5522 25.1364C57.5447 25.1293 57.5346 25.1255 57.5242 25.1259C57.6266 25.0302 57.7394 24.946 57.8604 24.8751C57.8471 24.8764 57.8276 24.8656 57.8377 24.8516C57.8452 24.8412 57.8517 24.8304 57.8582 24.8196C57.8628 24.812 57.8674 24.8045 57.8723 24.797C57.8746 24.7911 57.8767 24.7851 57.8787 24.7791C57.8756 24.7757 57.8725 24.7725 57.8693 24.7693L57.8636 24.7633C57.8306 24.7829 57.7991 24.8049 57.7694 24.8291C57.7549 24.8422 57.7413 24.8594 57.7275 24.877C57.6955 24.9176 57.6619 24.9603 57.6113 24.9597C57.601 24.9596 57.5908 24.9581 57.5809 24.9554C57.5735 24.9544 57.5663 24.952 57.5599 24.9482L57.5625 24.9436L57.5654 24.938L57.5683 24.9328L57.5779 24.9156L57.583 24.9063L57.5874 24.8983L57.5951 24.8845C57.5999 24.876 57.6045 24.8677 57.6093 24.8591L57.6133 24.852L57.6155 24.8483L57.6198 24.841C57.6258 24.8306 57.6318 24.8204 57.6378 24.8101L57.6457 24.7968L57.658 24.7755L57.6668 24.7604L57.6731 24.7496L57.6793 24.7391C57.6835 24.7326 57.6841 24.7245 57.6811 24.7173C57.6781 24.7102 57.6719 24.705 57.6643 24.7033C57.7015 24.6547 57.7482 24.6141 57.8014 24.5838H57.7954C57.8482 24.5573 57.901 24.5268 57.9538 24.4963C57.9776 24.4825 58.0016 24.4686 58.0254 24.4552C58.0328 24.4489 58.0401 24.4425 58.0473 24.4362L58.0585 24.4266C57.9458 24.4647 57.8386 24.5176 57.7397 24.5838C57.7278 24.5885 57.7165 24.5946 57.7061 24.6021C57.6873 24.6062 57.6679 24.599 57.6562 24.5838C57.6529 24.5796 57.6512 24.5744 57.6513 24.5691C57.6631 24.5458 57.6883 24.5292 57.7153 24.5115C57.7347 24.4989 57.7549 24.4856 57.7716 24.4689C57.7915 24.4689 57.8116 24.4689 57.8116 24.489C58.2093 24.1783 58.6995 24.1068 59.1914 24.035C59.4923 23.9911 59.7938 23.9471 60.0751 23.8482L60.2553 23.7281C60.3068 23.7075 60.3531 23.671 60.4021 23.6323C60.4485 23.5957 60.4974 23.557 60.5557 23.5278C60.7176 23.4168 60.8375 23.2546 60.8963 23.0674C60.8941 23.0522 60.8872 23.0381 60.8763 23.0273C60.6245 23.2986 60.326 23.5224 59.9949 23.6881C59.6916 23.8469 59.3675 23.8704 59.045 23.8937C58.9203 23.9027 58.7958 23.9117 58.6729 23.9285C58.693 23.8885 58.733 23.8885 58.7731 23.8885C58.7731 23.841 58.7981 23.8185 58.8284 23.7914C58.8364 23.7842 58.8448 23.7767 58.8532 23.7684H58.9133C58.9233 23.7684 58.9283 23.7584 58.9333 23.7484C58.9383 23.7383 58.9433 23.7283 58.9533 23.7283C58.9934 23.7283 59.0535 23.7083 59.0335 23.7083C59.003 23.6676 58.957 23.6837 58.9059 23.7016C58.8565 23.7189 58.8024 23.7379 58.7531 23.7083C58.7724 23.689 58.7777 23.6649 58.7826 23.643C58.7877 23.6196 58.7924 23.5985 58.8131 23.5882H58.8933C58.8974 23.5578 58.9115 23.5296 58.9333 23.5081C59.1118 23.401 59.2832 23.3081 59.4517 23.2167C59.567 23.1543 59.6809 23.0926 59.7948 23.0275C59.7715 23.0275 59.7512 23.0365 59.7316 23.0453C59.7006 23.0591 59.6714 23.0721 59.6346 23.0476C59.6546 23.0476 59.6546 23.0325 59.6546 23.0175C59.6546 23.0025 59.6546 22.9874 59.6747 22.9874C59.8007 22.9531 59.9137 22.8991 60.0285 22.8441C60.1144 22.803 60.2013 22.7615 60.2956 22.7272C60.2681 22.7272 60.2429 22.7343 60.2185 22.7411C60.1719 22.7543 60.1279 22.7667 60.0752 22.7272C60.0885 22.7205 60.0997 22.7116 60.1108 22.7027C60.1331 22.6849 60.1553 22.6671 60.1954 22.6671V22.6071C60.1954 22.587 60.2155 22.587 60.2355 22.587C60.2203 22.5849 60.2062 22.5779 60.1954 22.567C60.2058 22.5463 60.2268 22.5417 60.2502 22.5365C60.2722 22.5316 60.2962 22.5263 60.3156 22.507C60.2956 22.507 60.2555 22.507 60.2555 22.4869C60.3156 22.4068 60.4157 22.3868 60.5159 22.3668C60.5059 22.3468 60.4858 22.3468 60.4683 22.3468C60.4508 22.3468 60.4357 22.3468 60.4357 22.3267C60.4357 22.3067 60.4558 22.3067 60.4758 22.3067H60.4357C60.4047 22.2912 60.4098 22.2636 60.4136 22.2427C60.4147 22.2366 60.4157 22.2311 60.4157 22.2267C60.4958 22.1332 60.5226 22.0219 60.5492 21.9107C60.5626 21.8551 60.5759 21.7995 60.596 21.7461C60.5759 21.7461 60.5559 21.7461 60.5559 21.726C60.3615 21.9399 60.0537 22.0216 59.7611 22.0993L59.7347 22.1063H59.6346C59.5236 22.1498 59.3991 22.1425 59.294 22.0863C59.2455 22.062 59.2117 22.0304 59.1748 21.996C59.1507 21.9735 59.1254 21.9498 59.0938 21.926C58.9371 21.8261 58.769 21.7453 58.593 21.6856C58.0956 21.5231 57.5736 21.4486 57.0506 21.4654C57.1946 21.3869 57.3483 21.3553 57.5038 21.3234C57.5863 21.3064 57.6694 21.2894 57.7517 21.2652C57.8015 21.2505 57.8509 21.2354 57.9 21.2205C58.1868 21.1329 58.4654 21.0478 58.7732 21.0649C58.7325 21.0513 58.6826 21.0562 58.6359 21.0607C58.6137 21.0628 58.5923 21.0649 58.5729 21.0649C58.3474 21.0488 58.1217 21.0975 57.8856 21.1485C57.8282 21.1609 57.7702 21.1734 57.7114 21.1851C57.6114 21.2051 57.5163 21.2351 57.4213 21.2651C57.3261 21.2952 57.2309 21.3252 57.1306 21.3452C57.0844 21.3606 57.0471 21.3878 57.0107 21.4144C56.9524 21.4569 56.8965 21.4978 56.8101 21.4854V21.4253C57.0104 21.1849 57.2508 20.9448 57.5713 20.9248C57.876 20.874 58.1664 20.9091 58.4667 20.9453C58.5217 20.952 58.5771 20.9586 58.6329 20.9648C58.8897 20.9921 59.144 21.0389 59.3937 21.105C59.4488 21.105 59.4796 21.1533 59.5095 21.2002C59.534 21.2387 59.5579 21.2762 59.5941 21.2852C59.6421 21.3012 59.6902 21.3044 59.7383 21.3076C59.8104 21.3124 59.8826 21.3172 59.9546 21.3653C59.9546 21.3519 59.9523 21.3385 59.9501 21.3253C59.9456 21.2985 59.9412 21.2718 59.9546 21.2451C59.9998 21.1999 60.0514 21.2121 60.1022 21.2242C60.1414 21.2334 60.1801 21.2425 60.215 21.2251C60.3237 21.1572 60.2203 21.0524 60.1176 20.9482C60.069 20.8989 60.0204 20.8497 59.9947 20.8046C59.9968 20.7895 60.0038 20.7754 60.0147 20.7646C60.0627 20.8066 60.1071 20.8504 60.1511 20.8938C60.2541 20.9953 60.3551 21.0949 60.4954 21.165C60.5955 21.205 60.8359 21.2652 60.7958 21.1451C60.7257 20.9906 60.6062 20.8559 60.4859 20.7202C60.4345 20.6623 60.3831 20.6042 60.3351 20.5443V20.4645C60.3058 20.4645 60.298 20.4538 60.288 20.4402C60.2844 20.4352 60.2805 20.4298 60.2751 20.4245V20.3444C60.2247 20.3193 60.2139 20.2783 60.2029 20.2364C60.1964 20.2116 60.1898 20.1865 60.1749 20.1642C60.1414 20.1085 60.139 20.0403 60.1366 19.97C60.1346 19.9141 60.1326 19.857 60.1148 19.8038C60.0787 19.6928 60.0519 19.5789 60.0346 19.4634C60.0111 19.3299 59.9845 19.2025 59.9585 19.0777C59.9181 18.8843 59.879 18.697 59.8544 18.5024C59.8236 18.2095 59.9709 17.964 60.1226 17.7112C60.1679 17.6357 60.2136 17.5595 60.2551 17.4812C60.3953 17.2407 60.5555 17.0006 60.8159 16.8405C60.8759 16.6007 61.0354 16.4011 61.1949 16.2014L61.1963 16.1998C61.3562 16.0044 61.622 15.8853 61.8146 15.7993C61.9882 15.7222 62.1659 15.6544 62.3468 15.5962H48.6002V26.1919H58.3355C58.6012 26.0007 58.8667 25.8794 59.1832 25.7348C59.3211 25.6718 59.4686 25.6044 59.63 25.5249C59.661 25.5096 59.6969 25.4923 59.7363 25.4732L59.7372 25.4727C60.0185 25.3367 60.4809 25.113 60.6515 24.9424ZM57.4711 23.488C57.4851 23.4178 57.5583 23.3968 57.6284 23.3767C57.6583 23.3682 57.6876 23.3598 57.7116 23.3478L57.7212 23.3429L57.732 23.3371C57.7702 23.3167 57.8181 23.291 57.8518 23.3078C57.8745 23.3418 57.9036 23.3501 57.9319 23.3582C57.9535 23.3644 57.9747 23.3705 57.9921 23.3879C57.9197 23.4601 57.833 23.4672 57.7448 23.4744C57.6863 23.4792 57.6272 23.484 57.5713 23.508C57.5615 23.508 57.5494 23.5092 57.537 23.5104C57.4982 23.5142 57.4559 23.5183 57.4711 23.488ZM55.1275 22.0063C54.9476 22.3667 54.7329 22.7087 54.4866 23.0274C54.4886 23.0427 54.4957 23.0567 54.5066 23.0676C54.9874 22.5269 55.428 22.0664 56.0487 21.6859C56.0641 21.6783 56.0588 21.6853 56.051 21.6957C56.0385 21.7126 56.0193 21.7383 56.0687 21.726C56.2769 21.678 56.3699 21.502 56.4602 21.331C56.4828 21.2881 56.5053 21.2456 56.5294 21.2054C56.6225 21.0542 56.7563 20.957 56.8912 20.859C56.9885 20.7882 57.0865 20.717 57.1704 20.6248C57.1731 20.6468 57.1657 20.6689 57.1504 20.6848C57.1664 20.7002 57.1885 20.7076 57.2105 20.7049C57.2454 20.6787 57.284 20.6678 57.3215 20.6571C57.3703 20.6433 57.4171 20.63 57.4511 20.5847C57.2849 20.5183 57.101 20.5112 56.9302 20.5647C56.5095 20.7649 56.1491 21.0853 55.8085 21.4457C55.6041 21.6621 55.3879 21.8662 55.1275 22.0063ZM56.109 21.8261C56.0932 21.8619 56.0647 21.8904 56.0289 21.9062C56.0088 21.9062 55.9888 21.9062 55.9888 21.8862C56.0068 21.8021 56.0676 21.7337 56.1491 21.706C56.1691 21.7059 56.1691 21.726 56.1691 21.746C56.1588 21.7666 56.148 21.7778 56.1374 21.7886C56.1274 21.7988 56.1177 21.8087 56.109 21.8261ZM57.0764 24.8353C57.0926 24.8205 57.075 24.8094 57.0499 24.8044C57.0705 24.7887 57.0873 24.7688 57.0992 24.7459C57.1156 24.7066 57.0097 24.716 56.9932 24.7275C56.9771 24.7403 56.9626 24.7553 56.9502 24.7718C56.924 24.8 56.8962 24.8266 56.8669 24.8516C56.8449 24.8717 56.8236 24.8924 56.8022 24.9131C56.7748 24.9397 56.7474 24.9662 56.7188 24.9914C56.6851 25.021 56.7953 25.0365 56.819 25.0154C56.8446 24.9927 56.8693 24.9691 56.8937 24.9454C56.9041 24.945 56.9145 24.9436 56.9246 24.9412C56.9822 24.9171 57.0339 24.8811 57.0764 24.8353ZM56.7354 24.584L56.7118 24.6006C56.6446 24.648 56.5774 24.6954 56.5067 24.7364C56.4432 24.7733 56.3775 24.8035 56.3116 24.8339C56.2886 24.8445 56.2655 24.8552 56.2425 24.8661C56.2418 24.8644 56.2409 24.8627 56.2399 24.8613C56.2322 24.8505 56.2179 24.8471 56.2063 24.8532C56.1327 24.8952 56.0649 24.9468 56.0049 25.0066C55.9956 25.0155 55.9863 25.0245 55.9769 25.0336C55.9643 25.046 55.9548 25.0555 55.9453 25.065L55.942 25.0683C55.9416 25.0687 55.9415 25.069 55.9413 25.0694L55.9407 25.0702C55.9265 25.0843 55.9128 25.0987 55.8971 25.117C55.8899 25.1278 55.8808 25.1373 55.8704 25.145C55.858 25.1532 55.8235 25.1531 55.8267 25.13V25.126L55.8253 25.1268C55.8139 25.1328 55.8026 25.1388 55.7911 25.1443C55.7807 25.1491 55.7715 25.1546 55.762 25.1602L55.7598 25.1614C55.7554 25.1597 55.7507 25.1591 55.746 25.1594C55.7408 25.1595 55.7358 25.1612 55.7316 25.1642C55.7071 25.1834 55.6829 25.2039 55.6593 25.2253C55.6172 25.2632 55.5783 25.3045 55.543 25.3488L55.5373 25.3562L55.5313 25.3639C55.5294 25.3666 55.527 25.3695 55.5249 25.3722L55.523 25.3747L55.52 25.3789L55.5142 25.3874L55.5094 25.3946C55.5041 25.4001 55.4983 25.4029 55.4922 25.4037L55.4889 25.3988C55.4872 25.3965 55.4856 25.3942 55.4841 25.3917L55.4808 25.3861L55.4785 25.382C55.4724 25.3717 55.4668 25.361 55.4614 25.35L55.4608 25.3488L55.4585 25.3441L55.4561 25.3389C55.4778 25.3156 55.4987 25.2914 55.519 25.2668L55.523 25.2619C55.53 25.2534 55.5369 25.2448 55.5438 25.2362L55.5774 25.1934C55.5798 25.1901 55.5822 25.187 55.5846 25.184L55.5896 25.1775C55.6116 25.1488 55.6326 25.121 55.6523 25.093L55.6537 25.0908L55.6572 25.0856C55.6589 25.0832 55.6606 25.0807 55.6624 25.0782C55.672 25.0641 55.6812 25.0498 55.6898 25.0352C55.6976 25.0221 55.7049 25.0088 55.7117 24.9952L55.7134 24.9923L55.7154 24.9881C55.716 24.987 55.7165 24.9858 55.717 24.9845C55.7176 24.9833 55.7181 24.9819 55.7187 24.9807C55.7258 24.9656 55.7321 24.95 55.7377 24.934L55.7395 24.9288L55.7407 24.9255C55.7418 24.9223 55.743 24.919 55.744 24.9157C55.7463 24.9085 55.7483 24.901 55.7503 24.8936C55.7507 24.8919 55.7509 24.8903 55.7514 24.8887L55.7532 24.8817C55.755 24.8744 55.7569 24.867 55.7584 24.8593C55.7592 24.8547 55.7584 24.8499 55.7559 24.8459C55.7785 24.8072 55.8051 24.7709 55.8353 24.7378C55.8339 24.7387 55.8324 24.7395 55.8308 24.7403C55.8292 24.7411 55.8276 24.742 55.8261 24.743C55.8102 24.7533 55.7972 24.7658 55.7842 24.7783C55.7739 24.7883 55.7636 24.7983 55.7518 24.8072C55.73 24.8234 55.6898 24.7965 55.7156 24.7771C55.7316 24.7643 55.7468 24.7506 55.7611 24.7358C55.7949 24.6963 55.829 24.6624 55.8655 24.631L55.8741 24.6248C55.8936 24.6107 55.9108 24.5981 55.927 24.584C55.929 24.5823 55.9309 24.5804 55.9329 24.5786L55.9358 24.576C55.9494 24.5582 55.9644 24.5413 55.9805 24.5257L55.9814 24.5248C55.9818 24.5244 55.9821 24.524 55.9826 24.5237C56.0998 24.4107 56.266 24.3698 56.4352 24.3282C56.5428 24.3017 56.6516 24.2749 56.7499 24.229C56.8057 24.2067 56.8677 24.2155 56.929 24.2242C56.9777 24.2311 57.026 24.2379 57.0703 24.229C57.1332 24.2229 57.1963 24.237 57.2506 24.2691C57.1118 24.3447 56.981 24.4278 56.8531 24.5091C56.8153 24.5332 56.7778 24.557 56.7404 24.5805L56.7354 24.584ZM57.0704 23.1476H57.2307C57.2194 23.1702 57.1889 23.1737 57.1681 23.1761C57.1521 23.1779 57.1419 23.179 57.1506 23.1878C57.2107 23.2477 57.3309 23.2277 57.411 23.1877C57.4718 23.1534 57.542 23.1394 57.6113 23.1476C57.6313 23.1476 57.6313 23.1076 57.6313 23.0876C57.683 23.104 57.7373 23.1108 57.7915 23.1076C58.2722 23.0074 58.733 22.9073 59.1736 22.6871C58.729 22.3452 58.182 22.193 57.6451 22.0437C57.5532 22.0181 57.4617 21.9926 57.3709 21.9663C57.3909 21.9663 57.4109 21.9729 57.431 21.9796C57.471 21.993 57.5111 22.0063 57.5512 21.9663C57.4967 21.9227 57.4362 21.9147 57.3763 21.9068C57.3261 21.9001 57.2763 21.8936 57.2307 21.8662C57.2352 21.8662 57.2407 21.8672 57.2468 21.8683C57.2677 21.8722 57.2953 21.8772 57.3108 21.8462C57.204 21.7928 57.0972 21.775 56.9904 21.7572C56.937 21.7483 56.8835 21.7393 56.83 21.726C56.926 21.7087 56.9945 21.6232 56.9903 21.5258C56.9903 21.5058 56.9502 21.5058 56.9302 21.5058C56.6899 21.6259 56.5296 21.8462 56.4295 22.1064C56.5189 22.1576 56.6165 22.1516 56.7118 22.1458C56.766 22.1425 56.8194 22.1392 56.8702 22.1465C56.8255 22.1909 56.7591 22.2025 56.695 22.2136C56.6726 22.2175 56.6504 22.2214 56.6296 22.2266C56.5681 22.2419 56.5094 22.2866 56.5294 22.3267C56.5403 22.3418 56.5566 22.3522 56.5749 22.3557C56.5276 22.3681 56.4844 22.3926 56.4493 22.4268C56.5067 22.4697 56.564 22.4616 56.6212 22.4534C56.6441 22.4501 56.667 22.4468 56.6899 22.4468C56.6899 22.4735 56.7077 22.4824 56.7255 22.4913C56.7344 22.4958 56.7433 22.5002 56.75 22.5069C56.6625 22.5388 56.5906 22.6034 56.5497 22.6871C56.5256 22.7472 56.4799 22.7856 56.4343 22.8241C56.4038 22.8497 56.3734 22.8753 56.3494 22.9073V22.9674C56.2813 23.0286 56.2109 23.0829 56.1414 23.1365C56.0062 23.2408 55.8743 23.3426 55.7685 23.488C55.7885 23.488 55.7885 23.508 55.7885 23.528C55.7703 23.5552 55.744 23.5743 55.7187 23.5925C55.6882 23.6145 55.6593 23.6353 55.6482 23.6681C55.6482 23.6882 55.6482 23.7082 55.6683 23.7082C55.7943 23.6663 55.9037 23.5968 56.0111 23.5287C56.1086 23.4668 56.2044 23.406 56.3093 23.3679C56.395 23.3464 56.4691 23.3079 56.541 23.2705C56.6037 23.238 56.6646 23.2063 56.7299 23.1877C56.78 23.1776 56.8351 23.1627 56.8901 23.1476C56.9453 23.1326 57.0003 23.1176 57.0504 23.1076C57.0504 23.1276 57.0504 23.1476 57.0704 23.1476ZM57.9943 24.9125C57.9958 24.9114 57.9974 24.9101 57.999 24.9088L58.0026 24.906C58.0316 24.8855 58.0585 24.8593 58.0826 24.8281C58.081 24.8276 58.0793 24.827 58.0777 24.8263C58.0761 24.8257 58.0747 24.825 58.0732 24.8242C58.0465 24.8516 58.0205 24.881 57.9943 24.9125ZM61.9016 23.5986L61.86 23.6297C61.883 23.6287 61.9016 23.6228 61.9016 23.5986Z" fill="#000091"/>
<path d="M77.7503 15.5962H66.3479C66.3858 15.6086 66.4221 15.6255 66.4561 15.6465C66.5487 15.6962 66.6687 15.7602 66.7438 15.7996C66.8975 15.8703 67.0294 15.9809 67.1257 16.1199C67.1658 16.18 67.2259 16.3001 67.1858 16.3802C67.1458 16.4803 67.1257 16.6405 67.0256 16.6806C66.9054 16.7406 66.7451 16.7406 66.6049 16.7206C66.5234 16.7171 66.4427 16.7036 66.3644 16.6806C66.6648 16.8007 66.9452 16.9409 67.1456 17.2212C67.1656 17.2613 67.2457 17.2812 67.3259 17.2812C67.3459 17.2812 67.3459 17.3213 67.3459 17.3413C67.3058 17.3814 67.2657 17.4014 67.2857 17.4614H67.3459C67.446 17.4214 67.426 17.221 67.5662 17.2812C67.6685 17.3442 67.7036 17.4761 67.6463 17.5816C67.5712 17.6542 67.4908 17.7211 67.4058 17.7818C67.3858 17.8263 67.3858 17.8774 67.4058 17.922C67.4559 17.9941 67.4901 18.076 67.5059 18.1624C67.5661 18.3025 67.586 18.4627 67.6462 18.6029C67.7263 18.9032 67.8064 19.2036 67.7863 19.5039C67.7863 19.6641 67.7062 19.8042 67.7663 19.9645C67.8064 20.1246 67.9065 20.2448 67.9867 20.3849C68.0667 20.505 68.1469 20.5851 68.207 20.7053C68.3271 20.9055 68.5475 21.1057 68.4476 21.346C68.3875 21.4861 68.1672 21.4661 68.027 21.5462C67.9068 21.6463 68.0069 21.8065 68.067 21.9066C68.1672 22.0868 67.9468 22.2069 67.8066 22.267C67.8467 22.3271 67.9268 22.307 67.9468 22.3471C67.9668 22.4472 68.067 22.5073 68.0069 22.6074C67.9268 22.7275 67.6864 22.7876 67.8066 22.9678C67.8867 23.108 67.8346 23.2636 67.7866 23.4083C67.7265 23.5885 67.5663 23.6686 67.426 23.7087C67.3026 23.7452 67.1723 23.752 67.0457 23.7286C67.0091 23.7065 66.9681 23.6928 66.9255 23.6886C66.5849 23.6485 66.2444 23.5485 65.9039 23.5485C65.8074 23.5631 65.7132 23.59 65.6235 23.6285C65.5362 23.6925 65.4551 23.7642 65.3809 23.8429L65.3786 23.8454C65.3636 23.8614 65.3491 23.8776 65.3349 23.8939C65.3262 23.9041 65.3177 23.9144 65.3091 23.9247C65.3034 23.9315 65.2977 23.9384 65.2921 23.9453C65.2339 24.0183 65.1812 24.0954 65.1344 24.1761C65.1314 24.1812 65.1284 24.1863 65.1255 24.1914C65.1203 24.2007 65.1152 24.2101 65.1101 24.2194C65.047 24.3363 64.9962 24.4594 64.9584 24.5868C64.8222 25.0453 64.8817 25.4387 64.9773 25.5342C65.004 25.5607 65.6385 25.7566 66.0805 25.9531C66.2435 26.0216 66.4015 26.1015 66.5532 26.1922H77.7503V15.5962Z" fill="#E1000F"/>
<path d="M67.026 19.4615C67.1062 19.4815 67.2263 19.4815 67.2263 19.5215C67.1862 19.6817 66.9458 19.7217 66.8256 19.882H66.7657C66.7056 19.922 66.7257 20.0221 66.6656 20.0221C66.6049 20.0088 66.5416 20.0159 66.4853 20.0421C66.5654 20.1222 66.6656 20.1824 66.7857 20.1623C66.8202 20.1742 66.844 20.206 66.8458 20.2425C66.8612 20.241 66.8755 20.2338 66.8859 20.2224C66.906 20.2224 66.926 20.2224 66.926 20.2425V20.3225C66.8658 20.4026 66.7657 20.3625 66.6855 20.3826C66.8364 20.4226 66.9952 20.4226 67.1461 20.3826C67.2664 20.3425 67.1461 20.1421 67.2263 20.0421C67.1863 20.0421 67.2263 19.9821 67.1863 19.9821C67.2263 19.9421 67.2664 19.882 67.3064 19.862C67.354 19.8632 67.3991 19.8407 67.4267 19.8019C67.4267 19.7619 67.3466 19.7419 67.3665 19.7017C67.4867 19.6217 67.5868 19.5015 67.5469 19.3814C67.5268 19.3214 67.3665 19.3214 67.2664 19.2813C67.1662 19.2412 67.046 19.2813 66.9259 19.3013C66.8257 19.3013 66.7255 19.3614 66.6254 19.3814C66.489 19.4279 66.3606 19.4955 66.245 19.5816C66.3884 19.5298 66.5358 19.4896 66.6857 19.4615C66.8057 19.4615 66.9077 19.4319 67.026 19.4615Z" fill="#808080"/>
<path d="M48.632 39.4371H50.1372V34.1179L51.7908 36.894H52.8508L54.5045 34.1179V39.4371H56.0097V32.0198H54.1335L52.3208 35.1351L50.5082 32.0198H48.632V39.4371ZM58.2396 39.4371H59.7448V32.0198H58.2396V39.4371ZM61.9779 39.4371H63.4831V34.0755L66.8009 39.4371H68.7302V32.0198H67.2249V37.3814L63.9071 32.0198H61.9779V39.4371ZM70.9644 39.4371H72.4696V32.0198H70.9644V39.4371ZM74.0348 38.4092C74.692 39.1933 75.5294 39.649 76.7803 39.649C78.1477 39.649 79.2289 38.8119 79.2501 37.4132C79.2501 34.8702 75.8792 35.2516 75.8792 33.9059C75.8792 33.4609 76.2291 33.1218 76.7591 33.1218C77.3209 33.1218 77.8085 33.4927 78.2431 34.0543L79.3455 33.0582C78.7095 32.3059 77.8615 31.8079 76.7485 31.8079C75.328 31.8079 74.3528 32.7828 74.3528 33.9589C74.3528 36.4702 77.7237 36.0993 77.7237 37.4662C77.7237 37.996 77.3633 38.3139 76.7697 38.3139C76.1655 38.3139 75.5718 37.9748 75.1266 37.4026L74.0348 38.4092ZM80.1724 33.3867H82.462V39.4371H83.9672V33.3867H86.2569V32.0198H80.1724V33.3867ZM89.2326 31.3841H90.6106L89.4128 29.9536H87.8651L89.2326 31.3841ZM87.7379 39.4371H92.063V38.1867H89.2432V36.2794H91.639V35.0291H89.2432V33.2702H92.063V32.0198H87.7379V39.4371ZM93.9711 39.4371H95.4763V36.4384H96.2501L98.2323 39.4371H100.003L97.6811 36.1523C98.4443 35.8026 98.8789 35.1351 98.8789 34.2344C98.8789 32.8569 97.8719 32.0198 96.2395 32.0198H93.9711V39.4371ZM96.3243 33.2702C96.9603 33.2702 97.3313 33.6516 97.3313 34.2132C97.3313 34.8172 96.9603 35.1881 96.3243 35.1881H95.4763V33.2702H96.3243ZM101.115 39.4371H105.44V38.1867H102.62V36.2794H105.016V35.0291H102.62V33.2702H105.44V32.0198H101.115V39.4371ZM48.632 50.5629H51.547C53.9002 50.5629 55.4903 48.8569 55.4903 46.8543C55.4903 44.8516 53.9002 43.1457 51.547 43.1457H48.632V50.5629ZM51.5682 44.5126C52.9462 44.5126 53.9426 45.5298 53.9426 46.8543C53.9426 48.1682 52.9462 49.196 51.5682 49.196H50.1372V44.5126H51.5682ZM57.1009 50.5629H61.4258V49.3126H58.6061V47.4053H61.0018V46.1549H58.6061V44.396H61.4258V43.1457H57.1009V50.5629ZM66.244 50.5629H70.5689V49.196H67.7492V43.1457H66.244V50.5629ZM71.657 46.1973L72.8867 43.1457H71.3602L70.4062 46.1973H71.657ZM74.2173 50.5629H75.7225V43.1457H74.2173V50.5629ZM77.9556 50.5629H79.4608V45.2013L82.7786 50.5629H84.7079V43.1457H83.2026V48.5073L79.8848 43.1457H77.9556V50.5629ZM86.1789 44.5126H88.4685V50.5629H89.9737V44.5126H92.2634V43.1457H86.1789V44.5126ZM96.5745 42.5099L97.9525 41.0794H96.4049L95.207 42.5099H96.5745ZM93.7442 50.5629H98.0691V49.3126H95.2494V47.4053H97.6451V46.1549H95.2494V44.396H98.0691V43.1457H93.7442V50.5629ZM99.9776 50.5629H101.483V47.5642H102.257L104.239 50.5629H106.009L103.688 47.2781C104.451 46.9284 104.886 46.2609 104.886 45.3602C104.886 43.9828 103.879 43.1457 102.246 43.1457H99.9776V50.5629ZM102.331 44.396C102.967 44.396 103.338 44.7775 103.338 45.339C103.338 45.943 102.967 46.3139 102.331 46.3139H101.483V44.396H102.331ZM107.121 50.5629H108.626V43.1457H107.121V50.5629ZM110.86 50.5629H115.185V49.3126H112.365V47.4053H114.761V46.1549H112.365V44.396H115.185V43.1457H110.86V50.5629ZM121.427 47.7867C121.427 48.7828 120.855 49.3655 119.932 49.3655C118.989 49.3655 118.427 48.7828 118.427 47.7867V43.1457H116.922V47.6596C116.922 49.6092 118.067 50.7748 119.922 50.7748C121.788 50.7748 122.932 49.6092 122.932 47.6596V43.1457H121.427V47.7867ZM124.961 50.5629H126.466V47.5642H127.24L129.222 50.5629H130.993L128.671 47.2781C129.434 46.9284 129.869 46.2609 129.869 45.3602C129.869 43.9828 128.862 43.1457 127.23 43.1457H124.961V50.5629ZM127.314 44.396C127.95 44.396 128.321 44.7775 128.321 45.339C128.321 45.943 127.95 46.3139 127.314 46.3139H126.466V44.396H127.314Z" fill="#1E1E1E"/>
<path fill-rule="evenodd" clip-rule="evenodd" d="M76.1395 69.4768L75.1537 70.3774H74.8993L75.4823 69.3496H76.1395V69.4768ZM75.4293 72.9629H75.2173C74.9523 73.2807 74.6555 73.535 74.3693 73.535C74.0725 73.535 73.924 73.3549 73.924 72.9629C73.924 72.8039 73.9452 72.6344 73.977 72.486L75.7049 71.9138C76.0441 71.1086 75.6413 70.7589 75.1643 70.7589C74.3481 70.7589 73.4152 72.1893 73.4152 73.3337C73.4152 73.8741 73.6696 74.1708 74.0724 74.1708C74.5389 74.1602 75.0265 73.7046 75.4293 72.9629ZM74.8357 71.2251C75.0689 71.2251 75.2703 71.4052 75.1643 71.8185L74.0937 72.1046C74.2633 71.596 74.5813 71.2251 74.8357 71.2251ZM71.4648 71.2463H72.0372L71.1256 73.747C71.0408 73.9589 71.1574 74.1708 71.38 74.1708C72.0266 74.1708 72.8004 73.6198 73.0972 72.8357H72.9382C72.705 73.1642 72.1962 73.5244 71.8146 73.588L72.652 71.2463H73.5106L73.6166 70.886H72.7792L73.0972 69.9854H72.7686L72.175 70.886L71.4648 70.9814V71.2463ZM70.6698 70.7695C70.7864 70.7695 70.9454 70.8966 70.8712 71.1297L69.843 73.6198C70.108 73.5774 70.3836 73.3231 70.5426 73.09H70.7122C70.4684 73.7152 69.9172 74.1708 69.4402 74.1708C69.3236 74.1708 69.154 74.0437 69.2388 73.8105L70.1928 71.3205C69.9278 71.3629 69.6522 71.6172 69.4932 71.8503H69.3342C69.578 71.2145 70.1716 70.7695 70.6698 70.7695ZM70.9666 70.1337C71.1786 70.1337 71.3588 69.9642 71.3588 69.7417C71.3588 69.5297 71.1786 69.3496 70.9666 69.3496C70.744 69.3496 70.5744 69.5297 70.5744 69.7417C70.5744 69.9536 70.7546 70.1337 70.9666 70.1337ZM66.3343 72.1999C66.5675 71.6913 66.4827 71.4582 66.3343 71.4582C66.2071 71.4582 66.0587 71.596 65.9103 71.8503H65.7513C65.9951 71.3099 66.3131 70.7695 66.6629 70.7695C66.9597 70.7695 67.0657 71.0662 67.0657 71.3946V71.8609C67.114 71.8047 67.1609 71.7496 67.2067 71.6961C67.6545 71.1705 67.9965 70.7695 68.3908 70.7695C68.6982 70.7695 68.8572 70.9602 68.8572 71.2463C68.8572 71.4158 68.8042 71.6278 68.6876 71.8503L67.8077 73.6198C68.0728 73.5774 68.3484 73.3231 68.5074 73.09H68.6664C68.4226 73.7258 67.8289 74.1708 67.3307 74.1708C67.1081 74.1708 66.9809 73.9377 67.0763 73.747L68.0939 71.7867C68.2106 71.5642 68.2318 71.4158 68.0515 71.4158C67.8077 71.4158 67.2353 71.8185 66.9279 72.1893L66.2601 73.9483C66.1859 74.1284 66.1117 74.1708 65.9421 74.1708C65.6665 74.1708 65.5287 73.9907 65.6559 73.7046L66.3343 72.1999ZM65.6453 71.5218C65.7619 71.1191 65.6983 70.7589 65.3909 70.7589C65.0075 70.7589 64.8875 71.0121 64.516 71.7952L64.4899 71.8503V71.384C64.4899 71.0556 64.3839 70.7589 64.0871 70.7589C63.7373 70.7589 63.4193 71.2993 63.1755 71.8397H63.3345C63.5041 71.596 63.6631 71.4476 63.7903 71.4476C63.9387 71.4476 64.0235 71.6807 63.7903 72.1893L63.1119 73.694C62.9847 73.9801 63.1225 74.1602 63.3981 74.1602C63.5677 74.1602 63.6419 74.1178 63.7161 73.9377L64.3839 72.1788C64.5747 71.9456 64.7443 71.7443 64.9563 71.5218H65.6453ZM62.2957 71.8185C62.4017 71.4052 62.2003 71.2251 61.967 71.2251C61.7126 71.2251 61.3946 71.596 61.225 72.1046L62.2957 71.8185ZM62.5607 72.9629H62.3487C62.0836 73.2807 61.7868 73.535 61.5006 73.535C61.2038 73.535 61.0554 73.3549 61.0554 72.9629C61.0554 72.8039 61.0766 72.6344 61.1084 72.486L62.8363 71.9138C63.1755 71.1086 62.7727 70.7589 62.2957 70.7589C61.4794 70.7589 60.5466 72.1893 60.5466 73.3337C60.5466 73.8741 60.801 74.1708 61.2038 74.1708C61.6702 74.1602 62.1578 73.7046 62.5607 72.9629ZM59.1686 71.2463H58.5962V70.9814L59.3064 70.886L59.9 69.9854H60.2286L59.9106 70.886H60.748L60.642 71.2463H59.7834L58.946 73.588C59.3276 73.5244 59.8364 73.1642 60.0696 72.8357H60.2286C59.9318 73.6198 59.158 74.1708 58.5114 74.1708C58.2888 74.1708 58.1722 73.9589 58.257 73.747L59.1686 71.2463ZM55.5645 73.1854C55.5645 72.4119 56.4232 71.3735 56.9002 71.3735C57.0062 71.3735 57.1122 71.384 57.197 71.4158L56.6988 72.7509C56.4126 73.1006 55.9673 73.5244 55.7553 73.5244C55.6387 73.5244 55.5645 73.4185 55.5645 73.1854ZM57.9284 70.5999L58.1934 70.6211L57.2712 72.7403C57.0486 73.2489 57.144 73.4821 57.2712 73.4821C57.3984 73.4821 57.5574 73.3337 57.727 73.09H57.886C57.6422 73.6304 57.3242 74.1708 56.9744 74.1708C56.6776 74.1708 56.4974 73.8529 56.5504 73.2807L56.5716 73.0794L56.5138 73.1599C56.1341 73.6908 55.7905 74.1708 55.4373 74.1708C55.1299 74.1708 54.9709 73.9801 54.9709 73.694C54.9709 72.4648 56.3171 70.8966 57.5786 70.8966H57.6316L57.9284 70.5999ZM55.5009 71.5218C55.6175 71.1191 55.5539 70.7589 55.2465 70.7589C54.8632 70.7589 54.7431 71.0121 54.3716 71.7952L54.3455 71.8503V71.384C54.3455 71.0556 54.2395 70.7589 53.9427 70.7589C53.5929 70.7589 53.2749 71.2993 53.0311 71.8397H53.1901C53.3597 71.596 53.5187 71.4476 53.6353 71.4476C53.7837 71.4476 53.8685 71.6807 53.6353 72.1893L52.9569 73.7046C52.8297 73.9907 52.9675 74.1708 53.2431 74.1708C53.4127 74.1708 53.4869 74.1284 53.5611 73.9483L54.2289 72.1893C54.4197 71.9562 54.5893 71.7549 54.8013 71.5324H55.5009V71.5218ZM51.1337 73.8529L51.0701 74.0437H48.6002L48.6638 73.8423C49.427 73.7046 49.5542 73.641 49.8722 72.7827L50.5613 70.939C50.8687 70.0807 50.8051 70.0172 50.1372 69.8794L50.2008 69.6887H53.4127L53.2219 70.7165H52.9887C52.9887 70.1019 52.9251 69.943 52.3421 69.943H52.1937C51.6213 69.943 51.5471 70.0278 51.3881 70.4728L50.9323 71.7125H51.6001C52.0453 71.7125 52.2149 71.437 52.4163 71.0768H52.6495L52.0983 72.5814H51.8651C51.9181 72.1258 51.9181 71.9456 51.5047 71.9456H50.8369L50.5295 72.7933C50.1971 73.6754 50.2921 73.6935 51.0834 73.8434C51.0998 73.8466 51.1166 73.8497 51.1337 73.8529Z" fill="black"/>
<path fill-rule="evenodd" clip-rule="evenodd" d="M53.2325 61.3708L52.2467 62.0807V62.0913H51.9923L52.5753 61.2437H53.2325V61.3708ZM60.1226 66.3403L61.702 62.1443L61.649 62.0807L60.5572 62.2079V62.335L60.7692 62.494C60.9502 62.6349 60.9023 62.7658 60.7521 63.1769L60.7268 63.2463L59.5184 66.4675C59.423 66.6582 59.5502 66.8913 59.7728 66.8913C60.271 66.8913 60.801 66.4357 61.0448 65.8105H60.8858C60.7162 66.0436 60.377 66.298 60.1226 66.3403ZM67.3625 63.1086L68.3484 62.2079V62.0807H67.6911L67.1081 63.1086H67.3625ZM67.4261 65.6834H67.6381C67.2459 66.4357 66.7583 66.8913 66.2919 66.8913C65.8891 66.8913 65.6347 66.5946 65.6347 66.0542C65.6347 64.9099 66.5675 63.4794 67.3837 63.4794C67.8501 63.4794 68.2636 63.8291 67.9243 64.6344L66.1859 65.2066C66.1541 65.3549 66.1329 65.5244 66.1329 65.6834C66.1329 66.0754 66.2813 66.2556 66.5781 66.2556C66.8643 66.2556 67.1611 66.0013 67.4261 65.6834ZM67.3731 64.539C67.4791 64.1364 67.2777 63.9562 67.0445 63.9562C66.8007 63.9562 66.4827 64.3271 66.3025 64.8251L67.3731 64.539ZM64.2567 63.9774H63.6843V63.7125L64.3945 63.6172L64.9881 62.7165H65.3167L64.9987 63.6172H65.8361L65.7301 63.9774H64.8715L64.0341 66.3191C64.4157 66.2556 64.9245 65.8953 65.1577 65.5668H65.3167C65.0199 66.3509 64.2461 66.9019 63.5995 66.9019C63.3769 66.9019 63.2603 66.69 63.3451 66.4781L64.2567 63.9774ZM63.0907 63.8503C63.1543 63.6172 63.0059 63.49 62.8787 63.49C62.3805 63.49 61.7868 63.9456 61.543 64.5708H61.702C61.861 64.3377 62.1367 64.0834 62.4017 64.041L61.4476 66.5311C61.3628 66.7642 61.5324 66.8913 61.649 66.8913C62.126 66.8913 62.6773 66.4357 62.9211 65.8105H62.7621C62.6031 66.0436 62.3275 66.298 62.0624 66.3403L63.0907 63.8503ZM63.5783 62.4728C63.5783 62.6847 63.3981 62.8648 63.1861 62.8648C62.9741 62.8648 62.7939 62.6847 62.7939 62.4728C62.7939 62.2609 62.9635 62.0807 63.1861 62.0807C63.3981 62.0807 63.5783 62.2609 63.5783 62.4728ZM58.2252 64.1046C57.7482 64.1046 56.8896 65.143 56.8896 65.9165C56.8896 66.1496 56.9638 66.2556 57.091 66.2556C57.2924 66.2556 57.7376 65.8317 58.0238 65.4821L58.522 64.147C58.4266 64.1152 58.3312 64.1046 58.2252 64.1046ZM59.5184 63.3523L59.2534 63.3311L58.9566 63.6278H58.9036C57.6422 63.6278 56.296 65.196 56.296 66.4251C56.296 66.7112 56.455 66.9019 56.7624 66.9019C57.1156 66.9019 57.4592 66.4219 57.8389 65.8911L57.8966 65.8105L57.8754 66.0119C57.8224 66.584 58.0026 66.9019 58.2994 66.9019C58.6492 66.9019 58.9672 66.3615 59.211 65.8211H59.052C58.8824 66.0648 58.7234 66.2132 58.5962 66.2132C58.469 66.2132 58.3736 65.9801 58.5962 65.4715L59.5184 63.3523ZM54.1759 66.7854C53.7201 66.9655 53.4021 67.1774 53.4021 67.5059C53.4021 67.8132 53.6883 67.9403 54.2819 67.9403C55.0769 67.9403 55.5115 67.7072 55.5115 67.3999C55.5115 67.2622 55.3313 67.1986 54.8543 67.0397C54.5469 66.9443 54.3243 66.8595 54.1759 66.7854ZM54.7059 65.4821C54.4939 65.4821 54.4197 65.3019 54.4197 65.1112C54.4197 64.4966 54.7165 63.7337 55.1935 63.7337C55.4055 63.7337 55.4797 63.9138 55.4797 64.1046C55.4691 64.7297 55.1723 65.4821 54.7059 65.4821ZM55.1087 66.4781C55.6917 66.6582 56.0521 66.796 56.0521 67.1986C56.0521 67.7178 55.0981 68.3324 53.9427 68.3218C53.2749 68.3218 52.7025 68.1417 52.7025 67.7072C52.7025 67.294 53.0841 66.9549 54.0169 66.6794C53.8897 66.5946 53.8367 66.4887 53.8367 66.3403C53.8367 66.086 54.0699 65.8847 54.4727 65.694C54.0805 65.641 53.8261 65.3443 53.8261 64.9099C53.8261 64.2423 54.3773 63.4794 55.2465 63.4794C55.4267 63.4794 55.5857 63.5218 55.7129 63.6066H56.667L56.561 63.9668H55.9991C56.0309 64.0622 56.0521 64.1682 56.0521 64.2847C56.0521 64.9311 55.5327 65.6728 54.7059 65.7152C54.4939 65.8317 54.3879 65.9907 54.3879 66.1178C54.3879 66.2672 54.5613 66.3181 54.9445 66.4299C54.9955 66.4447 55.0503 66.4606 55.1087 66.4781ZM51.7485 64.6662C52.1619 64.6662 52.1725 64.8463 52.1089 65.3019H52.3421L52.8933 63.7973H52.6601C52.4587 64.1576 52.2891 64.4331 51.8439 64.4331H50.9323L51.3775 63.1933C51.5365 62.7483 51.6107 62.6635 52.1831 62.6635H52.5859C53.1689 62.6635 53.2325 62.8225 53.2325 63.437H53.4657L53.6565 62.4092H50.2008L50.1372 62.5999C50.8051 62.7377 50.8687 62.8013 50.5613 63.6595L49.8722 65.5138C49.5542 66.3721 49.427 66.4357 48.6532 66.5735L48.6002 66.7748H52.4375L53.1265 65.6834H52.8615C52.4163 66.1178 51.9711 66.5205 51.1019 66.5205C50.1458 66.5205 50.1628 66.4738 50.4497 65.686C50.4681 65.6352 50.4877 65.5817 50.5083 65.5244L50.8263 64.6768H51.7485V64.6662Z" fill="black"/>
<path fill-rule="evenodd" clip-rule="evenodd" d="M54.9179 55.5854C55.1299 55.5854 55.3101 55.4052 55.3101 55.1933C55.3101 54.9814 55.1299 54.8013 54.9179 54.8013C54.6953 54.8013 54.5257 54.9814 54.5257 55.1933C54.5257 55.4158 54.6953 55.5854 54.9179 55.5854ZM55.8401 59.6119C56.667 59.6225 58.0556 58.0966 58.0556 56.9205C58.0556 56.4119 57.9284 56.2211 57.568 56.2211C57.1228 56.2211 56.7094 56.698 56.296 57.2701L57.1864 54.886L57.1334 54.8119L56.0415 54.939V55.0662L56.2536 55.2251C56.4382 55.3686 56.3846 55.5122 56.2274 55.9339L56.2112 55.9774L55.2465 58.4993C55.1617 58.7112 55.0663 58.9655 55.0663 59.0291C55.0663 59.3258 55.4691 59.6119 55.8401 59.6119ZM67.2459 55.8397L68.2318 54.939V54.8119H67.5745L66.9915 55.8397H67.2459ZM67.3095 58.4145H67.5215C67.1187 59.1668 66.6311 59.6225 66.1647 59.6119C65.7619 59.6119 65.5075 59.3258 65.5075 58.7854C65.5075 57.641 66.4403 56.2105 67.2565 56.2105C67.7229 56.2105 68.1364 56.5602 67.7971 57.3655L66.0693 57.9377C66.0375 58.086 66.0163 58.2556 66.0163 58.4145C66.0163 58.8066 66.1647 58.9867 66.4615 58.9867C66.7477 58.9867 67.0445 58.7324 67.3095 58.4145ZM67.2565 57.2701C67.3625 56.8675 67.1611 56.6874 66.9279 56.6874C66.6735 56.6874 66.3555 57.0582 66.1859 57.5562L67.2565 57.2701ZM64.1295 56.7086H63.5571V56.4437L64.2673 56.3483L64.8609 55.4476H65.1895L64.8715 56.3483H65.7089L65.6029 56.7086H64.7443L63.9069 59.0503C64.2885 58.9867 64.7973 58.6264 65.0305 58.298H65.1895C64.8927 59.0821 64.1189 59.6331 63.4723 59.6331C63.2497 59.6331 63.1331 59.4211 63.2179 59.2092L64.1295 56.7086ZM63.2603 56.9841C63.3769 56.5814 63.3133 56.2211 63.0059 56.2211C62.6225 56.2211 62.5025 56.4742 62.1309 57.2575L62.1049 57.3125V56.8463C62.1049 56.5178 61.9988 56.2211 61.702 56.2211C61.3522 56.2211 61.0342 56.7615 60.7904 57.3019H60.9494C61.119 57.0582 61.278 56.9099 61.3946 56.9099C61.543 56.9099 61.6278 57.143 61.3946 57.6516L60.7162 59.1562C60.589 59.4423 60.7268 59.6225 61.0024 59.6225C61.172 59.6225 61.2462 59.5801 61.3204 59.3999L61.9882 57.641C62.1791 57.4079 62.3487 57.2066 62.5607 56.9841H63.2603ZM59.9 57.2701C60.006 56.8675 59.8046 56.6874 59.5714 56.6874C59.317 56.6874 59.0096 57.0582 58.8294 57.5562L59.9 57.2701ZM60.165 58.4145H59.953C59.688 58.7324 59.3912 58.9867 59.105 58.9867C58.8082 58.9867 58.6598 58.8066 58.6598 58.4145C58.6598 58.2556 58.681 58.086 58.7128 57.9377L60.4406 57.3655C60.7798 56.5602 60.377 56.2105 59.9 56.2105C59.0838 56.2105 58.151 57.641 58.151 58.7854C58.151 59.3258 58.4054 59.6119 58.8082 59.6119C59.2746 59.6225 59.7622 59.1668 60.165 58.4145ZM55.7129 58.8172C55.7129 58.9549 55.9567 59.1139 56.1263 59.1139C56.8154 59.1139 57.462 57.8741 57.4514 57.1854C57.4514 56.9523 57.3348 56.8569 57.1758 56.8569C56.9214 56.8569 56.455 57.2384 56.1581 57.5986L55.8825 58.3403C55.7871 58.5841 55.7129 58.7748 55.7129 58.8172ZM54.5999 56.2211C54.7271 56.2211 54.8755 56.3483 54.8119 56.5814L53.7943 59.0715C54.0593 59.0291 54.3349 58.7748 54.4939 58.5417H54.6529C54.4091 59.1668 53.8579 59.6225 53.3809 59.6225C53.2537 59.6225 53.0841 59.4953 53.1689 59.2622L54.1229 56.7721C53.8579 56.8145 53.5823 57.0688 53.4233 57.3019H53.2643C53.5081 56.6768 54.1017 56.2211 54.5999 56.2211ZM50.2008 55.1191H52.4799L52.4163 55.3205C51.6425 55.4582 51.5153 55.5218 51.1973 56.3801L50.5189 58.245C50.1902 59.135 50.275 59.241 50.8581 59.241C51.5783 59.241 52.0507 58.7176 52.4631 58.2609C52.4937 58.227 52.524 58.1931 52.5541 58.1602H52.8191L52.0665 59.4953H48.6002L48.6638 59.3046C49.427 59.1668 49.5542 59.1033 49.8722 58.245L50.5613 56.3695C50.8687 55.5112 50.8051 55.4476 50.1372 55.3099L50.2008 55.1191Z" fill="black"/>
</g>
<defs>
<clipPath id="clip0_603_4262">
<rect width="104.942" height="80" fill="white" transform="translate(38 5)"/>
</clipPath>
</defs>
</svg>
