<svg width="40" height="40" viewBox="0 0 40 40" fill="none" xmlns="http://www.w3.org/2000/svg">
<g id="Phone">
<path id="Vector" d="M34.6235 25.0467L27.2422 21.7389C26.9078 21.5956 26.5429 21.538 26.1806 21.5713C25.8182 21.6046 25.4699 21.7277 25.1672 21.9295C25.1365 21.9493 25.1072 21.9712 25.0797 21.9952L21.2219 25.2764C21.1819 25.2982 21.1373 25.3104 21.0917 25.3121C21.0462 25.3137 21.0009 25.3047 20.9594 25.2858C18.4797 24.0889 15.911 21.5358 14.7094 19.0905C14.6894 19.0496 14.679 19.0047 14.679 18.9592C14.679 18.9137 14.6894 18.8688 14.7094 18.828L18.0016 14.9217C18.0252 14.8928 18.0471 14.8626 18.0672 14.8311C18.2662 14.5272 18.3865 14.1785 18.417 13.8165C18.4476 13.4545 18.3875 13.0906 18.2422 12.7577L14.9578 5.38891C14.7713 4.95392 14.4487 4.59116 14.0385 4.35507C13.6284 4.11898 13.1526 4.0223 12.6828 4.07953C10.641 4.34796 8.76676 5.35069 7.41037 6.90031C6.05397 8.44994 5.30824 10.4404 5.31252 12.4998C5.31252 24.7342 15.2656 34.6873 27.5 34.6873C29.5593 34.6913 31.5496 33.9454 33.0992 32.5891C34.6488 31.2328 35.6516 29.3587 35.9203 27.317C35.9774 26.8494 35.8821 26.3759 35.6484 25.9668C35.4147 25.5577 35.0553 25.235 34.6235 25.0467ZM27.5 32.8123C16.3 32.8123 7.18752 23.6998 7.18752 12.4998C7.18229 10.8966 7.76096 9.34631 8.8154 8.13861C9.86984 6.93091 11.3279 6.14842 12.9172 5.93735H12.9531C13.0161 5.93852 13.0773 5.95869 13.1286 5.99522C13.1799 6.03174 13.2189 6.08292 13.2406 6.14203L16.5375 13.503C16.5563 13.5439 16.5661 13.5884 16.5661 13.6334C16.5661 13.6785 16.5563 13.723 16.5375 13.7639L13.2391 17.6795C13.2145 17.7075 13.192 17.7373 13.1719 17.7686C12.9655 18.0837 12.844 18.4467 12.819 18.8226C12.7941 19.1984 12.8667 19.5743 13.0297 19.9139C14.4156 22.7514 17.275 25.5889 20.1438 26.9748C20.4853 27.137 20.8631 27.2078 21.2401 27.1804C21.6172 27.153 21.9808 27.0283 22.2953 26.8186C22.325 26.7983 22.3547 26.7764 22.3828 26.753L26.2391 23.4717C26.2772 23.4513 26.3192 23.4393 26.3624 23.4366C26.4055 23.4339 26.4487 23.4405 26.4891 23.4561L33.8719 26.7639C33.9322 26.7896 33.9829 26.8336 34.0168 26.8897C34.0508 26.9457 34.0662 27.0111 34.061 27.0764C33.851 28.6664 33.0692 30.1256 31.8618 31.1812C30.6543 32.2368 29.1038 32.8167 27.5 32.8123Z" fill="#303030"/>
</g>
</svg>
