<svg width="180" height="90" viewBox="0 0 180 90" fill="none" xmlns="http://www.w3.org/2000/svg">
<g clip-path="url(#clip0_603_4257)">
<path d="M81.5461 0L64.4897 32.0916L81.5461 64.183H86.2655L103.507 32.0916L92.5224 11.4231L90.0417 16.0903L98.5464 32.0916L83.8776 59.6904L69.2091 32.0916L86.2655 0H81.5461ZM91.3192 0L74.0771 32.0916L85.0623 52.7601L87.5429 48.0929L79.0383 32.0916L93.707 4.49281L108.376 32.0916L91.3189 64.183H96.0386L113.095 32.0916L96.0386 0H91.3192Z" fill="black"/>
<path fill-rule="evenodd" clip-rule="evenodd" d="M55.2855 76.9551V89.7563H66.3223V87.1753H58.5665V84.583H65.3606V82.0362H58.5665V79.5019H66.1621V76.9551H55.2855Z" fill="black"/>
<path fill-rule="evenodd" clip-rule="evenodd" d="M39 76.9551V89.7563H42.281V85.7471H46.2307L48.5216 89.7563H52.3055L49.5579 85.0473C50.8921 84.3031 51.8527 82.9476 51.8527 81.2799C51.8527 77.8558 49.2839 76.9551 47.1968 76.9551H39ZM42.281 79.5019H46.9342C47.535 79.5019 48.2036 79.9739 48.2036 81.4329C48.2036 81.9276 48.0607 83.2002 46.9342 83.2002H42.281V79.5019Z" fill="black"/>
<path d="M69.3029 76.9551V89.7563H72.5839V81.5105L79.8373 89.7563H83.1183V76.9551H79.8373V85.1336L72.5839 76.9551H69.3029Z" fill="black"/>
<path d="M90.5703 76.9551L84.9874 89.7563H88.7496L89.6009 87.5768H95.9822L96.8335 89.7563H100.596L95.0127 76.9551H90.5703ZM92.7915 79.4074L94.9875 85.0299H90.5956L92.7915 79.4074Z" fill="black"/>
<path d="M118.746 76.9551V89.7563H129.257V87.1753H122.027V76.9551H118.746Z" fill="black"/>
<path d="M127.649 76.9551V79.5019H132.58V89.7563H135.861V79.5019H140.792V76.9551H127.649Z" fill="black"/>
<path d="M102.136 76.9551V85.6064C102.136 89.2316 105.776 89.9999 108.662 89.9999C111.548 89.9999 115.188 89.2316 115.188 85.6064V76.9551H111.907V85.4445C111.907 86.7625 109.934 87.2051 108.662 87.2051C107.39 87.2051 105.417 86.7625 105.417 85.4445V76.9551H102.136Z" fill="black"/>
</g>
<defs>
<clipPath id="clip0_603_4257">
<rect width="101.792" height="90" fill="white" transform="translate(39)"/>
</clipPath>
</defs>
</svg>
