<svg width="180" height="90" viewBox="0 0 180 90" fill="none" xmlns="http://www.w3.org/2000/svg">
<path d="M123.217 39.7191C123.385 39.7039 123.507 39.5667 123.492 39.399C123.477 39.2313 123.339 39.1093 123.172 39.1245C123.004 39.1398 122.882 39.277 122.897 39.4447C122.912 39.5972 123.065 39.7191 123.217 39.7191ZM104.356 30.0987C104.356 30.5713 104.737 30.9677 105.225 30.9677C105.713 30.9677 106.094 30.5866 106.094 30.0987C106.094 29.6261 105.713 29.2297 105.225 29.2297C104.752 29.2297 104.356 29.6261 104.356 30.0987ZM109.845 31.9588C109.845 32.4314 110.226 32.8278 110.714 32.8278C111.187 32.8278 111.583 32.4466 111.583 31.9588C111.583 31.4861 111.202 31.0897 110.714 31.0897C110.241 31.0897 109.845 31.4709 109.845 31.9588C109.845 31.9435 109.845 31.9435 109.845 31.9588ZM89.1995 54.5386C89.1995 55.0112 89.5807 55.4076 90.0686 55.4076C90.5413 55.4076 90.9377 55.0264 90.9377 54.5386C90.9377 54.0659 90.5565 53.6695 90.0686 53.6695C89.5959 53.6848 89.2147 54.0659 89.1995 54.5386ZM93.4689 58.1214C93.4689 58.5941 93.8501 58.9905 94.338 58.9905C94.8107 58.9905 95.2071 58.6093 95.2071 58.1214C95.2071 57.6488 94.8259 57.2524 94.338 57.2524C93.8653 57.2677 93.4689 57.6488 93.4689 58.1214ZM98.8971 59.7985C98.8971 60.2712 99.2783 60.6676 99.7662 60.6676C100.239 60.6676 100.635 60.2864 100.635 59.7985C100.635 59.3259 100.254 58.9295 99.7662 58.9295C99.2935 58.9295 98.9123 59.3107 98.8971 59.7985ZM104.478 59.7376C104.493 60.2102 104.889 60.5914 105.362 60.5761C105.835 60.5609 106.216 60.1645 106.201 59.6918C106.186 59.2192 105.804 58.8533 105.347 58.8533C104.874 58.8533 104.478 59.2344 104.478 59.7071C104.478 59.7071 104.478 59.7223 104.478 59.7376ZM109.845 58.03C109.845 58.5026 110.241 58.899 110.729 58.8838C111.202 58.8838 111.598 58.4874 111.583 57.9995C111.583 57.5268 111.202 57.1457 110.729 57.1457C110.257 57.1457 109.86 57.5268 109.86 57.9995C109.86 58.0147 109.86 58.0147 109.845 58.03ZM114.114 54.5996C114.114 55.0722 114.496 55.4686 114.983 55.4686C115.456 55.4686 115.853 55.0874 115.853 54.5996C115.853 54.1117 115.471 53.7305 114.983 53.7305C114.511 53.7153 114.13 54.1117 114.114 54.5996C114.114 54.5843 114.114 54.5843 114.114 54.5996ZM114.069 35.3739C114.069 35.8466 114.465 36.2277 114.938 36.2277C115.41 36.2277 115.792 35.8313 115.792 35.3587C115.792 34.886 115.41 34.5049 114.922 34.5049C114.45 34.5049 114.069 34.9013 114.069 35.3739ZM108 33.087C108 32.4771 107.497 31.9892 106.887 31.9892C106.277 31.9892 105.789 32.4924 105.789 33.1022C105.789 33.7121 106.277 34.2 106.887 34.2C107.512 34.2 108 33.6968 108 33.087ZM111.705 35.3739C111.705 34.7641 111.202 34.2762 110.592 34.2762C109.982 34.2762 109.494 34.7793 109.494 35.3892C109.494 35.999 109.982 36.4869 110.592 36.4869C111.217 36.4717 111.705 35.9838 111.705 35.3739ZM114.602 38.6214C114.602 38.0115 114.114 37.5084 113.489 37.5084C112.879 37.5084 112.376 37.9963 112.376 38.6214C112.376 39.2465 112.864 39.7344 113.489 39.7344C114.099 39.7344 114.587 39.2465 114.602 38.6214C114.602 38.6366 114.602 38.6366 114.602 38.6214ZM106.673 26.2414C106.689 26.0737 106.567 25.9365 106.414 25.9212C106.247 25.906 106.109 26.0279 106.094 26.1956C106.079 26.3634 106.201 26.5006 106.368 26.5158C106.521 26.5311 106.658 26.4091 106.673 26.2414C106.673 26.2566 106.673 26.2566 106.673 26.2414ZM114.053 28.9247C114.069 28.7723 113.947 28.6198 113.794 28.6046C113.626 28.6046 113.504 28.7418 113.504 28.9095C113.504 29.0467 113.611 29.1687 113.748 29.1992C113.901 29.2144 114.053 29.0924 114.053 28.9247ZM119.863 33.087C119.878 32.9193 119.756 32.7821 119.588 32.7668C119.436 32.7516 119.283 32.8735 119.268 33.026C119.238 33.1937 119.344 33.3462 119.497 33.3767C119.665 33.4072 119.817 33.3004 119.848 33.1327C119.863 33.1175 119.863 33.1022 119.863 33.087ZM109.814 29.2449C109.83 28.94 109.586 28.6655 109.281 28.6503C108.976 28.6351 108.701 28.879 108.686 29.1839C108.671 29.4888 108.9 29.748 109.205 29.7785C109.51 29.809 109.784 29.5803 109.814 29.2754C109.814 29.2602 109.814 29.2449 109.814 29.2449ZM115.456 32.0502C115.487 31.7453 115.258 31.4709 114.953 31.4404H114.938C114.633 31.3946 114.343 31.5928 114.297 31.8978C114.252 32.2027 114.45 32.4924 114.755 32.5381C114.77 32.5381 114.785 32.5381 114.801 32.5381H114.846C115.151 32.5686 115.426 32.3399 115.441 32.035C115.441 32.0197 115.441 32.0197 115.441 32.0045M119.283 36.0448C118.978 36.0295 118.704 36.2735 118.689 36.5784C118.673 36.8833 118.917 37.1578 119.222 37.173C119.527 37.1882 119.787 36.9595 119.817 36.6546C119.848 36.3497 119.619 36.0753 119.314 36.0448C119.299 36.0448 119.283 36.0448 119.283 36.0448ZM102.496 27.6898C102.175 27.6898 101.931 27.9337 101.931 28.2539C101.931 28.5741 102.175 28.818 102.496 28.818C102.816 28.818 103.06 28.5741 103.06 28.2539C103.06 27.9642 102.816 27.705 102.496 27.6898C102.496 27.705 102.496 27.705 102.496 27.6898ZM99.7662 29.2449C99.2935 29.2449 98.8971 29.6261 98.8971 30.1139C98.8971 30.5866 99.2783 30.983 99.7662 30.983C100.239 30.983 100.635 30.6018 100.635 30.1139C100.62 29.6413 100.239 29.2602 99.7662 29.2449ZM94.277 31.0897C93.8043 31.0897 93.4079 31.4709 93.4079 31.9588C93.4079 32.4314 93.7891 32.8278 94.277 32.8278C94.7497 32.8278 95.1461 32.4466 95.1461 31.9588C95.1461 31.4861 94.7649 31.0897 94.277 31.0897ZM86.2567 44.1406C85.784 44.1406 85.3876 44.5217 85.3876 45.0096C85.3876 45.4822 85.7687 45.8786 86.2567 45.8786C86.7294 45.8786 87.1258 45.4975 87.1258 45.0096C87.1258 44.5522 86.7446 44.1558 86.2567 44.1406ZM87.324 39.0635C86.8513 39.0635 86.4549 39.4447 86.4549 39.9326C86.4549 40.4052 86.8361 40.8016 87.324 40.8016C87.7967 40.8016 88.1931 40.4205 88.1931 39.9326C88.2084 39.4599 87.8272 39.0635 87.3545 39.0483M90.1144 34.5049C89.6417 34.5049 89.2452 34.886 89.2452 35.3739C89.2452 35.8466 89.6264 36.243 90.1144 36.243C90.587 36.243 90.9835 35.8618 90.9835 35.3739C90.9682 34.9013 90.587 34.5201 90.1144 34.5049ZM102.496 58.6856C103.105 58.6856 103.609 58.1977 103.609 57.5878C103.609 56.978 103.121 56.4748 102.511 56.4748C101.901 56.4748 101.398 56.9627 101.398 57.5726C101.398 58.1824 101.886 58.6703 102.496 58.6856ZM102.496 33.5444C103.105 33.5444 103.609 33.0565 103.609 32.4466C103.609 31.8368 103.121 31.3337 102.511 31.3337C101.901 31.3337 101.398 31.8215 101.398 32.4314C101.398 33.0412 101.886 33.5291 102.496 33.5444ZM98.1042 34.1847C98.7141 34.1847 99.2173 33.6968 99.2173 33.087C99.2173 32.4771 98.7294 31.974 98.1194 31.974C97.5095 31.974 97.0064 32.4619 97.0064 33.0717C96.9911 33.6816 97.479 34.1847 98.1042 34.1847C98.089 34.1847 98.089 34.1847 98.1042 34.1847ZM94.3837 36.4564C94.9937 36.4564 95.4968 35.9685 95.4968 35.3587C95.4968 34.7488 95.0089 34.2457 94.399 34.2457C93.7891 34.2457 93.2859 34.7336 93.2859 35.3434C93.2859 35.9533 93.7738 36.4564 94.3837 36.4564ZM91.4562 39.7344C92.0661 39.7649 92.5845 39.2922 92.615 38.6824C92.6455 38.0725 92.1728 37.5542 91.5629 37.5237C90.953 37.4932 90.4346 37.9658 90.4041 38.5757V38.5909C90.4041 39.2008 90.892 39.6886 91.5019 39.7039M90.2973 43.8204C90.9072 43.8204 91.4104 43.3325 91.4104 42.7227C91.4104 42.1128 90.9225 41.6097 90.3126 41.6097C89.7027 41.6097 89.1995 42.0976 89.1995 42.7074C89.1995 43.3173 89.6874 43.8051 90.2973 43.8204ZM98.6379 26.5158C98.8056 26.5006 98.9276 26.3634 98.9123 26.1956C98.8971 26.0279 98.7598 25.906 98.5921 25.9212C98.4244 25.9365 98.3177 26.0737 98.3329 26.2414C98.3329 26.2414 98.3329 26.2414 98.3329 26.2566C98.3329 26.4091 98.4701 26.5311 98.6379 26.5158C98.6226 26.5158 98.6226 26.5158 98.6379 26.5158ZM91.2579 29.1992C91.4257 29.1839 91.5324 29.0467 91.5324 28.8942C91.5172 28.7265 91.3799 28.6046 91.2122 28.6198C91.0445 28.6351 90.9377 28.7723 90.9377 28.9247C90.953 29.0924 91.0902 29.1992 91.2579 29.1992ZM123.217 52.3278C123.385 52.3278 123.507 52.1906 123.507 52.0382C123.507 51.8705 123.37 51.7485 123.217 51.7485H123.156C122.989 51.7637 122.882 51.9009 122.882 52.0534C122.897 52.2211 123.034 52.3431 123.202 52.3278M119.665 57.2372C119.832 57.2219 119.939 57.0695 119.939 56.917C119.924 56.7493 119.787 56.6273 119.619 56.6426C119.451 56.6578 119.329 56.795 119.344 56.9627C119.36 57.1304 119.497 57.2524 119.665 57.2372ZM113.779 61.3842C113.947 61.3689 114.053 61.2317 114.053 61.0792C114.053 60.9115 113.916 60.7896 113.764 60.7743C113.596 60.7743 113.474 60.9115 113.459 61.064C113.459 61.0792 113.459 61.1097 113.459 61.125C113.474 61.2927 113.611 61.4147 113.779 61.3842C113.779 61.3994 113.779 61.3994 113.779 61.3842ZM106.414 64.037C106.582 64.0218 106.704 63.8846 106.689 63.7169C106.673 63.5491 106.536 63.4272 106.368 63.4424C106.201 63.4577 106.079 63.5949 106.094 63.7626C106.109 63.9303 106.247 64.0523 106.414 64.037ZM98.6379 64.037C98.8056 64.0218 98.9276 63.8846 98.9123 63.7169C98.8971 63.5491 98.7598 63.4272 98.5921 63.4424C98.4244 63.4577 98.3024 63.5949 98.3177 63.7626C98.3329 63.9303 98.4701 64.0523 98.6379 64.037ZM91.2579 61.3537C91.4257 61.3384 91.5324 61.2012 91.5324 61.0487C91.5172 60.881 91.3799 60.7591 91.2122 60.7743C91.0445 60.7896 90.9377 60.9268 90.9377 61.0792C90.953 61.2469 91.0902 61.3689 91.2579 61.3537ZM85.4333 57.1914C85.601 57.1762 85.723 57.039 85.7077 56.8713C85.6925 56.7035 85.5553 56.5816 85.3876 56.5968C85.2198 56.6121 85.0978 56.7493 85.1131 56.917C85.1283 57.0847 85.2656 57.2067 85.4333 57.1914ZM81.7891 52.3278C81.9568 52.3278 82.0788 52.1906 82.0788 52.0382C82.0788 51.8705 81.9416 51.7485 81.7891 51.7485H81.7281C81.5604 51.779 81.4689 51.9314 81.4994 52.0992C81.5299 52.2364 81.6366 52.3431 81.7891 52.3431M85.4638 33.3309C85.6315 33.3157 85.7535 33.1785 85.7383 33.0107C85.723 32.843 85.5858 32.7211 85.4181 32.7363C85.2503 32.7516 85.1283 32.8888 85.1436 33.0565C85.1588 33.2242 85.2961 33.3462 85.4638 33.3309ZM95.7713 29.7175C96.0762 29.6718 96.2897 29.3974 96.2592 29.0924C96.2135 28.8028 95.9695 28.5893 95.6798 28.6046C95.3748 28.6503 95.1614 28.9247 95.2071 29.2297C95.2529 29.5041 95.4816 29.7175 95.756 29.7175M90.1144 32.5381C90.4041 32.5229 90.6328 32.2789 90.6175 31.9892C90.6023 31.6996 90.3583 31.4709 90.0686 31.4861C89.7789 31.5014 89.5502 31.7453 89.5655 32.035C89.5807 32.3094 89.7942 32.5229 90.0686 32.5381H90.1144ZM85.1588 36.6394C85.1588 36.9291 85.4028 37.173 85.6925 37.173H85.7687C86.0737 37.173 86.3329 36.9138 86.3177 36.6089C86.3177 36.304 86.0585 36.0448 85.7535 36.06C85.7383 36.06 85.7078 36.06 85.6925 36.06C85.3723 36.0753 85.1283 36.3344 85.1588 36.6394ZM121.494 47.3118C121.189 47.3423 120.961 47.6167 120.976 47.9217C121.006 48.2266 121.281 48.4553 121.586 48.44C121.891 48.4095 122.119 48.1351 122.104 47.8302C122.074 47.51 121.799 47.2813 121.494 47.3118ZM119.314 52.7547C119.009 52.8005 118.795 53.0749 118.826 53.3798C118.856 53.6695 119.116 53.883 119.405 53.8677C119.71 53.822 119.924 53.5476 119.878 53.2426C119.832 52.9682 119.604 52.7547 119.329 52.7547M114.983 57.3896C114.679 57.3896 114.419 57.6488 114.435 57.9537C114.435 58.2587 114.694 58.5179 114.999 58.5026C115.014 58.5026 115.044 58.5026 115.06 58.5026C115.365 58.4874 115.609 58.2282 115.593 57.908C115.593 57.6183 115.349 57.3744 115.06 57.3744H114.983M109.22 60.2102C108.915 60.2254 108.671 60.4846 108.686 60.8048C108.701 61.1097 108.961 61.3537 109.266 61.3384C109.571 61.3232 109.814 61.064 109.799 60.7591C109.799 60.7591 109.799 60.7286 109.799 60.7133C109.784 60.4084 109.525 60.1645 109.22 60.1797M102.435 61.125C102.13 61.1402 101.886 61.3994 101.901 61.7043C101.916 62.0093 102.175 62.2532 102.48 62.238H102.526C102.831 62.1922 103.044 61.9178 103.014 61.6129C102.968 61.3232 102.724 61.125 102.435 61.125ZM95.9238 60.3779C95.6188 60.4084 95.3901 60.6828 95.4206 60.9878C95.4511 61.2927 95.7255 61.5214 96.0305 61.4909C96.3355 61.4604 96.5642 61.2012 96.5489 60.8963C96.5337 60.5914 96.2745 60.3474 95.9543 60.3627C95.939 60.3779 95.939 60.3779 95.9238 60.3779ZM90.0534 57.4201C89.7484 57.4354 89.5044 57.6946 89.5197 57.9995C89.5349 58.3044 89.7942 58.5483 90.0991 58.5331H90.1449C90.4498 58.4874 90.6633 58.2129 90.6328 57.908C90.587 57.6183 90.3431 57.4049 90.0534 57.4201ZM85.6773 52.7852C85.3723 52.831 85.1588 53.1054 85.1893 53.4103C85.2198 53.7 85.479 53.9135 85.7687 53.8982C86.0737 53.8525 86.2872 53.578 86.2414 53.2731C86.1957 52.9987 85.967 52.7852 85.6925 52.7852M83.2681 42.0366C82.9632 42.0823 82.7497 42.3567 82.7802 42.6617C82.8107 42.9514 83.0699 43.1648 83.3596 43.1496C83.6646 43.1038 83.878 42.8294 83.8323 42.5245C83.7865 42.25 83.5578 42.0366 83.2834 42.0366M99.2478 56.856C99.2478 56.2461 98.7598 55.7583 98.1499 55.7583C97.54 55.7583 97.0521 56.2461 97.0521 56.856C97.0521 57.4659 97.54 57.9537 98.1499 57.9537C98.7446 57.9537 99.2478 57.4659 99.2478 56.856ZM106.841 55.743C106.231 55.743 105.728 56.2309 105.728 56.8408C105.728 57.4506 106.216 57.9537 106.826 57.9537C107.436 57.9537 107.939 57.4659 107.939 56.856C107.954 56.2461 107.466 55.7583 106.841 55.743C106.856 55.7583 106.856 55.7583 106.841 55.743ZM110.623 53.5628C110.013 53.5476 109.51 54.0354 109.494 54.6453C109.479 55.2551 109.967 55.7583 110.577 55.7735C111.187 55.7888 111.69 55.3009 111.705 54.691V54.6758C111.72 54.0659 111.217 53.5628 110.607 53.5476C110.592 53.5476 110.592 53.5476 110.577 53.5476M114.587 51.3368C114.587 50.727 114.084 50.2391 113.474 50.2391C112.864 50.2391 112.376 50.7422 112.376 51.3521C112.376 51.9619 112.864 52.4498 113.474 52.4498C114.084 52.4346 114.587 51.9467 114.587 51.3368ZM94.4142 53.5018C93.8043 53.5018 93.3012 53.9897 93.3012 54.5996C93.3012 55.2094 93.7891 55.7125 94.399 55.7125C95.0089 55.7125 95.5121 55.2246 95.5121 54.6148C95.5121 54.0049 95.0241 53.5171 94.4142 53.5018ZM91.5019 50.2391C90.892 50.2391 90.3888 50.727 90.3888 51.3368C90.3888 51.9467 90.8767 52.4498 91.4867 52.4498C92.0966 52.4498 92.5997 51.9619 92.5997 51.3521V51.3368C92.5997 50.727 92.0966 50.2239 91.5019 50.2391ZM135.705 40.7406H142.536V49.8427H144.93V40.7406H151.151L151.731 39.155H136.285L135.705 40.7406ZM80.371 39.155H77.9771V49.8427H88.9098L89.5044 48.2571H80.371V39.155ZM102.663 39.155L108.442 49.736H111.004L105.225 39.1855L102.663 39.155ZM93.9263 49.736H96.4879L102.267 39.1855H99.7052L93.9263 49.736ZM128.402 47.0984L118.338 39.2008H115.929V49.7512H118.323V41.8079L128.386 49.7512H130.78V39.1855H128.386L128.402 47.0984ZM176.874 43.6679H169.525C168.793 43.7289 168.137 43.1953 168.076 42.4635C168.076 42.4177 168.076 42.3872 168.076 42.3415V42.0518C168.092 41.32 168.686 40.7559 169.403 40.7559C169.403 40.7559 169.403 40.7559 169.418 40.7559H179.421L180 39.1703H168.793C166.78 39.1703 165.743 40.5272 165.728 41.8841V42.5854C165.728 43.9576 166.78 45.3755 168.854 45.3755H176.203C176.935 45.3145 177.591 45.8482 177.652 46.58C177.652 46.6105 177.652 46.641 177.652 46.6867V46.9764C177.637 47.7082 177.042 48.2876 176.31 48.2723H166.307L165.728 49.8579H176.935C178.948 49.8579 179.985 48.501 180 47.1441V46.4428C180 45.0706 178.948 43.6527 176.874 43.6527M11.1614 43.6527H3.7967C3.0648 43.7137 2.40915 43.18 2.34816 42.4482C2.34816 42.4177 2.34816 42.3872 2.34816 42.3415V42.0518C2.36341 41.32 2.95807 40.7559 3.67471 40.7559H13.6925L14.3024 39.1703H3.0648C1.0521 39.216 0.0152478 40.5577 0 41.9146V42.6159C0 43.9881 1.0521 45.406 3.12579 45.406H10.4752C11.2071 45.345 11.8628 45.8786 11.9238 46.6105C11.9238 46.641 11.9238 46.6715 11.9238 46.7172V47.0069C11.9085 47.7387 11.3139 48.3181 10.582 48.3028H0.579416L0 49.8732H11.2071C13.2198 49.8732 14.2567 48.5163 14.2719 47.1593V46.4275C14.2719 45.0553 13.2198 43.6374 11.1461 43.6374M156.793 49.736H159.187V39.1855H156.793V49.736ZM19.5019 40.7406H26.3177V49.8427H28.7116V40.7406H34.9327L35.5121 39.155H20.0813L19.5019 40.7406ZM52.3151 40.7406L52.8945 39.155H40.7573V49.8427H52.3304L52.9098 48.2571H43.1665V45.2536H49.9822L50.5616 43.6984H43.1512V40.7406H52.3151ZM62.5159 48.2723H71.6493L71.0546 49.8579H60.122V39.1855H62.5159V48.2723Z" fill="#243882"/>
</svg>
