<svg width="40" height="40" viewBox="0 0 40 40" fill="none" xmlns="http://www.w3.org/2000/svg">
<g id="Tram">
<path id="Vector" d="M28.75 7.8125H20.9375V3.4375H26.25C26.4986 3.4375 26.7371 3.33873 26.9129 3.16291C27.0887 2.9871 27.1875 2.74864 27.1875 2.5C27.1875 2.25136 27.0887 2.0129 26.9129 1.83709C26.7371 1.66127 26.4986 1.5625 26.25 1.5625H13.75C13.5014 1.5625 13.2629 1.66127 13.0871 1.83709C12.9113 2.0129 12.8125 2.25136 12.8125 2.5C12.8125 2.74864 12.9113 2.9871 13.0871 3.16291C13.2629 3.33873 13.5014 3.4375 13.75 3.4375H19.0625V7.8125H11.25C10.0068 7.8125 8.81451 8.30636 7.93544 9.18544C7.05636 10.0645 6.5625 11.2568 6.5625 12.5V28.75C6.5625 29.9932 7.05636 31.1855 7.93544 32.0646C8.81451 32.9436 10.0068 33.4375 11.25 33.4375H13.125L10.5 36.9375C10.4261 37.036 10.3724 37.1481 10.3418 37.2673C10.3113 37.3866 10.3045 37.5107 10.3219 37.6326C10.3393 37.7545 10.3806 37.8717 10.4433 37.9777C10.506 38.0836 10.589 38.1761 10.6875 38.25C10.786 38.3239 10.8981 38.3776 11.0173 38.4082C11.1366 38.4387 11.2607 38.4455 11.3826 38.4281C11.5045 38.4107 11.6217 38.3694 11.7277 38.3067C11.8336 38.244 11.9261 38.161 12 38.0625L15.4688 33.4375H24.5312L28 38.0625C28.1492 38.2614 28.3713 38.3929 28.6174 38.4281C28.8636 38.4632 29.1136 38.3992 29.3125 38.25C29.5114 38.1008 29.6429 37.8787 29.6781 37.6326C29.7132 37.3864 29.6492 37.1364 29.5 36.9375L26.875 33.4375H28.75C29.9932 33.4375 31.1855 32.9436 32.0646 32.0646C32.9436 31.1855 33.4375 29.9932 33.4375 28.75V12.5C33.4375 11.2568 32.9436 10.0645 32.0646 9.18544C31.1855 8.30636 29.9932 7.8125 28.75 7.8125ZM11.25 9.6875H28.75C29.4959 9.6875 30.2113 9.98382 30.7387 10.5113C31.2662 11.0387 31.5625 11.7541 31.5625 12.5V19.0625H8.4375V12.5C8.4375 11.7541 8.73382 11.0387 9.26126 10.5113C9.78871 9.98382 10.5041 9.6875 11.25 9.6875ZM28.75 31.5625H11.25C10.5041 31.5625 9.78871 31.2662 9.26126 30.7387C8.73382 30.2113 8.4375 29.4959 8.4375 28.75V20.9375H31.5625V28.75C31.5625 29.4959 31.2662 30.2113 30.7387 30.7387C30.2113 31.2662 29.4959 31.5625 28.75 31.5625ZM14.6875 26.875C14.6875 27.184 14.5959 27.4861 14.4242 27.7431C14.2525 28 14.0085 28.2003 13.7229 28.3186C13.4374 28.4368 13.1233 28.4678 12.8202 28.4075C12.5171 28.3472 12.2387 28.1984 12.0201 27.9799C11.8016 27.7613 11.6528 27.4829 11.5925 27.1798C11.5322 26.8767 11.5632 26.5626 11.6814 26.2771C11.7997 25.9915 12 25.7475 12.2569 25.5758C12.5139 25.4041 12.816 25.3125 13.125 25.3125C13.5394 25.3125 13.9368 25.4771 14.2299 25.7701C14.5229 26.0632 14.6875 26.4606 14.6875 26.875ZM28.4375 26.875C28.4375 27.184 28.3459 27.4861 28.1742 27.7431C28.0025 28 27.7585 28.2003 27.4729 28.3186C27.1874 28.4368 26.8733 28.4678 26.5702 28.4075C26.2671 28.3472 25.9887 28.1984 25.7701 27.9799C25.5516 27.7613 25.4028 27.4829 25.3425 27.1798C25.2822 26.8767 25.3132 26.5626 25.4314 26.2771C25.5497 25.9915 25.75 25.7475 26.0069 25.5758C26.2639 25.4041 26.566 25.3125 26.875 25.3125C27.2894 25.3125 27.6868 25.4771 27.9799 25.7701C28.2729 26.0632 28.4375 26.4606 28.4375 26.875Z" fill="#303030"/>
</g>
</svg>
